G04 #@! TF.GenerationSoftware,KiCad,Pcbnew,5.0.2-bee76a0~70~ubuntu18.04.1*
G04 #@! TF.CreationDate,2019-03-12T23:57:18+00:00*
G04 #@! TF.ProjectId,tb2,7462322e-6b69-4636-9164-5f7063625858,rev?*
G04 #@! TF.SameCoordinates,Original*
G04 #@! TF.FileFunction,Copper,L1,Top*
G04 #@! TF.FilePolarity,Positive*
%FSLAX46Y46*%
G04 Gerber Fmt 4.6, Leading zero omitted, Abs format (unit mm)*
G04 Created by KiCad (PCBNEW 5.0.2-bee76a0~70~ubuntu18.04.1) date Tue 12 Mar 2019 23:57:18 GMT*
%MOMM*%
%LPD*%
G01*
G04 APERTURE LIST*
G04 #@! TA.AperFunction,NonConductor*
%ADD10C,0.300000*%
G04 #@! TD*
G04 #@! TA.AperFunction,ComponentPad*
%ADD11R,1.600000X1.600000*%
G04 #@! TD*
G04 #@! TA.AperFunction,ComponentPad*
%ADD12O,1.600000X1.600000*%
G04 #@! TD*
G04 #@! TA.AperFunction,ComponentPad*
%ADD13C,5.000000*%
G04 #@! TD*
G04 #@! TA.AperFunction,ComponentPad*
%ADD14R,3.000000X3.000000*%
G04 #@! TD*
G04 #@! TA.AperFunction,ComponentPad*
%ADD15C,3.000000*%
G04 #@! TD*
G04 #@! TA.AperFunction,ComponentPad*
%ADD16C,1.600000*%
G04 #@! TD*
G04 #@! TA.AperFunction,ComponentPad*
%ADD17R,2.200000X2.200000*%
G04 #@! TD*
G04 #@! TA.AperFunction,ComponentPad*
%ADD18O,2.200000X2.200000*%
G04 #@! TD*
G04 #@! TA.AperFunction,ComponentPad*
%ADD19R,1.700000X1.700000*%
G04 #@! TD*
G04 #@! TA.AperFunction,ComponentPad*
%ADD20O,1.700000X1.700000*%
G04 #@! TD*
G04 #@! TA.AperFunction,ViaPad*
%ADD21C,0.800000*%
G04 #@! TD*
G04 #@! TA.AperFunction,Conductor*
%ADD22C,0.500000*%
G04 #@! TD*
G04 #@! TA.AperFunction,NonConductor*
%ADD23C,0.254000*%
G04 #@! TD*
G04 APERTURE END LIST*
D10*
X55321428Y-88678571D02*
X55321428Y-87178571D01*
X55892857Y-87178571D01*
X56035714Y-87250000D01*
X56107142Y-87321428D01*
X56178571Y-87464285D01*
X56178571Y-87678571D01*
X56107142Y-87821428D01*
X56035714Y-87892857D01*
X55892857Y-87964285D01*
X55321428Y-87964285D01*
X56821428Y-88678571D02*
X56821428Y-87678571D01*
X56821428Y-87178571D02*
X56750000Y-87250000D01*
X56821428Y-87321428D01*
X56892857Y-87250000D01*
X56821428Y-87178571D01*
X56821428Y-87321428D01*
X57392857Y-87178571D02*
X57750000Y-88678571D01*
X58035714Y-87607142D01*
X58321428Y-88678571D01*
X58678571Y-87178571D01*
X59892857Y-88678571D02*
X59892857Y-87892857D01*
X59821428Y-87750000D01*
X59678571Y-87678571D01*
X59392857Y-87678571D01*
X59250000Y-87750000D01*
X59892857Y-88607142D02*
X59750000Y-88678571D01*
X59392857Y-88678571D01*
X59250000Y-88607142D01*
X59178571Y-88464285D01*
X59178571Y-88321428D01*
X59250000Y-88178571D01*
X59392857Y-88107142D01*
X59750000Y-88107142D01*
X59892857Y-88035714D01*
X60607142Y-88678571D02*
X60607142Y-87678571D01*
X60607142Y-87964285D02*
X60678571Y-87821428D01*
X60750000Y-87750000D01*
X60892857Y-87678571D01*
X61035714Y-87678571D01*
X61464285Y-88607142D02*
X61607142Y-88678571D01*
X61892857Y-88678571D01*
X62035714Y-88607142D01*
X62107142Y-88464285D01*
X62107142Y-88392857D01*
X62035714Y-88250000D01*
X61892857Y-88178571D01*
X61678571Y-88178571D01*
X61535714Y-88107142D01*
X61464285Y-87964285D01*
X61464285Y-87892857D01*
X61535714Y-87750000D01*
X61678571Y-87678571D01*
X61892857Y-87678571D01*
X62035714Y-87750000D01*
X63821428Y-87321428D02*
X63892857Y-87250000D01*
X64035714Y-87178571D01*
X64392857Y-87178571D01*
X64535714Y-87250000D01*
X64607142Y-87321428D01*
X64678571Y-87464285D01*
X64678571Y-87607142D01*
X64607142Y-87821428D01*
X63750000Y-88678571D01*
X64678571Y-88678571D01*
X65607142Y-87178571D02*
X65750000Y-87178571D01*
X65892857Y-87250000D01*
X65964285Y-87321428D01*
X66035714Y-87464285D01*
X66107142Y-87750000D01*
X66107142Y-88107142D01*
X66035714Y-88392857D01*
X65964285Y-88535714D01*
X65892857Y-88607142D01*
X65750000Y-88678571D01*
X65607142Y-88678571D01*
X65464285Y-88607142D01*
X65392857Y-88535714D01*
X65321428Y-88392857D01*
X65250000Y-88107142D01*
X65250000Y-87750000D01*
X65321428Y-87464285D01*
X65392857Y-87321428D01*
X65464285Y-87250000D01*
X65607142Y-87178571D01*
X67535714Y-88678571D02*
X66678571Y-88678571D01*
X67107142Y-88678571D02*
X67107142Y-87178571D01*
X66964285Y-87392857D01*
X66821428Y-87535714D01*
X66678571Y-87607142D01*
X68250000Y-88678571D02*
X68535714Y-88678571D01*
X68678571Y-88607142D01*
X68750000Y-88535714D01*
X68892857Y-88321428D01*
X68964285Y-88035714D01*
X68964285Y-87464285D01*
X68892857Y-87321428D01*
X68821428Y-87250000D01*
X68678571Y-87178571D01*
X68392857Y-87178571D01*
X68250000Y-87250000D01*
X68178571Y-87321428D01*
X68107142Y-87464285D01*
X68107142Y-87821428D01*
X68178571Y-87964285D01*
X68250000Y-88035714D01*
X68392857Y-88107142D01*
X68678571Y-88107142D01*
X68821428Y-88035714D01*
X68892857Y-87964285D01*
X68964285Y-87821428D01*
X71321428Y-88607142D02*
X71178571Y-88678571D01*
X70892857Y-88678571D01*
X70750000Y-88607142D01*
X70678571Y-88464285D01*
X70678571Y-87892857D01*
X70750000Y-87750000D01*
X70892857Y-87678571D01*
X71178571Y-87678571D01*
X71321428Y-87750000D01*
X71392857Y-87892857D01*
X71392857Y-88035714D01*
X70678571Y-88178571D01*
X72678571Y-88678571D02*
X72678571Y-87178571D01*
X72678571Y-88607142D02*
X72535714Y-88678571D01*
X72250000Y-88678571D01*
X72107142Y-88607142D01*
X72035714Y-88535714D01*
X71964285Y-88392857D01*
X71964285Y-87964285D01*
X72035714Y-87821428D01*
X72107142Y-87750000D01*
X72250000Y-87678571D01*
X72535714Y-87678571D01*
X72678571Y-87750000D01*
X73392857Y-88678571D02*
X73392857Y-87678571D01*
X73392857Y-87178571D02*
X73321428Y-87250000D01*
X73392857Y-87321428D01*
X73464285Y-87250000D01*
X73392857Y-87178571D01*
X73392857Y-87321428D01*
X73892857Y-87678571D02*
X74464285Y-87678571D01*
X74107142Y-87178571D02*
X74107142Y-88464285D01*
X74178571Y-88607142D01*
X74321428Y-88678571D01*
X74464285Y-88678571D01*
X74964285Y-88678571D02*
X74964285Y-87678571D01*
X74964285Y-87178571D02*
X74892857Y-87250000D01*
X74964285Y-87321428D01*
X75035714Y-87250000D01*
X74964285Y-87178571D01*
X74964285Y-87321428D01*
X75892857Y-88678571D02*
X75750000Y-88607142D01*
X75678571Y-88535714D01*
X75607142Y-88392857D01*
X75607142Y-87964285D01*
X75678571Y-87821428D01*
X75750000Y-87750000D01*
X75892857Y-87678571D01*
X76107142Y-87678571D01*
X76250000Y-87750000D01*
X76321428Y-87821428D01*
X76392857Y-87964285D01*
X76392857Y-88392857D01*
X76321428Y-88535714D01*
X76250000Y-88607142D01*
X76107142Y-88678571D01*
X75892857Y-88678571D01*
X77035714Y-87678571D02*
X77035714Y-88678571D01*
X77035714Y-87821428D02*
X77107142Y-87750000D01*
X77250000Y-87678571D01*
X77464285Y-87678571D01*
X77607142Y-87750000D01*
X77678571Y-87892857D01*
X77678571Y-88678571D01*
X59464285Y-83178571D02*
X60321428Y-83178571D01*
X59892857Y-84678571D02*
X59892857Y-83178571D01*
X61392857Y-84607142D02*
X61249999Y-84678571D01*
X60964285Y-84678571D01*
X60821428Y-84607142D01*
X60749999Y-84464285D01*
X60749999Y-83892857D01*
X60821428Y-83750000D01*
X60964285Y-83678571D01*
X61249999Y-83678571D01*
X61392857Y-83750000D01*
X61464285Y-83892857D01*
X61464285Y-84035714D01*
X60749999Y-84178571D01*
X62107142Y-84678571D02*
X62107142Y-83678571D01*
X62107142Y-83964285D02*
X62178571Y-83821428D01*
X62249999Y-83750000D01*
X62392857Y-83678571D01*
X62535714Y-83678571D01*
X63035714Y-84678571D02*
X63035714Y-83678571D01*
X63035714Y-83964285D02*
X63107142Y-83821428D01*
X63178571Y-83750000D01*
X63321428Y-83678571D01*
X63464285Y-83678571D01*
X63964285Y-84678571D02*
X63964285Y-83678571D01*
X63964285Y-83178571D02*
X63892857Y-83250000D01*
X63964285Y-83321428D01*
X64035714Y-83250000D01*
X63964285Y-83178571D01*
X63964285Y-83321428D01*
X65250000Y-84607142D02*
X65107142Y-84678571D01*
X64821428Y-84678571D01*
X64678571Y-84607142D01*
X64607142Y-84464285D01*
X64607142Y-83892857D01*
X64678571Y-83750000D01*
X64821428Y-83678571D01*
X65107142Y-83678571D01*
X65250000Y-83750000D01*
X65321428Y-83892857D01*
X65321428Y-84035714D01*
X64607142Y-84178571D01*
X65964285Y-84678571D02*
X65964285Y-83678571D01*
X65964285Y-83964285D02*
X66035714Y-83821428D01*
X66107142Y-83750000D01*
X66249999Y-83678571D01*
X66392857Y-83678571D01*
X66892857Y-84678571D02*
X66892857Y-83178571D01*
X66892857Y-83750000D02*
X67035714Y-83678571D01*
X67321428Y-83678571D01*
X67464285Y-83750000D01*
X67535714Y-83821428D01*
X67607142Y-83964285D01*
X67607142Y-84392857D01*
X67535714Y-84535714D01*
X67464285Y-84607142D01*
X67321428Y-84678571D01*
X67035714Y-84678571D01*
X66892857Y-84607142D01*
X68464285Y-84678571D02*
X68321428Y-84607142D01*
X68250000Y-84535714D01*
X68178571Y-84392857D01*
X68178571Y-83964285D01*
X68250000Y-83821428D01*
X68321428Y-83750000D01*
X68464285Y-83678571D01*
X68678571Y-83678571D01*
X68821428Y-83750000D01*
X68892857Y-83821428D01*
X68964285Y-83964285D01*
X68964285Y-84392857D01*
X68892857Y-84535714D01*
X68821428Y-84607142D01*
X68678571Y-84678571D01*
X68464285Y-84678571D01*
X69392857Y-83678571D02*
X69964285Y-83678571D01*
X69607142Y-83178571D02*
X69607142Y-84464285D01*
X69678571Y-84607142D01*
X69821428Y-84678571D01*
X69964285Y-84678571D01*
X71535714Y-83321428D02*
X71607142Y-83250000D01*
X71750000Y-83178571D01*
X72107142Y-83178571D01*
X72250000Y-83250000D01*
X72321428Y-83321428D01*
X72392857Y-83464285D01*
X72392857Y-83607142D01*
X72321428Y-83821428D01*
X71464285Y-84678571D01*
X72392857Y-84678571D01*
D11*
G04 #@! TO.P,U2,1*
G04 #@! TO.N,Net-(U2-Pad1)*
X74370000Y-131700000D03*
D12*
G04 #@! TO.P,U2,15*
G04 #@! TO.N,GND*
X41350000Y-139320000D03*
G04 #@! TO.P,U2,2*
G04 #@! TO.N,Net-(U2-Pad2)*
X71830000Y-131700000D03*
G04 #@! TO.P,U2,16*
G04 #@! TO.N,GND*
X43890000Y-139320000D03*
G04 #@! TO.P,U2,3*
G04 #@! TO.N,Net-(U2-Pad3)*
X69290000Y-131700000D03*
G04 #@! TO.P,U2,17*
G04 #@! TO.N,GND*
X46430000Y-139320000D03*
G04 #@! TO.P,U2,4*
G04 #@! TO.N,Net-(U2-Pad4)*
X66750000Y-131700000D03*
G04 #@! TO.P,U2,18*
G04 #@! TO.N,+3V3*
X48970000Y-139320000D03*
G04 #@! TO.P,U2,5*
G04 #@! TO.N,Net-(U2-Pad5)*
X64210000Y-131700000D03*
G04 #@! TO.P,U2,19*
G04 #@! TO.N,Net-(U2-Pad19)*
X51510000Y-139320000D03*
G04 #@! TO.P,U2,6*
G04 #@! TO.N,Net-(U2-Pad6)*
X61670000Y-131700000D03*
G04 #@! TO.P,U2,20*
G04 #@! TO.N,Net-(U2-Pad20)*
X54050000Y-139320000D03*
G04 #@! TO.P,U2,7*
G04 #@! TO.N,Net-(U2-Pad7)*
X59130000Y-131700000D03*
G04 #@! TO.P,U2,21*
G04 #@! TO.N,Net-(U2-Pad21)*
X56590000Y-139320000D03*
G04 #@! TO.P,U2,8*
G04 #@! TO.N,Net-(U2-Pad8)*
X56590000Y-131700000D03*
G04 #@! TO.P,U2,22*
G04 #@! TO.N,Net-(U2-Pad22)*
X59130000Y-139320000D03*
G04 #@! TO.P,U2,9*
G04 #@! TO.N,+3V3*
X54050000Y-131700000D03*
G04 #@! TO.P,U2,23*
G04 #@! TO.N,Net-(U2-Pad23)*
X61670000Y-139320000D03*
G04 #@! TO.P,U2,10*
G04 #@! TO.N,GND*
X51510000Y-131700000D03*
G04 #@! TO.P,U2,24*
G04 #@! TO.N,Net-(U2-Pad24)*
X64210000Y-139320000D03*
G04 #@! TO.P,U2,11*
G04 #@! TO.N,Net-(U2-Pad11)*
X48970000Y-131700000D03*
G04 #@! TO.P,U2,25*
G04 #@! TO.N,Net-(U1-Pad2)*
X66750000Y-139320000D03*
G04 #@! TO.P,U2,12*
G04 #@! TO.N,/SCL*
X46430000Y-131700000D03*
G04 #@! TO.P,U2,26*
G04 #@! TO.N,Net-(U1-Pad7)*
X69290000Y-139320000D03*
G04 #@! TO.P,U2,13*
G04 #@! TO.N,/SDA*
X43890000Y-131700000D03*
G04 #@! TO.P,U2,27*
G04 #@! TO.N,Net-(U1-Pad10)*
X71830000Y-139320000D03*
G04 #@! TO.P,U2,14*
G04 #@! TO.N,Net-(U2-Pad14)*
X41350000Y-131700000D03*
G04 #@! TO.P,U2,28*
G04 #@! TO.N,Net-(U1-Pad15)*
X74370000Y-139320000D03*
G04 #@! TD*
D13*
G04 #@! TO.P,REF\002A\002A,1*
G04 #@! TO.N,N/C*
X99120000Y-80230000D03*
G04 #@! TD*
G04 #@! TO.P,REF\002A\002A,1*
G04 #@! TO.N,N/C*
X43000000Y-66500000D03*
G04 #@! TD*
D14*
G04 #@! TO.P,J6,1*
G04 #@! TO.N,Net-(D1-Pad2)*
X56370000Y-167700000D03*
D15*
G04 #@! TO.P,J6,2*
G04 #@! TO.N,GND*
X51290000Y-167700000D03*
G04 #@! TD*
D16*
G04 #@! TO.P,C1,1*
G04 #@! TO.N,GND*
X82450000Y-134140000D03*
G04 #@! TO.P,C1,2*
G04 #@! TO.N,+5V*
X82450000Y-131640000D03*
G04 #@! TD*
G04 #@! TO.P,C2,2*
G04 #@! TO.N,+5V*
X85450000Y-131640000D03*
G04 #@! TO.P,C2,1*
G04 #@! TO.N,GND*
X85450000Y-134140000D03*
G04 #@! TD*
D17*
G04 #@! TO.P,D1,1*
G04 #@! TO.N,+BATT*
X71370000Y-167700000D03*
D18*
G04 #@! TO.P,D1,2*
G04 #@! TO.N,Net-(D1-Pad2)*
X61210000Y-167700000D03*
G04 #@! TD*
D14*
G04 #@! TO.P,J1,1*
G04 #@! TO.N,Net-(J1-Pad1)*
X97370000Y-161290000D03*
D15*
G04 #@! TO.P,J1,2*
G04 #@! TO.N,Net-(J1-Pad2)*
X97370000Y-156210000D03*
G04 #@! TD*
G04 #@! TO.P,J2,2*
G04 #@! TO.N,Net-(J2-Pad2)*
X97000000Y-144780000D03*
D14*
G04 #@! TO.P,J2,1*
G04 #@! TO.N,Net-(J2-Pad1)*
X97000000Y-149860000D03*
G04 #@! TD*
D19*
G04 #@! TO.P,J3,1*
G04 #@! TO.N,+3V3*
X47370000Y-67700000D03*
D20*
G04 #@! TO.P,J3,2*
G04 #@! TO.N,+5V*
X47370000Y-65160000D03*
G04 #@! TO.P,J3,3*
G04 #@! TO.N,/SDA*
X49910000Y-67700000D03*
G04 #@! TO.P,J3,4*
G04 #@! TO.N,+5V*
X49910000Y-65160000D03*
G04 #@! TO.P,J3,5*
G04 #@! TO.N,/SCL*
X52450000Y-67700000D03*
G04 #@! TO.P,J3,6*
G04 #@! TO.N,GND*
X52450000Y-65160000D03*
G04 #@! TO.P,J3,7*
G04 #@! TO.N,Net-(J3-Pad7)*
X54990000Y-67700000D03*
G04 #@! TO.P,J3,8*
G04 #@! TO.N,/TXD*
X54990000Y-65160000D03*
G04 #@! TO.P,J3,9*
G04 #@! TO.N,GND*
X57530000Y-67700000D03*
G04 #@! TO.P,J3,10*
G04 #@! TO.N,/RXD*
X57530000Y-65160000D03*
G04 #@! TO.P,J3,11*
G04 #@! TO.N,Net-(J3-Pad11)*
X60070000Y-67700000D03*
G04 #@! TO.P,J3,12*
G04 #@! TO.N,/PWM0*
X60070000Y-65160000D03*
G04 #@! TO.P,J3,13*
G04 #@! TO.N,Net-(J3-Pad13)*
X62610000Y-67700000D03*
G04 #@! TO.P,J3,14*
G04 #@! TO.N,GND*
X62610000Y-65160000D03*
G04 #@! TO.P,J3,15*
G04 #@! TO.N,/TOF_INT*
X65150000Y-67700000D03*
G04 #@! TO.P,J3,16*
G04 #@! TO.N,/SDA_SOFT*
X65150000Y-65160000D03*
G04 #@! TO.P,J3,17*
G04 #@! TO.N,+3V3*
X67690000Y-67700000D03*
G04 #@! TO.P,J3,18*
G04 #@! TO.N,/SCL_SOFT*
X67690000Y-65160000D03*
G04 #@! TO.P,J3,19*
G04 #@! TO.N,Net-(J3-Pad19)*
X70230000Y-67700000D03*
G04 #@! TO.P,J3,20*
G04 #@! TO.N,GND*
X70230000Y-65160000D03*
G04 #@! TO.P,J3,21*
G04 #@! TO.N,Net-(J3-Pad21)*
X72770000Y-67700000D03*
G04 #@! TO.P,J3,22*
G04 #@! TO.N,Net-(J3-Pad22)*
X72770000Y-65160000D03*
G04 #@! TO.P,J3,23*
G04 #@! TO.N,Net-(J3-Pad23)*
X75310000Y-67700000D03*
G04 #@! TO.P,J3,24*
G04 #@! TO.N,Net-(J3-Pad24)*
X75310000Y-65160000D03*
G04 #@! TO.P,J3,25*
G04 #@! TO.N,GND*
X77850000Y-67700000D03*
G04 #@! TO.P,J3,26*
G04 #@! TO.N,Net-(J3-Pad26)*
X77850000Y-65160000D03*
G04 #@! TO.P,J3,27*
G04 #@! TO.N,Net-(J3-Pad27)*
X80390000Y-67700000D03*
G04 #@! TO.P,J3,28*
G04 #@! TO.N,Net-(J3-Pad28)*
X80390000Y-65160000D03*
G04 #@! TO.P,J3,29*
G04 #@! TO.N,Net-(J3-Pad29)*
X82930000Y-67700000D03*
G04 #@! TO.P,J3,30*
G04 #@! TO.N,GND*
X82930000Y-65160000D03*
G04 #@! TO.P,J3,31*
G04 #@! TO.N,Net-(J3-Pad31)*
X85470000Y-67700000D03*
G04 #@! TO.P,J3,32*
G04 #@! TO.N,/GVS2*
X85470000Y-65160000D03*
G04 #@! TO.P,J3,33*
G04 #@! TO.N,/PWM1*
X88010000Y-67700000D03*
G04 #@! TO.P,J3,34*
G04 #@! TO.N,GND*
X88010000Y-65160000D03*
G04 #@! TO.P,J3,35*
G04 #@! TO.N,/GVS3*
X90550000Y-67700000D03*
G04 #@! TO.P,J3,36*
G04 #@! TO.N,/GVS1*
X90550000Y-65160000D03*
G04 #@! TO.P,J3,37*
G04 #@! TO.N,/GVS4*
X93090000Y-67700000D03*
G04 #@! TO.P,J3,38*
G04 #@! TO.N,Net-(J3-Pad38)*
X93090000Y-65160000D03*
G04 #@! TO.P,J3,39*
G04 #@! TO.N,GND*
X95630000Y-67700000D03*
G04 #@! TO.P,J3,40*
G04 #@! TO.N,Net-(J3-Pad40)*
X95630000Y-65160000D03*
G04 #@! TD*
D15*
G04 #@! TO.P,J4,2*
G04 #@! TO.N,Net-(J4-Pad2)*
X43180000Y-156210000D03*
D14*
G04 #@! TO.P,J4,1*
G04 #@! TO.N,Net-(J4-Pad1)*
X43180000Y-161290000D03*
G04 #@! TD*
G04 #@! TO.P,J5,1*
G04 #@! TO.N,Net-(J5-Pad1)*
X43370000Y-145700000D03*
D15*
G04 #@! TO.P,J5,2*
G04 #@! TO.N,Net-(J5-Pad2)*
X43370000Y-150780000D03*
G04 #@! TD*
D19*
G04 #@! TO.P,J7,1*
G04 #@! TO.N,GND*
X89842224Y-149832635D03*
D20*
G04 #@! TO.P,J7,2*
G04 #@! TO.N,/SCL*
X89842224Y-147292635D03*
G04 #@! TO.P,J7,3*
G04 #@! TO.N,/SDA*
X89842224Y-144752635D03*
G04 #@! TO.P,J7,4*
G04 #@! TO.N,+5V*
X89842224Y-142212635D03*
G04 #@! TD*
D19*
G04 #@! TO.P,J8,1*
G04 #@! TO.N,GND*
X85842224Y-149832635D03*
D20*
G04 #@! TO.P,J8,2*
G04 #@! TO.N,/SCL*
X85842224Y-147292635D03*
G04 #@! TO.P,J8,3*
G04 #@! TO.N,/SDA*
X85842224Y-144752635D03*
G04 #@! TO.P,J8,4*
G04 #@! TO.N,+5V*
X85842224Y-142212635D03*
G04 #@! TD*
G04 #@! TO.P,J9,4*
G04 #@! TO.N,+5V*
X81842224Y-142212635D03*
G04 #@! TO.P,J9,3*
G04 #@! TO.N,/SDA*
X81842224Y-144752635D03*
G04 #@! TO.P,J9,2*
G04 #@! TO.N,/SCL*
X81842224Y-147292635D03*
D19*
G04 #@! TO.P,J9,1*
G04 #@! TO.N,GND*
X81842224Y-149832635D03*
G04 #@! TD*
D20*
G04 #@! TO.P,J10,4*
G04 #@! TO.N,+5V*
X77842224Y-142212635D03*
G04 #@! TO.P,J10,3*
G04 #@! TO.N,/SDA*
X77842224Y-144752635D03*
G04 #@! TO.P,J10,2*
G04 #@! TO.N,/SCL*
X77842224Y-147292635D03*
D19*
G04 #@! TO.P,J10,1*
G04 #@! TO.N,GND*
X77842224Y-149832635D03*
G04 #@! TD*
G04 #@! TO.P,J11,1*
G04 #@! TO.N,GND*
X41000000Y-126540000D03*
D20*
G04 #@! TO.P,J11,2*
G04 #@! TO.N,/TOF_INT*
X41000000Y-124000000D03*
G04 #@! TO.P,J11,3*
G04 #@! TO.N,/SCL*
X41000000Y-121460000D03*
G04 #@! TO.P,J11,4*
G04 #@! TO.N,/SDA*
X41000000Y-118920000D03*
G04 #@! TO.P,J11,5*
G04 #@! TO.N,+5V*
X41000000Y-116380000D03*
G04 #@! TD*
G04 #@! TO.P,J12,3*
G04 #@! TO.N,GND*
X90106398Y-133122910D03*
G04 #@! TO.P,J12,2*
G04 #@! TO.N,+5V*
X90106398Y-130582910D03*
D19*
G04 #@! TO.P,J12,1*
G04 #@! TO.N,/GVS1*
X90106398Y-128042910D03*
G04 #@! TD*
D20*
G04 #@! TO.P,J13,3*
G04 #@! TO.N,GND*
X93106398Y-133122910D03*
G04 #@! TO.P,J13,2*
G04 #@! TO.N,+5V*
X93106398Y-130582910D03*
D19*
G04 #@! TO.P,J13,1*
G04 #@! TO.N,/GVS3*
X93106398Y-128042910D03*
G04 #@! TD*
G04 #@! TO.P,J14,1*
G04 #@! TO.N,/GVS2*
X96106398Y-128017911D03*
D20*
G04 #@! TO.P,J14,2*
G04 #@! TO.N,+5V*
X96106398Y-130557911D03*
G04 #@! TO.P,J14,3*
G04 #@! TO.N,GND*
X96106398Y-133097911D03*
G04 #@! TD*
D19*
G04 #@! TO.P,J15,1*
G04 #@! TO.N,/GVS4*
X99106398Y-128042910D03*
D20*
G04 #@! TO.P,J15,2*
G04 #@! TO.N,+5V*
X99106398Y-130582910D03*
G04 #@! TO.P,J15,3*
G04 #@! TO.N,GND*
X99106398Y-133122910D03*
G04 #@! TD*
D19*
G04 #@! TO.P,J16,1*
G04 #@! TO.N,+3V3*
X62370000Y-125430000D03*
D20*
G04 #@! TO.P,J16,2*
X64910000Y-125430000D03*
G04 #@! TO.P,J16,3*
G04 #@! TO.N,/INT*
X67450000Y-125430000D03*
G04 #@! TO.P,J16,4*
G04 #@! TO.N,+3V3*
X69990000Y-125430000D03*
G04 #@! TO.P,J16,5*
G04 #@! TO.N,/SCL_SOFT*
X72530000Y-125430000D03*
G04 #@! TO.P,J16,6*
G04 #@! TO.N,/SDA_SOFT*
X75070000Y-125430000D03*
G04 #@! TO.P,J16,7*
G04 #@! TO.N,GND*
X77610000Y-125430000D03*
G04 #@! TO.P,J16,8*
G04 #@! TO.N,+3V3*
X80150000Y-125430000D03*
G04 #@! TD*
D11*
G04 #@! TO.P,U1,1*
G04 #@! TO.N,/PWM0*
X65370000Y-143700000D03*
D12*
G04 #@! TO.P,U1,9*
X72990000Y-161480000D03*
G04 #@! TO.P,U1,2*
G04 #@! TO.N,Net-(U1-Pad2)*
X65370000Y-146240000D03*
G04 #@! TO.P,U1,10*
G04 #@! TO.N,Net-(U1-Pad10)*
X72990000Y-158940000D03*
G04 #@! TO.P,U1,3*
G04 #@! TO.N,Net-(J2-Pad1)*
X65370000Y-148780000D03*
G04 #@! TO.P,U1,11*
G04 #@! TO.N,Net-(J1-Pad1)*
X72990000Y-156400000D03*
G04 #@! TO.P,U1,4*
G04 #@! TO.N,GND*
X65370000Y-151320000D03*
G04 #@! TO.P,U1,12*
X72990000Y-153860000D03*
G04 #@! TO.P,U1,5*
X65370000Y-153860000D03*
G04 #@! TO.P,U1,13*
X72990000Y-151320000D03*
G04 #@! TO.P,U1,6*
G04 #@! TO.N,Net-(J2-Pad2)*
X65370000Y-156400000D03*
G04 #@! TO.P,U1,14*
G04 #@! TO.N,Net-(J1-Pad2)*
X72990000Y-148780000D03*
G04 #@! TO.P,U1,7*
G04 #@! TO.N,Net-(U1-Pad7)*
X65370000Y-158940000D03*
G04 #@! TO.P,U1,15*
G04 #@! TO.N,Net-(U1-Pad15)*
X72990000Y-146240000D03*
G04 #@! TO.P,U1,8*
G04 #@! TO.N,+BATT*
X65370000Y-161480000D03*
G04 #@! TO.P,U1,16*
G04 #@! TO.N,+5V*
X72990000Y-143700000D03*
G04 #@! TD*
G04 #@! TO.P,U3,16*
G04 #@! TO.N,+5V*
X59990000Y-143700000D03*
G04 #@! TO.P,U3,8*
G04 #@! TO.N,+BATT*
X52370000Y-161480000D03*
G04 #@! TO.P,U3,15*
G04 #@! TO.N,Net-(U2-Pad24)*
X59990000Y-146240000D03*
G04 #@! TO.P,U3,7*
G04 #@! TO.N,Net-(U2-Pad22)*
X52370000Y-158940000D03*
G04 #@! TO.P,U3,14*
G04 #@! TO.N,Net-(J4-Pad2)*
X59990000Y-148780000D03*
G04 #@! TO.P,U3,6*
G04 #@! TO.N,Net-(J5-Pad2)*
X52370000Y-156400000D03*
G04 #@! TO.P,U3,13*
G04 #@! TO.N,GND*
X59990000Y-151320000D03*
G04 #@! TO.P,U3,5*
X52370000Y-153860000D03*
G04 #@! TO.P,U3,12*
X59990000Y-153860000D03*
G04 #@! TO.P,U3,4*
X52370000Y-151320000D03*
G04 #@! TO.P,U3,11*
G04 #@! TO.N,Net-(J4-Pad1)*
X59990000Y-156400000D03*
G04 #@! TO.P,U3,3*
G04 #@! TO.N,Net-(J5-Pad1)*
X52370000Y-148780000D03*
G04 #@! TO.P,U3,10*
G04 #@! TO.N,Net-(U2-Pad23)*
X59990000Y-158940000D03*
G04 #@! TO.P,U3,2*
G04 #@! TO.N,Net-(U2-Pad21)*
X52370000Y-146240000D03*
G04 #@! TO.P,U3,9*
G04 #@! TO.N,/PWM0*
X59990000Y-161480000D03*
D11*
G04 #@! TO.P,U3,1*
X52370000Y-143700000D03*
G04 #@! TD*
D13*
G04 #@! TO.P,REF\002A\002A,1*
G04 #@! TO.N,N/C*
X43000000Y-167640000D03*
G04 #@! TD*
G04 #@! TO.P,REF\002A\002A,1*
G04 #@! TO.N,N/C*
X98500000Y-167500000D03*
G04 #@! TD*
D21*
G04 #@! TO.N,+5V*
X80010000Y-134620000D03*
G04 #@! TO.N,+3V3*
X54610000Y-121920000D03*
G04 #@! TO.N,+5V*
X74380000Y-134620000D03*
G04 #@! TO.N,/SDA*
X44450000Y-119380000D03*
G04 #@! TO.N,/SCL*
X45720000Y-121920000D03*
G04 #@! TO.N,GND*
X48680000Y-151320000D03*
G04 #@! TO.N,/PWM0*
X101600000Y-71120000D03*
X101600000Y-60960000D03*
G04 #@! TO.N,/TOF_INT*
X46990000Y-123190000D03*
G04 #@! TO.N,/SDA_SOFT*
X95250000Y-71120000D03*
X88900000Y-71120000D03*
G04 #@! TO.N,/SCL_SOFT*
X95250000Y-69850000D03*
X88900000Y-69850000D03*
X88900000Y-69850000D03*
G04 #@! TD*
D22*
G04 #@! TO.N,+5V*
X80010000Y-134620000D02*
X80010000Y-134620000D01*
G04 #@! TO.N,Net-(J1-Pad1)*
X97370000Y-162700000D02*
X95370000Y-162700000D01*
X93070000Y-156400000D02*
X93980000Y-157310000D01*
X72990000Y-156400000D02*
X93070000Y-156400000D01*
X93980000Y-161310000D02*
X95370000Y-162700000D01*
X93980000Y-157310000D02*
X93980000Y-161310000D01*
G04 #@! TO.N,Net-(J1-Pad2)*
X72990000Y-148780000D02*
X74740000Y-148780000D01*
X74740000Y-148780000D02*
X74740000Y-154750000D01*
X74740000Y-154750000D02*
X74930000Y-154940000D01*
X94690000Y-154940000D02*
X97370000Y-157620000D01*
X74930000Y-154940000D02*
X94690000Y-154940000D01*
G04 #@! TO.N,+3V3*
X54610000Y-131140000D02*
X54050000Y-131700000D01*
X54610000Y-121920000D02*
X54610000Y-131140000D01*
X48970000Y-136780000D02*
X48970000Y-139320000D01*
X54050000Y-131700000D02*
X48970000Y-136780000D01*
G04 #@! TO.N,+5V*
X72990000Y-143700000D02*
X74700000Y-143700000D01*
X76354859Y-143700000D02*
X77470000Y-142584859D01*
X74700000Y-143700000D02*
X76354859Y-143700000D01*
X77842224Y-142212635D02*
X85842224Y-142212635D01*
X77470000Y-142584859D02*
X77842224Y-142212635D01*
X85842224Y-142212635D02*
X89842224Y-142212635D01*
X71530000Y-142240000D02*
X72990000Y-143700000D01*
X59990000Y-143700000D02*
X61450000Y-142240000D01*
X61450000Y-142240000D02*
X71530000Y-142240000D01*
X80010000Y-134620000D02*
X74380000Y-134620000D01*
G04 #@! TO.N,/SDA*
X77842224Y-144752635D02*
X89842224Y-144752635D01*
X43890000Y-130100000D02*
X43890000Y-131700000D01*
X44450000Y-73660000D02*
X44450000Y-129540000D01*
X48260000Y-69850000D02*
X44450000Y-73660000D01*
X44450000Y-129540000D02*
X43890000Y-130100000D01*
X49910000Y-67700000D02*
X48260000Y-69350000D01*
X48260000Y-69350000D02*
X48260000Y-69850000D01*
G04 #@! TO.N,/SCL*
X89842224Y-147292635D02*
X77842224Y-147292635D01*
X46430000Y-130250000D02*
X46430000Y-131700000D01*
X52450000Y-67700000D02*
X45720000Y-74430000D01*
X45720000Y-129540000D02*
X46430000Y-130250000D01*
X45720000Y-74430000D02*
X45720000Y-129540000D01*
G04 #@! TO.N,GND*
X72990000Y-151320000D02*
X72990000Y-153860000D01*
X92535975Y-133693333D02*
X93106398Y-133122910D01*
X77842224Y-149832635D02*
X89842224Y-149832635D01*
X65370000Y-151320000D02*
X72990000Y-151320000D01*
X77610000Y-124227919D02*
X77500000Y-124117919D01*
X77610000Y-125430000D02*
X77610000Y-124227919D01*
X77500000Y-124117919D02*
X77500000Y-123000000D01*
X77500000Y-123000000D02*
X78000000Y-122500000D01*
X78000000Y-122500000D02*
X87000000Y-122500000D01*
X87000000Y-122500000D02*
X87000000Y-132500000D01*
X87622910Y-133122910D02*
X99106398Y-133122910D01*
X87000000Y-132500000D02*
X87622910Y-133122910D01*
X82450000Y-134140000D02*
X85450000Y-134140000D01*
X87405819Y-133340001D02*
X87622910Y-133122910D01*
X86249999Y-133340001D02*
X87405819Y-133340001D01*
X85450000Y-134140000D02*
X86249999Y-133340001D01*
X91192224Y-149832635D02*
X91500000Y-149524859D01*
X89842224Y-149832635D02*
X91192224Y-149832635D01*
X91500000Y-149524859D02*
X91500000Y-146500000D01*
X91500000Y-146500000D02*
X92500000Y-145500000D01*
X92500000Y-145500000D02*
X92500000Y-141000000D01*
X93106398Y-140393602D02*
X93106398Y-133122910D01*
X92500000Y-141000000D02*
X93106398Y-140393602D01*
X52370000Y-151320000D02*
X47320000Y-151320000D01*
X47320000Y-151320000D02*
X44500000Y-148500000D01*
X44500000Y-148500000D02*
X40000000Y-148500000D01*
X40000000Y-148500000D02*
X40000000Y-163500000D01*
X40000000Y-163500000D02*
X40500000Y-164000000D01*
X47590000Y-164000000D02*
X51290000Y-167700000D01*
X40500000Y-164000000D02*
X47590000Y-164000000D01*
X46430000Y-139320000D02*
X46430000Y-136780000D01*
X39500000Y-133500000D02*
X49710000Y-133500000D01*
X41000000Y-126540000D02*
X41000000Y-128500000D01*
X39500000Y-130000000D02*
X39500000Y-133500000D01*
X46430000Y-136780000D02*
X49710000Y-133500000D01*
X41000000Y-128500000D02*
X39500000Y-130000000D01*
X49710000Y-133500000D02*
X51510000Y-131700000D01*
G04 #@! TO.N,Net-(J5-Pad1)*
X46450000Y-148780000D02*
X52370000Y-148780000D01*
X43370000Y-145700000D02*
X46450000Y-148780000D01*
G04 #@! TO.N,Net-(J5-Pad2)*
X43370000Y-150780000D02*
X47370000Y-154780000D01*
X50750000Y-154780000D02*
X52370000Y-156400000D01*
X47370000Y-154780000D02*
X50750000Y-154780000D01*
G04 #@! TO.N,+BATT*
X66501370Y-161480000D02*
X65370000Y-161480000D01*
X66750000Y-161480000D02*
X66501370Y-161480000D01*
X71370000Y-166100000D02*
X66750000Y-161480000D01*
X71370000Y-167700000D02*
X71370000Y-166100000D01*
X65370000Y-161480000D02*
X63590000Y-161480000D01*
X63590000Y-161480000D02*
X61370000Y-163700000D01*
X53169999Y-162279999D02*
X52370000Y-161480000D01*
X54590000Y-163700000D02*
X53169999Y-162279999D01*
X61370000Y-163700000D02*
X54590000Y-163700000D01*
G04 #@! TO.N,Net-(U2-Pad21)*
X50240000Y-146240000D02*
X52370000Y-146240000D01*
X50000000Y-146000000D02*
X50240000Y-146240000D01*
X50000000Y-142000000D02*
X50000000Y-146000000D01*
X50300000Y-141700000D02*
X50000000Y-142000000D01*
X56590000Y-139320000D02*
X54210000Y-141700000D01*
X54210000Y-141700000D02*
X50300000Y-141700000D01*
G04 #@! TO.N,Net-(U2-Pad22)*
X58330001Y-140119999D02*
X57880001Y-140119999D01*
X59130000Y-139320000D02*
X58330001Y-140119999D01*
X57880001Y-140119999D02*
X55000000Y-143000000D01*
X55000000Y-156310000D02*
X52370000Y-158940000D01*
X55000000Y-143000000D02*
X55000000Y-156310000D01*
G04 #@! TO.N,Net-(U2-Pad23)*
X56060000Y-158940000D02*
X59990000Y-158940000D01*
X56000000Y-159000000D02*
X56060000Y-158940000D01*
X60870001Y-140119999D02*
X60870001Y-140129999D01*
X61670000Y-139320000D02*
X60870001Y-140119999D01*
X59000000Y-141000000D02*
X56000000Y-144000000D01*
X60870001Y-140129999D02*
X60000000Y-141000000D01*
X60000000Y-141000000D02*
X59000000Y-141000000D01*
X56000000Y-144000000D02*
X56000000Y-159000000D01*
G04 #@! TO.N,Net-(U2-Pad24)*
X64210000Y-140790000D02*
X64210000Y-139320000D01*
X64000000Y-141000000D02*
X64210000Y-140790000D01*
X64000000Y-141000000D02*
X61000000Y-141000000D01*
X61000000Y-141000000D02*
X60299990Y-141700010D01*
X60139988Y-141700010D02*
X58000000Y-143839998D01*
X60299990Y-141700010D02*
X60139988Y-141700010D01*
X58000000Y-143839998D02*
X58000000Y-147000000D01*
X58760000Y-146240000D02*
X59990000Y-146240000D01*
X58000000Y-147000000D02*
X58760000Y-146240000D01*
G04 #@! TO.N,Net-(D1-Pad2)*
X56370000Y-167700000D02*
X61210000Y-167700000D01*
G04 #@! TO.N,/PWM0*
X72190001Y-160680001D02*
X72990000Y-161480000D01*
X71739999Y-160229999D02*
X72190001Y-160680001D01*
X59990000Y-161480000D02*
X61240001Y-160229999D01*
X65370000Y-143700000D02*
X62420000Y-143700000D01*
X62420000Y-143700000D02*
X62230000Y-143890000D01*
X61240001Y-160229999D02*
X62230000Y-160229999D01*
X62230000Y-143890000D02*
X62230000Y-160229999D01*
X62230000Y-160229999D02*
X71739999Y-160229999D01*
X65540000Y-59690000D02*
X100330000Y-59690000D01*
X60070000Y-65160000D02*
X65540000Y-59690000D01*
X100330000Y-59690000D02*
X101600000Y-60960000D01*
X101600000Y-71120000D02*
X101600000Y-71120000D01*
X76200000Y-165100000D02*
X76200000Y-164690000D01*
X76200000Y-164690000D02*
X72990000Y-161480000D01*
X100330000Y-74930000D02*
X101600000Y-73660000D01*
X95250000Y-74930000D02*
X100330000Y-74930000D01*
X99060000Y-123190000D02*
X95250000Y-123190000D01*
X95250000Y-123190000D02*
X95250000Y-74930000D01*
X93500000Y-164500000D02*
X94170000Y-163830000D01*
X101600000Y-73660000D02*
X101600000Y-71120000D01*
X101600000Y-162560000D02*
X101600000Y-125730000D01*
X94170000Y-163830000D02*
X100330000Y-163830000D01*
X101600000Y-125730000D02*
X99060000Y-123190000D01*
X100330000Y-163830000D02*
X101600000Y-162560000D01*
X93400000Y-165100000D02*
X93500000Y-165000000D01*
X76200000Y-165100000D02*
X93400000Y-165100000D01*
X93500000Y-165100000D02*
X93500000Y-165000000D01*
X93500000Y-165000000D02*
X93500000Y-164500000D01*
G04 #@! TO.N,/TOF_INT*
X65150000Y-67700000D02*
X65150000Y-69470000D01*
X65150000Y-69470000D02*
X63500000Y-71120000D01*
X63500000Y-71120000D02*
X50800000Y-71120000D01*
X50800000Y-71120000D02*
X46990000Y-74930000D01*
X46990000Y-74930000D02*
X46990000Y-123190000D01*
X46990000Y-123190000D02*
X46990000Y-123190000D01*
G04 #@! TO.N,/SDA_SOFT*
X65150000Y-65160000D02*
X69350000Y-60960000D01*
X69350000Y-60960000D02*
X98779963Y-60960000D01*
X98779963Y-60960000D02*
X100330000Y-60960000D01*
X100330000Y-60960000D02*
X101600000Y-62230000D01*
X101600000Y-62230000D02*
X101600000Y-68299963D01*
X101600000Y-68299963D02*
X98779963Y-71120000D01*
X98779963Y-71120000D02*
X95250000Y-71120000D01*
X95250000Y-71120000D02*
X95250000Y-71120000D01*
X88900000Y-71120000D02*
X88900000Y-71120000D01*
X75070000Y-125430000D02*
X75070000Y-123050000D01*
X75070000Y-125430000D02*
X75070000Y-121780000D01*
X75070000Y-121780000D02*
X76200000Y-120650000D01*
X76200000Y-120650000D02*
X87630000Y-120650000D01*
X88900000Y-119380000D02*
X88900000Y-71120000D01*
X87630000Y-120650000D02*
X88900000Y-119380000D01*
G04 #@! TO.N,/SCL_SOFT*
X67690000Y-65160000D02*
X68580000Y-64270000D01*
X68580000Y-64270000D02*
X70620000Y-62230000D01*
X70620000Y-62230000D02*
X99060000Y-62230000D01*
X99060000Y-62230000D02*
X100330000Y-63500000D01*
X100330000Y-63500000D02*
X100330000Y-68580000D01*
X100330000Y-68580000D02*
X99060000Y-69850000D01*
X99060000Y-69850000D02*
X95250000Y-69850000D01*
X95250000Y-69850000D02*
X95250000Y-69850000D01*
X88900000Y-69850000D02*
X88900000Y-69850000D01*
X88900000Y-69850000D02*
X88900000Y-69850000D01*
X72530000Y-125430000D02*
X72530000Y-121780000D01*
X72530000Y-121780000D02*
X74930000Y-119380000D01*
X74930000Y-119380000D02*
X86360000Y-119380000D01*
X86360000Y-119380000D02*
X86360000Y-71120000D01*
X86360000Y-71120000D02*
X86360000Y-69850000D01*
X86360000Y-69850000D02*
X88900000Y-69850000D01*
G04 #@! TO.N,/GVS3*
X93106398Y-128042910D02*
X93106398Y-74056398D01*
X90550000Y-71500000D02*
X90550000Y-67700000D01*
X93106398Y-74056398D02*
X90550000Y-71500000D01*
G04 #@! TO.N,/GVS4*
X96873488Y-124460000D02*
X99106398Y-126692910D01*
X93980000Y-72900000D02*
X93980000Y-124460000D01*
X99106398Y-126692910D02*
X99106398Y-128042910D01*
X93090000Y-72010000D02*
X93980000Y-72900000D01*
X93980000Y-124460000D02*
X96873488Y-124460000D01*
X93090000Y-67700000D02*
X93090000Y-72010000D01*
G04 #@! TD*
D23*
G36*
X63949094Y-60029328D02*
X60288960Y-63689462D01*
X60216256Y-63675000D01*
X59923744Y-63675000D01*
X59490582Y-63761161D01*
X58999375Y-64089375D01*
X58800000Y-64387761D01*
X58600625Y-64089375D01*
X58109418Y-63761161D01*
X57676256Y-63675000D01*
X57383744Y-63675000D01*
X56950582Y-63761161D01*
X56459375Y-64089375D01*
X56260000Y-64387761D01*
X56060625Y-64089375D01*
X55569418Y-63761161D01*
X55136256Y-63675000D01*
X54843744Y-63675000D01*
X54410582Y-63761161D01*
X53919375Y-64089375D01*
X53720000Y-64387761D01*
X53520625Y-64089375D01*
X53029418Y-63761161D01*
X52596256Y-63675000D01*
X52303744Y-63675000D01*
X51870582Y-63761161D01*
X51379375Y-64089375D01*
X51180000Y-64387761D01*
X50980625Y-64089375D01*
X50489418Y-63761161D01*
X50056256Y-63675000D01*
X49763744Y-63675000D01*
X49330582Y-63761161D01*
X48839375Y-64089375D01*
X48640000Y-64387761D01*
X48440625Y-64089375D01*
X47949418Y-63761161D01*
X47516256Y-63675000D01*
X47223744Y-63675000D01*
X46790582Y-63761161D01*
X46299375Y-64089375D01*
X45971161Y-64580582D01*
X45855908Y-65160000D01*
X45871924Y-65240518D01*
X45658564Y-64725421D01*
X45658122Y-64725127D01*
X45657724Y-64724165D01*
X44775835Y-63842276D01*
X44774873Y-63841878D01*
X44774579Y-63841436D01*
X44198450Y-63603115D01*
X43623590Y-63365000D01*
X43622819Y-63365000D01*
X43622108Y-63364706D01*
X42999577Y-63365000D01*
X42376410Y-63365000D01*
X42375699Y-63365295D01*
X42374928Y-63365295D01*
X41225421Y-63841436D01*
X41225127Y-63841878D01*
X41224165Y-63842276D01*
X40342276Y-64724165D01*
X40341878Y-64725127D01*
X40341436Y-64725421D01*
X40103115Y-65301550D01*
X39865000Y-65876410D01*
X39865000Y-65877181D01*
X39864706Y-65877892D01*
X39865000Y-66500000D01*
X39865000Y-67123590D01*
X39865295Y-67124301D01*
X39865295Y-67125072D01*
X40341436Y-68274579D01*
X40341878Y-68274873D01*
X40342276Y-68275835D01*
X41224165Y-69157724D01*
X41225127Y-69158122D01*
X41225421Y-69158564D01*
X41801550Y-69396885D01*
X42376410Y-69635000D01*
X42377181Y-69635000D01*
X42377892Y-69635294D01*
X43000423Y-69635000D01*
X43623590Y-69635000D01*
X43624301Y-69634705D01*
X43625072Y-69634705D01*
X44774579Y-69158564D01*
X44774873Y-69158122D01*
X44775835Y-69157724D01*
X45657724Y-68275835D01*
X45658122Y-68274873D01*
X45658564Y-68274579D01*
X45872560Y-67757254D01*
X45872560Y-68550000D01*
X45921843Y-68797765D01*
X46062191Y-69007809D01*
X46272235Y-69148157D01*
X46520000Y-69197440D01*
X47388008Y-69197440D01*
X47375000Y-69262836D01*
X47375000Y-69262839D01*
X47357663Y-69350000D01*
X47375000Y-69437161D01*
X47375000Y-69483421D01*
X43885847Y-72972575D01*
X43811951Y-73021951D01*
X43616348Y-73314691D01*
X43565000Y-73572836D01*
X43565000Y-73572839D01*
X43547663Y-73660000D01*
X43565000Y-73747161D01*
X43565001Y-118811991D01*
X43415000Y-119174126D01*
X43415000Y-119585874D01*
X43565001Y-119948009D01*
X43565001Y-129173421D01*
X43325847Y-129412575D01*
X43251951Y-129461951D01*
X43056348Y-129754691D01*
X43005000Y-130012836D01*
X43005000Y-130012839D01*
X42987663Y-130100000D01*
X43005000Y-130187161D01*
X43005000Y-130565479D01*
X42855423Y-130665423D01*
X42620000Y-131017758D01*
X42384577Y-130665423D01*
X41909909Y-130348260D01*
X41491333Y-130265000D01*
X41208667Y-130265000D01*
X40790091Y-130348260D01*
X40385000Y-130618933D01*
X40385000Y-130366578D01*
X41564156Y-129187423D01*
X41638049Y-129138049D01*
X41833652Y-128845310D01*
X41885000Y-128587165D01*
X41885000Y-128587161D01*
X41902337Y-128500001D01*
X41885000Y-128412841D01*
X41885000Y-128030478D01*
X42097765Y-127988157D01*
X42307809Y-127847809D01*
X42448157Y-127637765D01*
X42497440Y-127390000D01*
X42497440Y-125690000D01*
X42448157Y-125442235D01*
X42307809Y-125232191D01*
X42097765Y-125091843D01*
X42052381Y-125082816D01*
X42070625Y-125070625D01*
X42398839Y-124579418D01*
X42514092Y-124000000D01*
X42398839Y-123420582D01*
X42070625Y-122929375D01*
X41772239Y-122730000D01*
X42070625Y-122530625D01*
X42398839Y-122039418D01*
X42514092Y-121460000D01*
X42398839Y-120880582D01*
X42070625Y-120389375D01*
X41772239Y-120190000D01*
X42070625Y-119990625D01*
X42398839Y-119499418D01*
X42514092Y-118920000D01*
X42398839Y-118340582D01*
X42070625Y-117849375D01*
X41772239Y-117650000D01*
X42070625Y-117450625D01*
X42398839Y-116959418D01*
X42514092Y-116380000D01*
X42398839Y-115800582D01*
X42070625Y-115309375D01*
X41579418Y-114981161D01*
X41146256Y-114895000D01*
X40853744Y-114895000D01*
X40420582Y-114981161D01*
X39929375Y-115309375D01*
X39601161Y-115800582D01*
X39485908Y-116380000D01*
X39601161Y-116959418D01*
X39929375Y-117450625D01*
X40227761Y-117650000D01*
X39929375Y-117849375D01*
X39601161Y-118340582D01*
X39485908Y-118920000D01*
X39601161Y-119499418D01*
X39929375Y-119990625D01*
X40227761Y-120190000D01*
X39929375Y-120389375D01*
X39601161Y-120880582D01*
X39485908Y-121460000D01*
X39601161Y-122039418D01*
X39929375Y-122530625D01*
X40227761Y-122730000D01*
X39929375Y-122929375D01*
X39601161Y-123420582D01*
X39485908Y-124000000D01*
X39601161Y-124579418D01*
X39929375Y-125070625D01*
X39947619Y-125082816D01*
X39902235Y-125091843D01*
X39692191Y-125232191D01*
X39551843Y-125442235D01*
X39502560Y-125690000D01*
X39502560Y-127390000D01*
X39551843Y-127637765D01*
X39692191Y-127847809D01*
X39902235Y-127988157D01*
X40115001Y-128030478D01*
X40115001Y-128133420D01*
X38935847Y-129312575D01*
X38861951Y-129361951D01*
X38666348Y-129654691D01*
X38615000Y-129912836D01*
X38615000Y-129912839D01*
X38597663Y-130000000D01*
X38615000Y-130087161D01*
X38615001Y-133412831D01*
X38597662Y-133500000D01*
X38666348Y-133845310D01*
X38861951Y-134138049D01*
X39154690Y-134333652D01*
X39412835Y-134385000D01*
X39412836Y-134385000D01*
X39500000Y-134402338D01*
X39587165Y-134385000D01*
X47573421Y-134385000D01*
X45865845Y-136092577D01*
X45791952Y-136141951D01*
X45742578Y-136215844D01*
X45742576Y-136215846D01*
X45596348Y-136434691D01*
X45527663Y-136780000D01*
X45545001Y-136867165D01*
X45545000Y-138185479D01*
X45395423Y-138285423D01*
X45160000Y-138637758D01*
X44924577Y-138285423D01*
X44449909Y-137968260D01*
X44031333Y-137885000D01*
X43748667Y-137885000D01*
X43330091Y-137968260D01*
X42855423Y-138285423D01*
X42620000Y-138637758D01*
X42384577Y-138285423D01*
X41909909Y-137968260D01*
X41491333Y-137885000D01*
X41208667Y-137885000D01*
X40790091Y-137968260D01*
X40315423Y-138285423D01*
X39998260Y-138760091D01*
X39886887Y-139320000D01*
X39998260Y-139879909D01*
X40315423Y-140354577D01*
X40790091Y-140671740D01*
X41208667Y-140755000D01*
X41491333Y-140755000D01*
X41909909Y-140671740D01*
X42384577Y-140354577D01*
X42620000Y-140002242D01*
X42855423Y-140354577D01*
X43330091Y-140671740D01*
X43748667Y-140755000D01*
X44031333Y-140755000D01*
X44449909Y-140671740D01*
X44924577Y-140354577D01*
X45160000Y-140002242D01*
X45395423Y-140354577D01*
X45870091Y-140671740D01*
X46288667Y-140755000D01*
X46571333Y-140755000D01*
X46989909Y-140671740D01*
X47464577Y-140354577D01*
X47700000Y-140002242D01*
X47935423Y-140354577D01*
X48410091Y-140671740D01*
X48828667Y-140755000D01*
X49111333Y-140755000D01*
X49529909Y-140671740D01*
X50004577Y-140354577D01*
X50240000Y-140002242D01*
X50475423Y-140354577D01*
X50950091Y-140671740D01*
X51368667Y-140755000D01*
X51651333Y-140755000D01*
X52069909Y-140671740D01*
X52544577Y-140354577D01*
X52780000Y-140002242D01*
X53015423Y-140354577D01*
X53490091Y-140671740D01*
X53904292Y-140754130D01*
X53843422Y-140815000D01*
X50387159Y-140815000D01*
X50299999Y-140797663D01*
X50212840Y-140815000D01*
X50212835Y-140815000D01*
X49954690Y-140866348D01*
X49661951Y-141061951D01*
X49612576Y-141135846D01*
X49435847Y-141312575D01*
X49361951Y-141361951D01*
X49166348Y-141654691D01*
X49115000Y-141912836D01*
X49115000Y-141912839D01*
X49097663Y-142000000D01*
X49115000Y-142087161D01*
X49115001Y-145912835D01*
X49097663Y-146000000D01*
X49166348Y-146345309D01*
X49312576Y-146564154D01*
X49312578Y-146564156D01*
X49361952Y-146638049D01*
X49435845Y-146687423D01*
X49552575Y-146804153D01*
X49601951Y-146878049D01*
X49894690Y-147073652D01*
X50152835Y-147125000D01*
X50152840Y-147125000D01*
X50239999Y-147142337D01*
X50327159Y-147125000D01*
X51235479Y-147125000D01*
X51335423Y-147274577D01*
X51687758Y-147510000D01*
X51335423Y-147745423D01*
X51235479Y-147895000D01*
X46816579Y-147895000D01*
X45517440Y-146595862D01*
X45517440Y-144200000D01*
X45468157Y-143952235D01*
X45327809Y-143742191D01*
X45117765Y-143601843D01*
X44870000Y-143552560D01*
X41870000Y-143552560D01*
X41622235Y-143601843D01*
X41412191Y-143742191D01*
X41271843Y-143952235D01*
X41222560Y-144200000D01*
X41222560Y-147200000D01*
X41271843Y-147447765D01*
X41383587Y-147615000D01*
X40087164Y-147615000D01*
X40000000Y-147597662D01*
X39912835Y-147615000D01*
X39654690Y-147666348D01*
X39361951Y-147861951D01*
X39166348Y-148154690D01*
X39097662Y-148500000D01*
X39115000Y-148587165D01*
X39115001Y-163412834D01*
X39097663Y-163500000D01*
X39166348Y-163845309D01*
X39312576Y-164064154D01*
X39312578Y-164064156D01*
X39361952Y-164138049D01*
X39435845Y-164187423D01*
X39812575Y-164564153D01*
X39861951Y-164638049D01*
X40154690Y-164833652D01*
X40412835Y-164885000D01*
X40412839Y-164885000D01*
X40500000Y-164902337D01*
X40587161Y-164885000D01*
X41458238Y-164885000D01*
X41225421Y-164981436D01*
X41225127Y-164981878D01*
X41224165Y-164982276D01*
X40342276Y-165864165D01*
X40341878Y-165865127D01*
X40341436Y-165865421D01*
X40103115Y-166441550D01*
X39865000Y-167016410D01*
X39865000Y-167017181D01*
X39864706Y-167017892D01*
X39865000Y-167640000D01*
X39865000Y-168263590D01*
X39865295Y-168264301D01*
X39865295Y-168265072D01*
X40341436Y-169414579D01*
X40341878Y-169414873D01*
X40342276Y-169415835D01*
X41224165Y-170297724D01*
X41225127Y-170298122D01*
X41225421Y-170298564D01*
X41405366Y-170373000D01*
X38626430Y-170373000D01*
X38127583Y-59628994D01*
X63949094Y-60029328D01*
X63949094Y-60029328D01*
G37*
X63949094Y-60029328D02*
X60288960Y-63689462D01*
X60216256Y-63675000D01*
X59923744Y-63675000D01*
X59490582Y-63761161D01*
X58999375Y-64089375D01*
X58800000Y-64387761D01*
X58600625Y-64089375D01*
X58109418Y-63761161D01*
X57676256Y-63675000D01*
X57383744Y-63675000D01*
X56950582Y-63761161D01*
X56459375Y-64089375D01*
X56260000Y-64387761D01*
X56060625Y-64089375D01*
X55569418Y-63761161D01*
X55136256Y-63675000D01*
X54843744Y-63675000D01*
X54410582Y-63761161D01*
X53919375Y-64089375D01*
X53720000Y-64387761D01*
X53520625Y-64089375D01*
X53029418Y-63761161D01*
X52596256Y-63675000D01*
X52303744Y-63675000D01*
X51870582Y-63761161D01*
X51379375Y-64089375D01*
X51180000Y-64387761D01*
X50980625Y-64089375D01*
X50489418Y-63761161D01*
X50056256Y-63675000D01*
X49763744Y-63675000D01*
X49330582Y-63761161D01*
X48839375Y-64089375D01*
X48640000Y-64387761D01*
X48440625Y-64089375D01*
X47949418Y-63761161D01*
X47516256Y-63675000D01*
X47223744Y-63675000D01*
X46790582Y-63761161D01*
X46299375Y-64089375D01*
X45971161Y-64580582D01*
X45855908Y-65160000D01*
X45871924Y-65240518D01*
X45658564Y-64725421D01*
X45658122Y-64725127D01*
X45657724Y-64724165D01*
X44775835Y-63842276D01*
X44774873Y-63841878D01*
X44774579Y-63841436D01*
X44198450Y-63603115D01*
X43623590Y-63365000D01*
X43622819Y-63365000D01*
X43622108Y-63364706D01*
X42999577Y-63365000D01*
X42376410Y-63365000D01*
X42375699Y-63365295D01*
X42374928Y-63365295D01*
X41225421Y-63841436D01*
X41225127Y-63841878D01*
X41224165Y-63842276D01*
X40342276Y-64724165D01*
X40341878Y-64725127D01*
X40341436Y-64725421D01*
X40103115Y-65301550D01*
X39865000Y-65876410D01*
X39865000Y-65877181D01*
X39864706Y-65877892D01*
X39865000Y-66500000D01*
X39865000Y-67123590D01*
X39865295Y-67124301D01*
X39865295Y-67125072D01*
X40341436Y-68274579D01*
X40341878Y-68274873D01*
X40342276Y-68275835D01*
X41224165Y-69157724D01*
X41225127Y-69158122D01*
X41225421Y-69158564D01*
X41801550Y-69396885D01*
X42376410Y-69635000D01*
X42377181Y-69635000D01*
X42377892Y-69635294D01*
X43000423Y-69635000D01*
X43623590Y-69635000D01*
X43624301Y-69634705D01*
X43625072Y-69634705D01*
X44774579Y-69158564D01*
X44774873Y-69158122D01*
X44775835Y-69157724D01*
X45657724Y-68275835D01*
X45658122Y-68274873D01*
X45658564Y-68274579D01*
X45872560Y-67757254D01*
X45872560Y-68550000D01*
X45921843Y-68797765D01*
X46062191Y-69007809D01*
X46272235Y-69148157D01*
X46520000Y-69197440D01*
X47388008Y-69197440D01*
X47375000Y-69262836D01*
X47375000Y-69262839D01*
X47357663Y-69350000D01*
X47375000Y-69437161D01*
X47375000Y-69483421D01*
X43885847Y-72972575D01*
X43811951Y-73021951D01*
X43616348Y-73314691D01*
X43565000Y-73572836D01*
X43565000Y-73572839D01*
X43547663Y-73660000D01*
X43565000Y-73747161D01*
X43565001Y-118811991D01*
X43415000Y-119174126D01*
X43415000Y-119585874D01*
X43565001Y-119948009D01*
X43565001Y-129173421D01*
X43325847Y-129412575D01*
X43251951Y-129461951D01*
X43056348Y-129754691D01*
X43005000Y-130012836D01*
X43005000Y-130012839D01*
X42987663Y-130100000D01*
X43005000Y-130187161D01*
X43005000Y-130565479D01*
X42855423Y-130665423D01*
X42620000Y-131017758D01*
X42384577Y-130665423D01*
X41909909Y-130348260D01*
X41491333Y-130265000D01*
X41208667Y-130265000D01*
X40790091Y-130348260D01*
X40385000Y-130618933D01*
X40385000Y-130366578D01*
X41564156Y-129187423D01*
X41638049Y-129138049D01*
X41833652Y-128845310D01*
X41885000Y-128587165D01*
X41885000Y-128587161D01*
X41902337Y-128500001D01*
X41885000Y-128412841D01*
X41885000Y-128030478D01*
X42097765Y-127988157D01*
X42307809Y-127847809D01*
X42448157Y-127637765D01*
X42497440Y-127390000D01*
X42497440Y-125690000D01*
X42448157Y-125442235D01*
X42307809Y-125232191D01*
X42097765Y-125091843D01*
X42052381Y-125082816D01*
X42070625Y-125070625D01*
X42398839Y-124579418D01*
X42514092Y-124000000D01*
X42398839Y-123420582D01*
X42070625Y-122929375D01*
X41772239Y-122730000D01*
X42070625Y-122530625D01*
X42398839Y-122039418D01*
X42514092Y-121460000D01*
X42398839Y-120880582D01*
X42070625Y-120389375D01*
X41772239Y-120190000D01*
X42070625Y-119990625D01*
X42398839Y-119499418D01*
X42514092Y-118920000D01*
X42398839Y-118340582D01*
X42070625Y-117849375D01*
X41772239Y-117650000D01*
X42070625Y-117450625D01*
X42398839Y-116959418D01*
X42514092Y-116380000D01*
X42398839Y-115800582D01*
X42070625Y-115309375D01*
X41579418Y-114981161D01*
X41146256Y-114895000D01*
X40853744Y-114895000D01*
X40420582Y-114981161D01*
X39929375Y-115309375D01*
X39601161Y-115800582D01*
X39485908Y-116380000D01*
X39601161Y-116959418D01*
X39929375Y-117450625D01*
X40227761Y-117650000D01*
X39929375Y-117849375D01*
X39601161Y-118340582D01*
X39485908Y-118920000D01*
X39601161Y-119499418D01*
X39929375Y-119990625D01*
X40227761Y-120190000D01*
X39929375Y-120389375D01*
X39601161Y-120880582D01*
X39485908Y-121460000D01*
X39601161Y-122039418D01*
X39929375Y-122530625D01*
X40227761Y-122730000D01*
X39929375Y-122929375D01*
X39601161Y-123420582D01*
X39485908Y-124000000D01*
X39601161Y-124579418D01*
X39929375Y-125070625D01*
X39947619Y-125082816D01*
X39902235Y-125091843D01*
X39692191Y-125232191D01*
X39551843Y-125442235D01*
X39502560Y-125690000D01*
X39502560Y-127390000D01*
X39551843Y-127637765D01*
X39692191Y-127847809D01*
X39902235Y-127988157D01*
X40115001Y-128030478D01*
X40115001Y-128133420D01*
X38935847Y-129312575D01*
X38861951Y-129361951D01*
X38666348Y-129654691D01*
X38615000Y-129912836D01*
X38615000Y-129912839D01*
X38597663Y-130000000D01*
X38615000Y-130087161D01*
X38615001Y-133412831D01*
X38597662Y-133500000D01*
X38666348Y-133845310D01*
X38861951Y-134138049D01*
X39154690Y-134333652D01*
X39412835Y-134385000D01*
X39412836Y-134385000D01*
X39500000Y-134402338D01*
X39587165Y-134385000D01*
X47573421Y-134385000D01*
X45865845Y-136092577D01*
X45791952Y-136141951D01*
X45742578Y-136215844D01*
X45742576Y-136215846D01*
X45596348Y-136434691D01*
X45527663Y-136780000D01*
X45545001Y-136867165D01*
X45545000Y-138185479D01*
X45395423Y-138285423D01*
X45160000Y-138637758D01*
X44924577Y-138285423D01*
X44449909Y-137968260D01*
X44031333Y-137885000D01*
X43748667Y-137885000D01*
X43330091Y-137968260D01*
X42855423Y-138285423D01*
X42620000Y-138637758D01*
X42384577Y-138285423D01*
X41909909Y-137968260D01*
X41491333Y-137885000D01*
X41208667Y-137885000D01*
X40790091Y-137968260D01*
X40315423Y-138285423D01*
X39998260Y-138760091D01*
X39886887Y-139320000D01*
X39998260Y-139879909D01*
X40315423Y-140354577D01*
X40790091Y-140671740D01*
X41208667Y-140755000D01*
X41491333Y-140755000D01*
X41909909Y-140671740D01*
X42384577Y-140354577D01*
X42620000Y-140002242D01*
X42855423Y-140354577D01*
X43330091Y-140671740D01*
X43748667Y-140755000D01*
X44031333Y-140755000D01*
X44449909Y-140671740D01*
X44924577Y-140354577D01*
X45160000Y-140002242D01*
X45395423Y-140354577D01*
X45870091Y-140671740D01*
X46288667Y-140755000D01*
X46571333Y-140755000D01*
X46989909Y-140671740D01*
X47464577Y-140354577D01*
X47700000Y-140002242D01*
X47935423Y-140354577D01*
X48410091Y-140671740D01*
X48828667Y-140755000D01*
X49111333Y-140755000D01*
X49529909Y-140671740D01*
X50004577Y-140354577D01*
X50240000Y-140002242D01*
X50475423Y-140354577D01*
X50950091Y-140671740D01*
X51368667Y-140755000D01*
X51651333Y-140755000D01*
X52069909Y-140671740D01*
X52544577Y-140354577D01*
X52780000Y-140002242D01*
X53015423Y-140354577D01*
X53490091Y-140671740D01*
X53904292Y-140754130D01*
X53843422Y-140815000D01*
X50387159Y-140815000D01*
X50299999Y-140797663D01*
X50212840Y-140815000D01*
X50212835Y-140815000D01*
X49954690Y-140866348D01*
X49661951Y-141061951D01*
X49612576Y-141135846D01*
X49435847Y-141312575D01*
X49361951Y-141361951D01*
X49166348Y-141654691D01*
X49115000Y-141912836D01*
X49115000Y-141912839D01*
X49097663Y-142000000D01*
X49115000Y-142087161D01*
X49115001Y-145912835D01*
X49097663Y-146000000D01*
X49166348Y-146345309D01*
X49312576Y-146564154D01*
X49312578Y-146564156D01*
X49361952Y-146638049D01*
X49435845Y-146687423D01*
X49552575Y-146804153D01*
X49601951Y-146878049D01*
X49894690Y-147073652D01*
X50152835Y-147125000D01*
X50152840Y-147125000D01*
X50239999Y-147142337D01*
X50327159Y-147125000D01*
X51235479Y-147125000D01*
X51335423Y-147274577D01*
X51687758Y-147510000D01*
X51335423Y-147745423D01*
X51235479Y-147895000D01*
X46816579Y-147895000D01*
X45517440Y-146595862D01*
X45517440Y-144200000D01*
X45468157Y-143952235D01*
X45327809Y-143742191D01*
X45117765Y-143601843D01*
X44870000Y-143552560D01*
X41870000Y-143552560D01*
X41622235Y-143601843D01*
X41412191Y-143742191D01*
X41271843Y-143952235D01*
X41222560Y-144200000D01*
X41222560Y-147200000D01*
X41271843Y-147447765D01*
X41383587Y-147615000D01*
X40087164Y-147615000D01*
X40000000Y-147597662D01*
X39912835Y-147615000D01*
X39654690Y-147666348D01*
X39361951Y-147861951D01*
X39166348Y-148154690D01*
X39097662Y-148500000D01*
X39115000Y-148587165D01*
X39115001Y-163412834D01*
X39097663Y-163500000D01*
X39166348Y-163845309D01*
X39312576Y-164064154D01*
X39312578Y-164064156D01*
X39361952Y-164138049D01*
X39435845Y-164187423D01*
X39812575Y-164564153D01*
X39861951Y-164638049D01*
X40154690Y-164833652D01*
X40412835Y-164885000D01*
X40412839Y-164885000D01*
X40500000Y-164902337D01*
X40587161Y-164885000D01*
X41458238Y-164885000D01*
X41225421Y-164981436D01*
X41225127Y-164981878D01*
X41224165Y-164982276D01*
X40342276Y-165864165D01*
X40341878Y-165865127D01*
X40341436Y-165865421D01*
X40103115Y-166441550D01*
X39865000Y-167016410D01*
X39865000Y-167017181D01*
X39864706Y-167017892D01*
X39865000Y-167640000D01*
X39865000Y-168263590D01*
X39865295Y-168264301D01*
X39865295Y-168265072D01*
X40341436Y-169414579D01*
X40341878Y-169414873D01*
X40342276Y-169415835D01*
X41224165Y-170297724D01*
X41225127Y-170298122D01*
X41225421Y-170298564D01*
X41405366Y-170373000D01*
X38626430Y-170373000D01*
X38127583Y-59628994D01*
X63949094Y-60029328D01*
G36*
X41560034Y-149570620D02*
X41235000Y-150355322D01*
X41235000Y-151204678D01*
X41560034Y-151989380D01*
X42160620Y-152589966D01*
X42945322Y-152915000D01*
X43794678Y-152915000D01*
X44119059Y-152780637D01*
X46682577Y-155344156D01*
X46731951Y-155418049D01*
X46805844Y-155467423D01*
X46805845Y-155467424D01*
X46916880Y-155541615D01*
X47024690Y-155613652D01*
X47282835Y-155665000D01*
X47282839Y-155665000D01*
X47369999Y-155682337D01*
X47457159Y-155665000D01*
X50383422Y-155665000D01*
X50941983Y-156223561D01*
X50906887Y-156400000D01*
X51018260Y-156959909D01*
X51335423Y-157434577D01*
X51687758Y-157670000D01*
X51335423Y-157905423D01*
X51018260Y-158380091D01*
X50906887Y-158940000D01*
X51018260Y-159499909D01*
X51335423Y-159974577D01*
X51687758Y-160210000D01*
X51335423Y-160445423D01*
X51018260Y-160920091D01*
X50906887Y-161480000D01*
X51018260Y-162039909D01*
X51335423Y-162514577D01*
X51810091Y-162831740D01*
X52228667Y-162915000D01*
X52511333Y-162915000D01*
X52546438Y-162908017D01*
X52605844Y-162967423D01*
X52605847Y-162967425D01*
X53902577Y-164264156D01*
X53951951Y-164338049D01*
X54025844Y-164387423D01*
X54025845Y-164387424D01*
X54194326Y-164500000D01*
X54244690Y-164533652D01*
X54502835Y-164585000D01*
X54502839Y-164585000D01*
X54590000Y-164602337D01*
X54677161Y-164585000D01*
X61282839Y-164585000D01*
X61370000Y-164602337D01*
X61457161Y-164585000D01*
X61457165Y-164585000D01*
X61715310Y-164533652D01*
X62008049Y-164338049D01*
X62057425Y-164264153D01*
X63956579Y-162365000D01*
X64235479Y-162365000D01*
X64335423Y-162514577D01*
X64810091Y-162831740D01*
X65228667Y-162915000D01*
X65511333Y-162915000D01*
X65929909Y-162831740D01*
X66404577Y-162514577D01*
X66456016Y-162437594D01*
X70021054Y-166002632D01*
X69812191Y-166142191D01*
X69671843Y-166352235D01*
X69622560Y-166600000D01*
X69622560Y-168800000D01*
X69671843Y-169047765D01*
X69812191Y-169257809D01*
X70022235Y-169398157D01*
X70270000Y-169447440D01*
X72470000Y-169447440D01*
X72717765Y-169398157D01*
X72927809Y-169257809D01*
X73068157Y-169047765D01*
X73117440Y-168800000D01*
X73117440Y-166600000D01*
X73068157Y-166352235D01*
X72927809Y-166142191D01*
X72717765Y-166001843D01*
X72470000Y-165952560D01*
X72243011Y-165952560D01*
X72203652Y-165754690D01*
X72125715Y-165638049D01*
X72057424Y-165535845D01*
X72057423Y-165535844D01*
X72008049Y-165461951D01*
X71934156Y-165412577D01*
X67636577Y-161114999D01*
X71373421Y-161114999D01*
X71561983Y-161303561D01*
X71526887Y-161480000D01*
X71638260Y-162039909D01*
X71955423Y-162514577D01*
X72430091Y-162831740D01*
X72848667Y-162915000D01*
X73131333Y-162915000D01*
X73166439Y-162908017D01*
X75307743Y-165049321D01*
X75297662Y-165100000D01*
X75366348Y-165445310D01*
X75561951Y-165738049D01*
X75854690Y-165933652D01*
X75949748Y-165952560D01*
X76200000Y-166002338D01*
X76287164Y-165985000D01*
X93312839Y-165985000D01*
X93400000Y-166002337D01*
X93449998Y-165992392D01*
X93500000Y-166002338D01*
X93845309Y-165933652D01*
X94138049Y-165738049D01*
X94333652Y-165445310D01*
X94385000Y-165187165D01*
X94385000Y-165087160D01*
X94402337Y-165000001D01*
X94385000Y-164912841D01*
X94385000Y-164866578D01*
X94536579Y-164715000D01*
X97030665Y-164715000D01*
X96725421Y-164841436D01*
X96725127Y-164841878D01*
X96724165Y-164842276D01*
X95842276Y-165724165D01*
X95841878Y-165725127D01*
X95841436Y-165725421D01*
X95603115Y-166301550D01*
X95365000Y-166876410D01*
X95365000Y-166877181D01*
X95364706Y-166877892D01*
X95365000Y-167500000D01*
X95365000Y-168123590D01*
X95365295Y-168124301D01*
X95365295Y-168125072D01*
X95841436Y-169274579D01*
X95841878Y-169274873D01*
X95842276Y-169275835D01*
X96724165Y-170157724D01*
X96725127Y-170158122D01*
X96725421Y-170158564D01*
X97243809Y-170373000D01*
X44594874Y-170373000D01*
X44774579Y-170298564D01*
X44774873Y-170298122D01*
X44775835Y-170297724D01*
X45657724Y-169415835D01*
X45658122Y-169414873D01*
X45658564Y-169414579D01*
X45896885Y-168838450D01*
X46135000Y-168263590D01*
X46135000Y-168262819D01*
X46135294Y-168262108D01*
X46135000Y-167639577D01*
X46135000Y-167016410D01*
X46134705Y-167015699D01*
X46134705Y-167014928D01*
X45658564Y-165865421D01*
X45658122Y-165865127D01*
X45657724Y-165864165D01*
X44775835Y-164982276D01*
X44774873Y-164981878D01*
X44774579Y-164981436D01*
X44541450Y-164885000D01*
X47223422Y-164885000D01*
X49289363Y-166950941D01*
X49155000Y-167275322D01*
X49155000Y-168124678D01*
X49480034Y-168909380D01*
X50080620Y-169509966D01*
X50865322Y-169835000D01*
X51714678Y-169835000D01*
X52499380Y-169509966D01*
X53099966Y-168909380D01*
X53425000Y-168124678D01*
X53425000Y-167275322D01*
X53099966Y-166490620D01*
X52809346Y-166200000D01*
X54222560Y-166200000D01*
X54222560Y-169200000D01*
X54271843Y-169447765D01*
X54412191Y-169657809D01*
X54622235Y-169798157D01*
X54870000Y-169847440D01*
X57870000Y-169847440D01*
X58117765Y-169798157D01*
X58327809Y-169657809D01*
X58468157Y-169447765D01*
X58517440Y-169200000D01*
X58517440Y-168585000D01*
X59714672Y-168585000D01*
X59959135Y-168950865D01*
X60533037Y-169334334D01*
X61039120Y-169435000D01*
X61380880Y-169435000D01*
X61886963Y-169334334D01*
X62460865Y-168950865D01*
X62844334Y-168376963D01*
X62978990Y-167700000D01*
X62844334Y-167023037D01*
X62460865Y-166449135D01*
X61886963Y-166065666D01*
X61380880Y-165965000D01*
X61039120Y-165965000D01*
X60533037Y-166065666D01*
X59959135Y-166449135D01*
X59714672Y-166815000D01*
X58517440Y-166815000D01*
X58517440Y-166200000D01*
X58468157Y-165952235D01*
X58327809Y-165742191D01*
X58117765Y-165601843D01*
X57870000Y-165552560D01*
X54870000Y-165552560D01*
X54622235Y-165601843D01*
X54412191Y-165742191D01*
X54271843Y-165952235D01*
X54222560Y-166200000D01*
X52809346Y-166200000D01*
X52499380Y-165890034D01*
X51714678Y-165565000D01*
X50865322Y-165565000D01*
X50540941Y-165699363D01*
X48277424Y-163435846D01*
X48228049Y-163361951D01*
X47935310Y-163166348D01*
X47677165Y-163115000D01*
X47677161Y-163115000D01*
X47590000Y-163097663D01*
X47502839Y-163115000D01*
X45226550Y-163115000D01*
X45278157Y-163037765D01*
X45327440Y-162790000D01*
X45327440Y-159790000D01*
X45278157Y-159542235D01*
X45137809Y-159332191D01*
X44927765Y-159191843D01*
X44680000Y-159142560D01*
X41680000Y-159142560D01*
X41432235Y-159191843D01*
X41222191Y-159332191D01*
X41081843Y-159542235D01*
X41032560Y-159790000D01*
X41032560Y-162790000D01*
X41081843Y-163037765D01*
X41133450Y-163115000D01*
X40885000Y-163115000D01*
X40885000Y-155785322D01*
X41045000Y-155785322D01*
X41045000Y-156634678D01*
X41370034Y-157419380D01*
X41970620Y-158019966D01*
X42755322Y-158345000D01*
X43604678Y-158345000D01*
X44389380Y-158019966D01*
X44989966Y-157419380D01*
X45315000Y-156634678D01*
X45315000Y-155785322D01*
X44989966Y-155000620D01*
X44389380Y-154400034D01*
X43604678Y-154075000D01*
X42755322Y-154075000D01*
X41970620Y-154400034D01*
X41370034Y-155000620D01*
X41045000Y-155785322D01*
X40885000Y-155785322D01*
X40885000Y-149385000D01*
X41745654Y-149385000D01*
X41560034Y-149570620D01*
X41560034Y-149570620D01*
G37*
X41560034Y-149570620D02*
X41235000Y-150355322D01*
X41235000Y-151204678D01*
X41560034Y-151989380D01*
X42160620Y-152589966D01*
X42945322Y-152915000D01*
X43794678Y-152915000D01*
X44119059Y-152780637D01*
X46682577Y-155344156D01*
X46731951Y-155418049D01*
X46805844Y-155467423D01*
X46805845Y-155467424D01*
X46916880Y-155541615D01*
X47024690Y-155613652D01*
X47282835Y-155665000D01*
X47282839Y-155665000D01*
X47369999Y-155682337D01*
X47457159Y-155665000D01*
X50383422Y-155665000D01*
X50941983Y-156223561D01*
X50906887Y-156400000D01*
X51018260Y-156959909D01*
X51335423Y-157434577D01*
X51687758Y-157670000D01*
X51335423Y-157905423D01*
X51018260Y-158380091D01*
X50906887Y-158940000D01*
X51018260Y-159499909D01*
X51335423Y-159974577D01*
X51687758Y-160210000D01*
X51335423Y-160445423D01*
X51018260Y-160920091D01*
X50906887Y-161480000D01*
X51018260Y-162039909D01*
X51335423Y-162514577D01*
X51810091Y-162831740D01*
X52228667Y-162915000D01*
X52511333Y-162915000D01*
X52546438Y-162908017D01*
X52605844Y-162967423D01*
X52605847Y-162967425D01*
X53902577Y-164264156D01*
X53951951Y-164338049D01*
X54025844Y-164387423D01*
X54025845Y-164387424D01*
X54194326Y-164500000D01*
X54244690Y-164533652D01*
X54502835Y-164585000D01*
X54502839Y-164585000D01*
X54590000Y-164602337D01*
X54677161Y-164585000D01*
X61282839Y-164585000D01*
X61370000Y-164602337D01*
X61457161Y-164585000D01*
X61457165Y-164585000D01*
X61715310Y-164533652D01*
X62008049Y-164338049D01*
X62057425Y-164264153D01*
X63956579Y-162365000D01*
X64235479Y-162365000D01*
X64335423Y-162514577D01*
X64810091Y-162831740D01*
X65228667Y-162915000D01*
X65511333Y-162915000D01*
X65929909Y-162831740D01*
X66404577Y-162514577D01*
X66456016Y-162437594D01*
X70021054Y-166002632D01*
X69812191Y-166142191D01*
X69671843Y-166352235D01*
X69622560Y-166600000D01*
X69622560Y-168800000D01*
X69671843Y-169047765D01*
X69812191Y-169257809D01*
X70022235Y-169398157D01*
X70270000Y-169447440D01*
X72470000Y-169447440D01*
X72717765Y-169398157D01*
X72927809Y-169257809D01*
X73068157Y-169047765D01*
X73117440Y-168800000D01*
X73117440Y-166600000D01*
X73068157Y-166352235D01*
X72927809Y-166142191D01*
X72717765Y-166001843D01*
X72470000Y-165952560D01*
X72243011Y-165952560D01*
X72203652Y-165754690D01*
X72125715Y-165638049D01*
X72057424Y-165535845D01*
X72057423Y-165535844D01*
X72008049Y-165461951D01*
X71934156Y-165412577D01*
X67636577Y-161114999D01*
X71373421Y-161114999D01*
X71561983Y-161303561D01*
X71526887Y-161480000D01*
X71638260Y-162039909D01*
X71955423Y-162514577D01*
X72430091Y-162831740D01*
X72848667Y-162915000D01*
X73131333Y-162915000D01*
X73166439Y-162908017D01*
X75307743Y-165049321D01*
X75297662Y-165100000D01*
X75366348Y-165445310D01*
X75561951Y-165738049D01*
X75854690Y-165933652D01*
X75949748Y-165952560D01*
X76200000Y-166002338D01*
X76287164Y-165985000D01*
X93312839Y-165985000D01*
X93400000Y-166002337D01*
X93449998Y-165992392D01*
X93500000Y-166002338D01*
X93845309Y-165933652D01*
X94138049Y-165738049D01*
X94333652Y-165445310D01*
X94385000Y-165187165D01*
X94385000Y-165087160D01*
X94402337Y-165000001D01*
X94385000Y-164912841D01*
X94385000Y-164866578D01*
X94536579Y-164715000D01*
X97030665Y-164715000D01*
X96725421Y-164841436D01*
X96725127Y-164841878D01*
X96724165Y-164842276D01*
X95842276Y-165724165D01*
X95841878Y-165725127D01*
X95841436Y-165725421D01*
X95603115Y-166301550D01*
X95365000Y-166876410D01*
X95365000Y-166877181D01*
X95364706Y-166877892D01*
X95365000Y-167500000D01*
X95365000Y-168123590D01*
X95365295Y-168124301D01*
X95365295Y-168125072D01*
X95841436Y-169274579D01*
X95841878Y-169274873D01*
X95842276Y-169275835D01*
X96724165Y-170157724D01*
X96725127Y-170158122D01*
X96725421Y-170158564D01*
X97243809Y-170373000D01*
X44594874Y-170373000D01*
X44774579Y-170298564D01*
X44774873Y-170298122D01*
X44775835Y-170297724D01*
X45657724Y-169415835D01*
X45658122Y-169414873D01*
X45658564Y-169414579D01*
X45896885Y-168838450D01*
X46135000Y-168263590D01*
X46135000Y-168262819D01*
X46135294Y-168262108D01*
X46135000Y-167639577D01*
X46135000Y-167016410D01*
X46134705Y-167015699D01*
X46134705Y-167014928D01*
X45658564Y-165865421D01*
X45658122Y-165865127D01*
X45657724Y-165864165D01*
X44775835Y-164982276D01*
X44774873Y-164981878D01*
X44774579Y-164981436D01*
X44541450Y-164885000D01*
X47223422Y-164885000D01*
X49289363Y-166950941D01*
X49155000Y-167275322D01*
X49155000Y-168124678D01*
X49480034Y-168909380D01*
X50080620Y-169509966D01*
X50865322Y-169835000D01*
X51714678Y-169835000D01*
X52499380Y-169509966D01*
X53099966Y-168909380D01*
X53425000Y-168124678D01*
X53425000Y-167275322D01*
X53099966Y-166490620D01*
X52809346Y-166200000D01*
X54222560Y-166200000D01*
X54222560Y-169200000D01*
X54271843Y-169447765D01*
X54412191Y-169657809D01*
X54622235Y-169798157D01*
X54870000Y-169847440D01*
X57870000Y-169847440D01*
X58117765Y-169798157D01*
X58327809Y-169657809D01*
X58468157Y-169447765D01*
X58517440Y-169200000D01*
X58517440Y-168585000D01*
X59714672Y-168585000D01*
X59959135Y-168950865D01*
X60533037Y-169334334D01*
X61039120Y-169435000D01*
X61380880Y-169435000D01*
X61886963Y-169334334D01*
X62460865Y-168950865D01*
X62844334Y-168376963D01*
X62978990Y-167700000D01*
X62844334Y-167023037D01*
X62460865Y-166449135D01*
X61886963Y-166065666D01*
X61380880Y-165965000D01*
X61039120Y-165965000D01*
X60533037Y-166065666D01*
X59959135Y-166449135D01*
X59714672Y-166815000D01*
X58517440Y-166815000D01*
X58517440Y-166200000D01*
X58468157Y-165952235D01*
X58327809Y-165742191D01*
X58117765Y-165601843D01*
X57870000Y-165552560D01*
X54870000Y-165552560D01*
X54622235Y-165601843D01*
X54412191Y-165742191D01*
X54271843Y-165952235D01*
X54222560Y-166200000D01*
X52809346Y-166200000D01*
X52499380Y-165890034D01*
X51714678Y-165565000D01*
X50865322Y-165565000D01*
X50540941Y-165699363D01*
X48277424Y-163435846D01*
X48228049Y-163361951D01*
X47935310Y-163166348D01*
X47677165Y-163115000D01*
X47677161Y-163115000D01*
X47590000Y-163097663D01*
X47502839Y-163115000D01*
X45226550Y-163115000D01*
X45278157Y-163037765D01*
X45327440Y-162790000D01*
X45327440Y-159790000D01*
X45278157Y-159542235D01*
X45137809Y-159332191D01*
X44927765Y-159191843D01*
X44680000Y-159142560D01*
X41680000Y-159142560D01*
X41432235Y-159191843D01*
X41222191Y-159332191D01*
X41081843Y-159542235D01*
X41032560Y-159790000D01*
X41032560Y-162790000D01*
X41081843Y-163037765D01*
X41133450Y-163115000D01*
X40885000Y-163115000D01*
X40885000Y-155785322D01*
X41045000Y-155785322D01*
X41045000Y-156634678D01*
X41370034Y-157419380D01*
X41970620Y-158019966D01*
X42755322Y-158345000D01*
X43604678Y-158345000D01*
X44389380Y-158019966D01*
X44989966Y-157419380D01*
X45315000Y-156634678D01*
X45315000Y-155785322D01*
X44989966Y-155000620D01*
X44389380Y-154400034D01*
X43604678Y-154075000D01*
X42755322Y-154075000D01*
X41970620Y-154400034D01*
X41370034Y-155000620D01*
X41045000Y-155785322D01*
X40885000Y-155785322D01*
X40885000Y-149385000D01*
X41745654Y-149385000D01*
X41560034Y-149570620D01*
G36*
X102373000Y-170373000D02*
X99756884Y-170373000D01*
X100274579Y-170158564D01*
X100274873Y-170158122D01*
X100275835Y-170157724D01*
X101157724Y-169275835D01*
X101158122Y-169274873D01*
X101158564Y-169274579D01*
X101396885Y-168698450D01*
X101635000Y-168123590D01*
X101635000Y-168122819D01*
X101635294Y-168122108D01*
X101635000Y-167499577D01*
X101635000Y-166876410D01*
X101634705Y-166875699D01*
X101634705Y-166874928D01*
X101158564Y-165725421D01*
X101158122Y-165725127D01*
X101157724Y-165724165D01*
X100275835Y-164842276D01*
X100274873Y-164841878D01*
X100274579Y-164841436D01*
X99968926Y-164715000D01*
X100242839Y-164715000D01*
X100330000Y-164732337D01*
X100417161Y-164715000D01*
X100417165Y-164715000D01*
X100675310Y-164663652D01*
X100968049Y-164468049D01*
X101017425Y-164394153D01*
X102164156Y-163247423D01*
X102238049Y-163198049D01*
X102340107Y-163045310D01*
X102373000Y-162996082D01*
X102373000Y-170373000D01*
X102373000Y-170373000D01*
G37*
X102373000Y-170373000D02*
X99756884Y-170373000D01*
X100274579Y-170158564D01*
X100274873Y-170158122D01*
X100275835Y-170157724D01*
X101157724Y-169275835D01*
X101158122Y-169274873D01*
X101158564Y-169274579D01*
X101396885Y-168698450D01*
X101635000Y-168123590D01*
X101635000Y-168122819D01*
X101635294Y-168122108D01*
X101635000Y-167499577D01*
X101635000Y-166876410D01*
X101634705Y-166875699D01*
X101634705Y-166874928D01*
X101158564Y-165725421D01*
X101158122Y-165725127D01*
X101157724Y-165724165D01*
X100275835Y-164842276D01*
X100274873Y-164841878D01*
X100274579Y-164841436D01*
X99968926Y-164715000D01*
X100242839Y-164715000D01*
X100330000Y-164732337D01*
X100417161Y-164715000D01*
X100417165Y-164715000D01*
X100675310Y-164663652D01*
X100968049Y-164468049D01*
X101017425Y-164394153D01*
X102164156Y-163247423D01*
X102238049Y-163198049D01*
X102340107Y-163045310D01*
X102373000Y-162996082D01*
X102373000Y-170373000D01*
G36*
X93095000Y-157676579D02*
X93095001Y-161222835D01*
X93077663Y-161310000D01*
X93146348Y-161655309D01*
X93292576Y-161874154D01*
X93292578Y-161874156D01*
X93341952Y-161948049D01*
X93415845Y-161997423D01*
X94363421Y-162945000D01*
X94257159Y-162945000D01*
X94169999Y-162927663D01*
X94082839Y-162945000D01*
X94082835Y-162945000D01*
X93824690Y-162996348D01*
X93751414Y-163045310D01*
X93605845Y-163142576D01*
X93605844Y-163142577D01*
X93531951Y-163191951D01*
X93482577Y-163265844D01*
X92935845Y-163812577D01*
X92861952Y-163861951D01*
X92666348Y-164154690D01*
X92654352Y-164215000D01*
X76946996Y-164215000D01*
X76887424Y-164125845D01*
X76887423Y-164125844D01*
X76838049Y-164051951D01*
X76764156Y-164002577D01*
X74418017Y-161656439D01*
X74453113Y-161480000D01*
X74341740Y-160920091D01*
X74024577Y-160445423D01*
X73672242Y-160210000D01*
X74024577Y-159974577D01*
X74341740Y-159499909D01*
X74453113Y-158940000D01*
X74341740Y-158380091D01*
X74024577Y-157905423D01*
X73672242Y-157670000D01*
X74024577Y-157434577D01*
X74124521Y-157285000D01*
X92703422Y-157285000D01*
X93095000Y-157676579D01*
X93095000Y-157676579D01*
G37*
X93095000Y-157676579D02*
X93095001Y-161222835D01*
X93077663Y-161310000D01*
X93146348Y-161655309D01*
X93292576Y-161874154D01*
X93292578Y-161874156D01*
X93341952Y-161948049D01*
X93415845Y-161997423D01*
X94363421Y-162945000D01*
X94257159Y-162945000D01*
X94169999Y-162927663D01*
X94082839Y-162945000D01*
X94082835Y-162945000D01*
X93824690Y-162996348D01*
X93751414Y-163045310D01*
X93605845Y-163142576D01*
X93605844Y-163142577D01*
X93531951Y-163191951D01*
X93482577Y-163265844D01*
X92935845Y-163812577D01*
X92861952Y-163861951D01*
X92666348Y-164154690D01*
X92654352Y-164215000D01*
X76946996Y-164215000D01*
X76887424Y-164125845D01*
X76887423Y-164125844D01*
X76838049Y-164051951D01*
X76764156Y-164002577D01*
X74418017Y-161656439D01*
X74453113Y-161480000D01*
X74341740Y-160920091D01*
X74024577Y-160445423D01*
X73672242Y-160210000D01*
X74024577Y-159974577D01*
X74341740Y-159499909D01*
X74453113Y-158940000D01*
X74341740Y-158380091D01*
X74024577Y-157905423D01*
X73672242Y-157670000D01*
X74024577Y-157434577D01*
X74124521Y-157285000D01*
X92703422Y-157285000D01*
X93095000Y-157676579D01*
G36*
X100715001Y-126096580D02*
X100715000Y-162193421D01*
X99963422Y-162945000D01*
X99486609Y-162945000D01*
X99517440Y-162790000D01*
X99517440Y-159790000D01*
X99468157Y-159542235D01*
X99327809Y-159332191D01*
X99117765Y-159191843D01*
X98870000Y-159142560D01*
X95870000Y-159142560D01*
X95622235Y-159191843D01*
X95412191Y-159332191D01*
X95271843Y-159542235D01*
X95222560Y-159790000D01*
X95222560Y-161300982D01*
X94865000Y-160943422D01*
X94865000Y-157397159D01*
X94882337Y-157309999D01*
X94865000Y-157222839D01*
X94865000Y-157222835D01*
X94813652Y-156964690D01*
X94618049Y-156671951D01*
X94544156Y-156622577D01*
X93757425Y-155835847D01*
X93750177Y-155825000D01*
X94323422Y-155825000D01*
X95307054Y-156808633D01*
X95560034Y-157419380D01*
X96160620Y-158019966D01*
X96771366Y-158272945D01*
X96805845Y-158307424D01*
X97024689Y-158453651D01*
X97369999Y-158522337D01*
X97715309Y-158453651D01*
X98008049Y-158258049D01*
X98009370Y-158256072D01*
X98579380Y-158019966D01*
X99179966Y-157419380D01*
X99505000Y-156634678D01*
X99505000Y-155785322D01*
X99179966Y-155000620D01*
X98579380Y-154400034D01*
X97794678Y-154075000D01*
X96945322Y-154075000D01*
X96160620Y-154400034D01*
X95781116Y-154779538D01*
X95377424Y-154375846D01*
X95328049Y-154301951D01*
X95035310Y-154106348D01*
X94777165Y-154055000D01*
X94777161Y-154055000D01*
X94690000Y-154037663D01*
X94602839Y-154055000D01*
X75625000Y-154055000D01*
X75625000Y-148867165D01*
X75642338Y-148780000D01*
X75573652Y-148434690D01*
X75378049Y-148141951D01*
X75085310Y-147946348D01*
X74827165Y-147895000D01*
X74827164Y-147895000D01*
X74740000Y-147877662D01*
X74652835Y-147895000D01*
X74124521Y-147895000D01*
X74024577Y-147745423D01*
X73672242Y-147510000D01*
X74024577Y-147274577D01*
X74341740Y-146799909D01*
X74453113Y-146240000D01*
X74341740Y-145680091D01*
X74024577Y-145205423D01*
X73672242Y-144970000D01*
X74024577Y-144734577D01*
X74124521Y-144585000D01*
X76267698Y-144585000D01*
X76354859Y-144602337D01*
X76358159Y-144601681D01*
X76328132Y-144752635D01*
X76443385Y-145332053D01*
X76771599Y-145823260D01*
X77069985Y-146022635D01*
X76771599Y-146222010D01*
X76443385Y-146713217D01*
X76328132Y-147292635D01*
X76443385Y-147872053D01*
X76771599Y-148363260D01*
X76789843Y-148375451D01*
X76744459Y-148384478D01*
X76534415Y-148524826D01*
X76394067Y-148734870D01*
X76344784Y-148982635D01*
X76344784Y-150682635D01*
X76394067Y-150930400D01*
X76534415Y-151140444D01*
X76744459Y-151280792D01*
X76992224Y-151330075D01*
X78692224Y-151330075D01*
X78939989Y-151280792D01*
X79150033Y-151140444D01*
X79290381Y-150930400D01*
X79332702Y-150717635D01*
X80351746Y-150717635D01*
X80394067Y-150930400D01*
X80534415Y-151140444D01*
X80744459Y-151280792D01*
X80992224Y-151330075D01*
X82692224Y-151330075D01*
X82939989Y-151280792D01*
X83150033Y-151140444D01*
X83290381Y-150930400D01*
X83332702Y-150717635D01*
X84351746Y-150717635D01*
X84394067Y-150930400D01*
X84534415Y-151140444D01*
X84744459Y-151280792D01*
X84992224Y-151330075D01*
X86692224Y-151330075D01*
X86939989Y-151280792D01*
X87150033Y-151140444D01*
X87290381Y-150930400D01*
X87332702Y-150717635D01*
X88351746Y-150717635D01*
X88394067Y-150930400D01*
X88534415Y-151140444D01*
X88744459Y-151280792D01*
X88992224Y-151330075D01*
X90692224Y-151330075D01*
X90939989Y-151280792D01*
X91150033Y-151140444D01*
X91290381Y-150930400D01*
X91334898Y-150706594D01*
X91537534Y-150666287D01*
X91830273Y-150470684D01*
X91879649Y-150396788D01*
X92064154Y-150212283D01*
X92138049Y-150162908D01*
X92333652Y-149870169D01*
X92385000Y-149612024D01*
X92385000Y-149612020D01*
X92402337Y-149524859D01*
X92385000Y-149437698D01*
X92385000Y-148360000D01*
X94852560Y-148360000D01*
X94852560Y-151360000D01*
X94901843Y-151607765D01*
X95042191Y-151817809D01*
X95252235Y-151958157D01*
X95500000Y-152007440D01*
X98500000Y-152007440D01*
X98747765Y-151958157D01*
X98957809Y-151817809D01*
X99098157Y-151607765D01*
X99147440Y-151360000D01*
X99147440Y-148360000D01*
X99098157Y-148112235D01*
X98957809Y-147902191D01*
X98747765Y-147761843D01*
X98500000Y-147712560D01*
X95500000Y-147712560D01*
X95252235Y-147761843D01*
X95042191Y-147902191D01*
X94901843Y-148112235D01*
X94852560Y-148360000D01*
X92385000Y-148360000D01*
X92385000Y-146866578D01*
X93064156Y-146187423D01*
X93138049Y-146138049D01*
X93200017Y-146045309D01*
X93333652Y-145845310D01*
X93341146Y-145807635D01*
X93385000Y-145587165D01*
X93385000Y-145587161D01*
X93402337Y-145500000D01*
X93385000Y-145412839D01*
X93385000Y-144355322D01*
X94865000Y-144355322D01*
X94865000Y-145204678D01*
X95190034Y-145989380D01*
X95790620Y-146589966D01*
X96575322Y-146915000D01*
X97424678Y-146915000D01*
X98209380Y-146589966D01*
X98809966Y-145989380D01*
X99135000Y-145204678D01*
X99135000Y-144355322D01*
X98809966Y-143570620D01*
X98209380Y-142970034D01*
X97424678Y-142645000D01*
X96575322Y-142645000D01*
X95790620Y-142970034D01*
X95190034Y-143570620D01*
X94865000Y-144355322D01*
X93385000Y-144355322D01*
X93385000Y-141366578D01*
X93670554Y-141081025D01*
X93744447Y-141031651D01*
X93796566Y-140953651D01*
X93900787Y-140797673D01*
X93940050Y-140738912D01*
X93991398Y-140480767D01*
X93991398Y-140480763D01*
X94008735Y-140393603D01*
X93991398Y-140306443D01*
X93991398Y-134317566D01*
X94177023Y-134193535D01*
X94301054Y-134007910D01*
X94928446Y-134007910D01*
X95035773Y-134168536D01*
X95526980Y-134496750D01*
X95960142Y-134582911D01*
X96252654Y-134582911D01*
X96685816Y-134496750D01*
X97177023Y-134168536D01*
X97284350Y-134007910D01*
X97911742Y-134007910D01*
X98035773Y-134193535D01*
X98526980Y-134521749D01*
X98960142Y-134607910D01*
X99252654Y-134607910D01*
X99685816Y-134521749D01*
X100177023Y-134193535D01*
X100505237Y-133702328D01*
X100620490Y-133122910D01*
X100505237Y-132543492D01*
X100177023Y-132052285D01*
X99878637Y-131852910D01*
X100177023Y-131653535D01*
X100505237Y-131162328D01*
X100620490Y-130582910D01*
X100505237Y-130003492D01*
X100177023Y-129512285D01*
X100158779Y-129500094D01*
X100204163Y-129491067D01*
X100414207Y-129350719D01*
X100554555Y-129140675D01*
X100603838Y-128892910D01*
X100603838Y-127192910D01*
X100554555Y-126945145D01*
X100414207Y-126735101D01*
X100204163Y-126594753D01*
X99980357Y-126550236D01*
X99940050Y-126347600D01*
X99894881Y-126280000D01*
X99793822Y-126128755D01*
X99793821Y-126128754D01*
X99744447Y-126054861D01*
X99670554Y-126005487D01*
X97740066Y-124075000D01*
X98693422Y-124075000D01*
X100715001Y-126096580D01*
X100715001Y-126096580D01*
G37*
X100715001Y-126096580D02*
X100715000Y-162193421D01*
X99963422Y-162945000D01*
X99486609Y-162945000D01*
X99517440Y-162790000D01*
X99517440Y-159790000D01*
X99468157Y-159542235D01*
X99327809Y-159332191D01*
X99117765Y-159191843D01*
X98870000Y-159142560D01*
X95870000Y-159142560D01*
X95622235Y-159191843D01*
X95412191Y-159332191D01*
X95271843Y-159542235D01*
X95222560Y-159790000D01*
X95222560Y-161300982D01*
X94865000Y-160943422D01*
X94865000Y-157397159D01*
X94882337Y-157309999D01*
X94865000Y-157222839D01*
X94865000Y-157222835D01*
X94813652Y-156964690D01*
X94618049Y-156671951D01*
X94544156Y-156622577D01*
X93757425Y-155835847D01*
X93750177Y-155825000D01*
X94323422Y-155825000D01*
X95307054Y-156808633D01*
X95560034Y-157419380D01*
X96160620Y-158019966D01*
X96771366Y-158272945D01*
X96805845Y-158307424D01*
X97024689Y-158453651D01*
X97369999Y-158522337D01*
X97715309Y-158453651D01*
X98008049Y-158258049D01*
X98009370Y-158256072D01*
X98579380Y-158019966D01*
X99179966Y-157419380D01*
X99505000Y-156634678D01*
X99505000Y-155785322D01*
X99179966Y-155000620D01*
X98579380Y-154400034D01*
X97794678Y-154075000D01*
X96945322Y-154075000D01*
X96160620Y-154400034D01*
X95781116Y-154779538D01*
X95377424Y-154375846D01*
X95328049Y-154301951D01*
X95035310Y-154106348D01*
X94777165Y-154055000D01*
X94777161Y-154055000D01*
X94690000Y-154037663D01*
X94602839Y-154055000D01*
X75625000Y-154055000D01*
X75625000Y-148867165D01*
X75642338Y-148780000D01*
X75573652Y-148434690D01*
X75378049Y-148141951D01*
X75085310Y-147946348D01*
X74827165Y-147895000D01*
X74827164Y-147895000D01*
X74740000Y-147877662D01*
X74652835Y-147895000D01*
X74124521Y-147895000D01*
X74024577Y-147745423D01*
X73672242Y-147510000D01*
X74024577Y-147274577D01*
X74341740Y-146799909D01*
X74453113Y-146240000D01*
X74341740Y-145680091D01*
X74024577Y-145205423D01*
X73672242Y-144970000D01*
X74024577Y-144734577D01*
X74124521Y-144585000D01*
X76267698Y-144585000D01*
X76354859Y-144602337D01*
X76358159Y-144601681D01*
X76328132Y-144752635D01*
X76443385Y-145332053D01*
X76771599Y-145823260D01*
X77069985Y-146022635D01*
X76771599Y-146222010D01*
X76443385Y-146713217D01*
X76328132Y-147292635D01*
X76443385Y-147872053D01*
X76771599Y-148363260D01*
X76789843Y-148375451D01*
X76744459Y-148384478D01*
X76534415Y-148524826D01*
X76394067Y-148734870D01*
X76344784Y-148982635D01*
X76344784Y-150682635D01*
X76394067Y-150930400D01*
X76534415Y-151140444D01*
X76744459Y-151280792D01*
X76992224Y-151330075D01*
X78692224Y-151330075D01*
X78939989Y-151280792D01*
X79150033Y-151140444D01*
X79290381Y-150930400D01*
X79332702Y-150717635D01*
X80351746Y-150717635D01*
X80394067Y-150930400D01*
X80534415Y-151140444D01*
X80744459Y-151280792D01*
X80992224Y-151330075D01*
X82692224Y-151330075D01*
X82939989Y-151280792D01*
X83150033Y-151140444D01*
X83290381Y-150930400D01*
X83332702Y-150717635D01*
X84351746Y-150717635D01*
X84394067Y-150930400D01*
X84534415Y-151140444D01*
X84744459Y-151280792D01*
X84992224Y-151330075D01*
X86692224Y-151330075D01*
X86939989Y-151280792D01*
X87150033Y-151140444D01*
X87290381Y-150930400D01*
X87332702Y-150717635D01*
X88351746Y-150717635D01*
X88394067Y-150930400D01*
X88534415Y-151140444D01*
X88744459Y-151280792D01*
X88992224Y-151330075D01*
X90692224Y-151330075D01*
X90939989Y-151280792D01*
X91150033Y-151140444D01*
X91290381Y-150930400D01*
X91334898Y-150706594D01*
X91537534Y-150666287D01*
X91830273Y-150470684D01*
X91879649Y-150396788D01*
X92064154Y-150212283D01*
X92138049Y-150162908D01*
X92333652Y-149870169D01*
X92385000Y-149612024D01*
X92385000Y-149612020D01*
X92402337Y-149524859D01*
X92385000Y-149437698D01*
X92385000Y-148360000D01*
X94852560Y-148360000D01*
X94852560Y-151360000D01*
X94901843Y-151607765D01*
X95042191Y-151817809D01*
X95252235Y-151958157D01*
X95500000Y-152007440D01*
X98500000Y-152007440D01*
X98747765Y-151958157D01*
X98957809Y-151817809D01*
X99098157Y-151607765D01*
X99147440Y-151360000D01*
X99147440Y-148360000D01*
X99098157Y-148112235D01*
X98957809Y-147902191D01*
X98747765Y-147761843D01*
X98500000Y-147712560D01*
X95500000Y-147712560D01*
X95252235Y-147761843D01*
X95042191Y-147902191D01*
X94901843Y-148112235D01*
X94852560Y-148360000D01*
X92385000Y-148360000D01*
X92385000Y-146866578D01*
X93064156Y-146187423D01*
X93138049Y-146138049D01*
X93200017Y-146045309D01*
X93333652Y-145845310D01*
X93341146Y-145807635D01*
X93385000Y-145587165D01*
X93385000Y-145587161D01*
X93402337Y-145500000D01*
X93385000Y-145412839D01*
X93385000Y-144355322D01*
X94865000Y-144355322D01*
X94865000Y-145204678D01*
X95190034Y-145989380D01*
X95790620Y-146589966D01*
X96575322Y-146915000D01*
X97424678Y-146915000D01*
X98209380Y-146589966D01*
X98809966Y-145989380D01*
X99135000Y-145204678D01*
X99135000Y-144355322D01*
X98809966Y-143570620D01*
X98209380Y-142970034D01*
X97424678Y-142645000D01*
X96575322Y-142645000D01*
X95790620Y-142970034D01*
X95190034Y-143570620D01*
X94865000Y-144355322D01*
X93385000Y-144355322D01*
X93385000Y-141366578D01*
X93670554Y-141081025D01*
X93744447Y-141031651D01*
X93796566Y-140953651D01*
X93900787Y-140797673D01*
X93940050Y-140738912D01*
X93991398Y-140480767D01*
X93991398Y-140480763D01*
X94008735Y-140393603D01*
X93991398Y-140306443D01*
X93991398Y-134317566D01*
X94177023Y-134193535D01*
X94301054Y-134007910D01*
X94928446Y-134007910D01*
X95035773Y-134168536D01*
X95526980Y-134496750D01*
X95960142Y-134582911D01*
X96252654Y-134582911D01*
X96685816Y-134496750D01*
X97177023Y-134168536D01*
X97284350Y-134007910D01*
X97911742Y-134007910D01*
X98035773Y-134193535D01*
X98526980Y-134521749D01*
X98960142Y-134607910D01*
X99252654Y-134607910D01*
X99685816Y-134521749D01*
X100177023Y-134193535D01*
X100505237Y-133702328D01*
X100620490Y-133122910D01*
X100505237Y-132543492D01*
X100177023Y-132052285D01*
X99878637Y-131852910D01*
X100177023Y-131653535D01*
X100505237Y-131162328D01*
X100620490Y-130582910D01*
X100505237Y-130003492D01*
X100177023Y-129512285D01*
X100158779Y-129500094D01*
X100204163Y-129491067D01*
X100414207Y-129350719D01*
X100554555Y-129140675D01*
X100603838Y-128892910D01*
X100603838Y-127192910D01*
X100554555Y-126945145D01*
X100414207Y-126735101D01*
X100204163Y-126594753D01*
X99980357Y-126550236D01*
X99940050Y-126347600D01*
X99894881Y-126280000D01*
X99793822Y-126128755D01*
X99793821Y-126128754D01*
X99744447Y-126054861D01*
X99670554Y-126005487D01*
X97740066Y-124075000D01*
X98693422Y-124075000D01*
X100715001Y-126096580D01*
G36*
X62230000Y-161132337D02*
X62317165Y-161114999D01*
X62703422Y-161114999D01*
X61003422Y-162815000D01*
X60574962Y-162815000D01*
X61024577Y-162514577D01*
X61341740Y-162039909D01*
X61453113Y-161480000D01*
X61418017Y-161303561D01*
X61606580Y-161114999D01*
X62142836Y-161114999D01*
X62230000Y-161132337D01*
X62230000Y-161132337D01*
G37*
X62230000Y-161132337D02*
X62317165Y-161114999D01*
X62703422Y-161114999D01*
X61003422Y-162815000D01*
X60574962Y-162815000D01*
X61024577Y-162514577D01*
X61341740Y-162039909D01*
X61453113Y-161480000D01*
X61418017Y-161303561D01*
X61606580Y-161114999D01*
X62142836Y-161114999D01*
X62230000Y-161132337D01*
G36*
X55115001Y-158912834D02*
X55097663Y-159000000D01*
X55166348Y-159345309D01*
X55361951Y-159638049D01*
X55641742Y-159825000D01*
X55654691Y-159833652D01*
X56000000Y-159902338D01*
X56345310Y-159833652D01*
X56358259Y-159825000D01*
X58855479Y-159825000D01*
X58955423Y-159974577D01*
X59307758Y-160210000D01*
X58955423Y-160445423D01*
X58638260Y-160920091D01*
X58526887Y-161480000D01*
X58638260Y-162039909D01*
X58955423Y-162514577D01*
X59405038Y-162815000D01*
X54956579Y-162815000D01*
X53857425Y-161715847D01*
X53857423Y-161715844D01*
X53798017Y-161656438D01*
X53833113Y-161480000D01*
X53721740Y-160920091D01*
X53404577Y-160445423D01*
X53052242Y-160210000D01*
X53404577Y-159974577D01*
X53721740Y-159499909D01*
X53833113Y-158940000D01*
X53798017Y-158763561D01*
X55115001Y-157446578D01*
X55115001Y-158912834D01*
X55115001Y-158912834D01*
G37*
X55115001Y-158912834D02*
X55097663Y-159000000D01*
X55166348Y-159345309D01*
X55361951Y-159638049D01*
X55641742Y-159825000D01*
X55654691Y-159833652D01*
X56000000Y-159902338D01*
X56345310Y-159833652D01*
X56358259Y-159825000D01*
X58855479Y-159825000D01*
X58955423Y-159974577D01*
X59307758Y-160210000D01*
X58955423Y-160445423D01*
X58638260Y-160920091D01*
X58526887Y-161480000D01*
X58638260Y-162039909D01*
X58955423Y-162514577D01*
X59405038Y-162815000D01*
X54956579Y-162815000D01*
X53857425Y-161715847D01*
X53857423Y-161715844D01*
X53798017Y-161656438D01*
X53833113Y-161480000D01*
X53721740Y-160920091D01*
X53404577Y-160445423D01*
X53052242Y-160210000D01*
X53404577Y-159974577D01*
X53721740Y-159499909D01*
X53833113Y-158940000D01*
X53798017Y-158763561D01*
X55115001Y-157446578D01*
X55115001Y-158912834D01*
G36*
X63971843Y-144747765D02*
X64112191Y-144957809D01*
X64322235Y-145098157D01*
X64456106Y-145124785D01*
X64335423Y-145205423D01*
X64018260Y-145680091D01*
X63906887Y-146240000D01*
X64018260Y-146799909D01*
X64335423Y-147274577D01*
X64687758Y-147510000D01*
X64335423Y-147745423D01*
X64018260Y-148220091D01*
X63906887Y-148780000D01*
X64018260Y-149339909D01*
X64335423Y-149814577D01*
X64687758Y-150050000D01*
X64335423Y-150285423D01*
X64018260Y-150760091D01*
X63906887Y-151320000D01*
X64018260Y-151879909D01*
X64335423Y-152354577D01*
X64687758Y-152590000D01*
X64335423Y-152825423D01*
X64018260Y-153300091D01*
X63906887Y-153860000D01*
X64018260Y-154419909D01*
X64335423Y-154894577D01*
X64687758Y-155130000D01*
X64335423Y-155365423D01*
X64018260Y-155840091D01*
X63906887Y-156400000D01*
X64018260Y-156959909D01*
X64335423Y-157434577D01*
X64687758Y-157670000D01*
X64335423Y-157905423D01*
X64018260Y-158380091D01*
X63906887Y-158940000D01*
X63987446Y-159344999D01*
X63115000Y-159344999D01*
X63115000Y-144585000D01*
X63939467Y-144585000D01*
X63971843Y-144747765D01*
X63971843Y-144747765D01*
G37*
X63971843Y-144747765D02*
X64112191Y-144957809D01*
X64322235Y-145098157D01*
X64456106Y-145124785D01*
X64335423Y-145205423D01*
X64018260Y-145680091D01*
X63906887Y-146240000D01*
X64018260Y-146799909D01*
X64335423Y-147274577D01*
X64687758Y-147510000D01*
X64335423Y-147745423D01*
X64018260Y-148220091D01*
X63906887Y-148780000D01*
X64018260Y-149339909D01*
X64335423Y-149814577D01*
X64687758Y-150050000D01*
X64335423Y-150285423D01*
X64018260Y-150760091D01*
X63906887Y-151320000D01*
X64018260Y-151879909D01*
X64335423Y-152354577D01*
X64687758Y-152590000D01*
X64335423Y-152825423D01*
X64018260Y-153300091D01*
X63906887Y-153860000D01*
X64018260Y-154419909D01*
X64335423Y-154894577D01*
X64687758Y-155130000D01*
X64335423Y-155365423D01*
X64018260Y-155840091D01*
X63906887Y-156400000D01*
X64018260Y-156959909D01*
X64335423Y-157434577D01*
X64687758Y-157670000D01*
X64335423Y-157905423D01*
X64018260Y-158380091D01*
X63906887Y-158940000D01*
X63987446Y-159344999D01*
X63115000Y-159344999D01*
X63115000Y-144585000D01*
X63939467Y-144585000D01*
X63971843Y-144747765D01*
G36*
X71955423Y-152354577D02*
X72105000Y-152454521D01*
X72105001Y-152725478D01*
X71955423Y-152825423D01*
X71638260Y-153300091D01*
X71526887Y-153860000D01*
X71638260Y-154419909D01*
X71955423Y-154894577D01*
X72307758Y-155130000D01*
X71955423Y-155365423D01*
X71638260Y-155840091D01*
X71526887Y-156400000D01*
X71638260Y-156959909D01*
X71955423Y-157434577D01*
X72307758Y-157670000D01*
X71955423Y-157905423D01*
X71638260Y-158380091D01*
X71526887Y-158940000D01*
X71607446Y-159344999D01*
X66752554Y-159344999D01*
X66833113Y-158940000D01*
X66721740Y-158380091D01*
X66404577Y-157905423D01*
X66052242Y-157670000D01*
X66404577Y-157434577D01*
X66721740Y-156959909D01*
X66833113Y-156400000D01*
X66721740Y-155840091D01*
X66404577Y-155365423D01*
X66052242Y-155130000D01*
X66404577Y-154894577D01*
X66721740Y-154419909D01*
X66833113Y-153860000D01*
X66721740Y-153300091D01*
X66404577Y-152825423D01*
X66052242Y-152590000D01*
X66404577Y-152354577D01*
X66504521Y-152205000D01*
X71855479Y-152205000D01*
X71955423Y-152354577D01*
X71955423Y-152354577D01*
G37*
X71955423Y-152354577D02*
X72105000Y-152454521D01*
X72105001Y-152725478D01*
X71955423Y-152825423D01*
X71638260Y-153300091D01*
X71526887Y-153860000D01*
X71638260Y-154419909D01*
X71955423Y-154894577D01*
X72307758Y-155130000D01*
X71955423Y-155365423D01*
X71638260Y-155840091D01*
X71526887Y-156400000D01*
X71638260Y-156959909D01*
X71955423Y-157434577D01*
X72307758Y-157670000D01*
X71955423Y-157905423D01*
X71638260Y-158380091D01*
X71526887Y-158940000D01*
X71607446Y-159344999D01*
X66752554Y-159344999D01*
X66833113Y-158940000D01*
X66721740Y-158380091D01*
X66404577Y-157905423D01*
X66052242Y-157670000D01*
X66404577Y-157434577D01*
X66721740Y-156959909D01*
X66833113Y-156400000D01*
X66721740Y-155840091D01*
X66404577Y-155365423D01*
X66052242Y-155130000D01*
X66404577Y-154894577D01*
X66721740Y-154419909D01*
X66833113Y-153860000D01*
X66721740Y-153300091D01*
X66404577Y-152825423D01*
X66052242Y-152590000D01*
X66404577Y-152354577D01*
X66504521Y-152205000D01*
X71855479Y-152205000D01*
X71955423Y-152354577D01*
G36*
X61345001Y-158396485D02*
X61341740Y-158380091D01*
X61024577Y-157905423D01*
X60672242Y-157670000D01*
X61024577Y-157434577D01*
X61341740Y-156959909D01*
X61345001Y-156943516D01*
X61345001Y-158396485D01*
X61345001Y-158396485D01*
G37*
X61345001Y-158396485D02*
X61341740Y-158380091D01*
X61024577Y-157905423D01*
X60672242Y-157670000D01*
X61024577Y-157434577D01*
X61341740Y-156959909D01*
X61345001Y-156943516D01*
X61345001Y-158396485D01*
G36*
X57115001Y-146912835D02*
X57097663Y-147000000D01*
X57166348Y-147345309D01*
X57361951Y-147638049D01*
X57601569Y-147798157D01*
X57654691Y-147833652D01*
X58000000Y-147902338D01*
X58345310Y-147833652D01*
X58638049Y-147638049D01*
X58687425Y-147564153D01*
X58968358Y-147283220D01*
X59307758Y-147510000D01*
X58955423Y-147745423D01*
X58638260Y-148220091D01*
X58526887Y-148780000D01*
X58638260Y-149339909D01*
X58955423Y-149814577D01*
X59307758Y-150050000D01*
X58955423Y-150285423D01*
X58638260Y-150760091D01*
X58526887Y-151320000D01*
X58638260Y-151879909D01*
X58955423Y-152354577D01*
X59307758Y-152590000D01*
X58955423Y-152825423D01*
X58638260Y-153300091D01*
X58526887Y-153860000D01*
X58638260Y-154419909D01*
X58955423Y-154894577D01*
X59307758Y-155130000D01*
X58955423Y-155365423D01*
X58638260Y-155840091D01*
X58526887Y-156400000D01*
X58638260Y-156959909D01*
X58955423Y-157434577D01*
X59307758Y-157670000D01*
X58955423Y-157905423D01*
X58855479Y-158055000D01*
X56885000Y-158055000D01*
X56885000Y-144366578D01*
X57115000Y-144136578D01*
X57115001Y-146912835D01*
X57115001Y-146912835D01*
G37*
X57115001Y-146912835D02*
X57097663Y-147000000D01*
X57166348Y-147345309D01*
X57361951Y-147638049D01*
X57601569Y-147798157D01*
X57654691Y-147833652D01*
X58000000Y-147902338D01*
X58345310Y-147833652D01*
X58638049Y-147638049D01*
X58687425Y-147564153D01*
X58968358Y-147283220D01*
X59307758Y-147510000D01*
X58955423Y-147745423D01*
X58638260Y-148220091D01*
X58526887Y-148780000D01*
X58638260Y-149339909D01*
X58955423Y-149814577D01*
X59307758Y-150050000D01*
X58955423Y-150285423D01*
X58638260Y-150760091D01*
X58526887Y-151320000D01*
X58638260Y-151879909D01*
X58955423Y-152354577D01*
X59307758Y-152590000D01*
X58955423Y-152825423D01*
X58638260Y-153300091D01*
X58526887Y-153860000D01*
X58638260Y-154419909D01*
X58955423Y-154894577D01*
X59307758Y-155130000D01*
X58955423Y-155365423D01*
X58638260Y-155840091D01*
X58526887Y-156400000D01*
X58638260Y-156959909D01*
X58955423Y-157434577D01*
X59307758Y-157670000D01*
X58955423Y-157905423D01*
X58855479Y-158055000D01*
X56885000Y-158055000D01*
X56885000Y-144366578D01*
X57115000Y-144136578D01*
X57115001Y-146912835D01*
G36*
X54202347Y-142600815D02*
X54166348Y-142654691D01*
X54115000Y-142912836D01*
X54115000Y-142912839D01*
X54097663Y-143000000D01*
X54115000Y-143087161D01*
X54115001Y-155943420D01*
X53804130Y-156254291D01*
X53721740Y-155840091D01*
X53404577Y-155365423D01*
X53052242Y-155130000D01*
X53404577Y-154894577D01*
X53721740Y-154419909D01*
X53833113Y-153860000D01*
X53721740Y-153300091D01*
X53404577Y-152825423D01*
X53052242Y-152590000D01*
X53404577Y-152354577D01*
X53721740Y-151879909D01*
X53833113Y-151320000D01*
X53721740Y-150760091D01*
X53404577Y-150285423D01*
X53052242Y-150050000D01*
X53404577Y-149814577D01*
X53721740Y-149339909D01*
X53833113Y-148780000D01*
X53721740Y-148220091D01*
X53404577Y-147745423D01*
X53052242Y-147510000D01*
X53404577Y-147274577D01*
X53721740Y-146799909D01*
X53833113Y-146240000D01*
X53721740Y-145680091D01*
X53404577Y-145205423D01*
X53283894Y-145124785D01*
X53417765Y-145098157D01*
X53627809Y-144957809D01*
X53768157Y-144747765D01*
X53817440Y-144500000D01*
X53817440Y-142900000D01*
X53768157Y-142652235D01*
X53723232Y-142585000D01*
X54122839Y-142585000D01*
X54202347Y-142600815D01*
X54202347Y-142600815D01*
G37*
X54202347Y-142600815D02*
X54166348Y-142654691D01*
X54115000Y-142912836D01*
X54115000Y-142912839D01*
X54097663Y-143000000D01*
X54115000Y-143087161D01*
X54115001Y-155943420D01*
X53804130Y-156254291D01*
X53721740Y-155840091D01*
X53404577Y-155365423D01*
X53052242Y-155130000D01*
X53404577Y-154894577D01*
X53721740Y-154419909D01*
X53833113Y-153860000D01*
X53721740Y-153300091D01*
X53404577Y-152825423D01*
X53052242Y-152590000D01*
X53404577Y-152354577D01*
X53721740Y-151879909D01*
X53833113Y-151320000D01*
X53721740Y-150760091D01*
X53404577Y-150285423D01*
X53052242Y-150050000D01*
X53404577Y-149814577D01*
X53721740Y-149339909D01*
X53833113Y-148780000D01*
X53721740Y-148220091D01*
X53404577Y-147745423D01*
X53052242Y-147510000D01*
X53404577Y-147274577D01*
X53721740Y-146799909D01*
X53833113Y-146240000D01*
X53721740Y-145680091D01*
X53404577Y-145205423D01*
X53283894Y-145124785D01*
X53417765Y-145098157D01*
X53627809Y-144957809D01*
X53768157Y-144747765D01*
X53817440Y-144500000D01*
X53817440Y-142900000D01*
X53768157Y-142652235D01*
X53723232Y-142585000D01*
X54122839Y-142585000D01*
X54202347Y-142600815D01*
G36*
X61345001Y-155856484D02*
X61341740Y-155840091D01*
X61024577Y-155365423D01*
X60672242Y-155130000D01*
X61024577Y-154894577D01*
X61341740Y-154419909D01*
X61345001Y-154403517D01*
X61345001Y-155856484D01*
X61345001Y-155856484D01*
G37*
X61345001Y-155856484D02*
X61341740Y-155840091D01*
X61024577Y-155365423D01*
X60672242Y-155130000D01*
X61024577Y-154894577D01*
X61341740Y-154419909D01*
X61345001Y-154403517D01*
X61345001Y-155856484D01*
G36*
X73906348Y-155095309D02*
X74052576Y-155314154D01*
X74052578Y-155314156D01*
X74101952Y-155388049D01*
X74175845Y-155437423D01*
X74242575Y-155504153D01*
X74249823Y-155515000D01*
X74124521Y-155515000D01*
X74024577Y-155365423D01*
X73672242Y-155130000D01*
X73884975Y-154987856D01*
X73906348Y-155095309D01*
X73906348Y-155095309D01*
G37*
X73906348Y-155095309D02*
X74052576Y-155314154D01*
X74052578Y-155314156D01*
X74101952Y-155388049D01*
X74175845Y-155437423D01*
X74242575Y-155504153D01*
X74249823Y-155515000D01*
X74124521Y-155515000D01*
X74024577Y-155365423D01*
X73672242Y-155130000D01*
X73884975Y-154987856D01*
X73906348Y-155095309D01*
G36*
X46632577Y-151884156D02*
X46681951Y-151958049D01*
X46755844Y-152007423D01*
X46755845Y-152007424D01*
X46755869Y-152007440D01*
X46974690Y-152153652D01*
X47232835Y-152205000D01*
X47232839Y-152205000D01*
X47319999Y-152222337D01*
X47407159Y-152205000D01*
X48111993Y-152205000D01*
X48474126Y-152355000D01*
X48885874Y-152355000D01*
X49248007Y-152205000D01*
X51235479Y-152205000D01*
X51335423Y-152354577D01*
X51687758Y-152590000D01*
X51335423Y-152825423D01*
X51018260Y-153300091D01*
X50906887Y-153860000D01*
X50917008Y-153910882D01*
X50837165Y-153895000D01*
X50837161Y-153895000D01*
X50750000Y-153877663D01*
X50662839Y-153895000D01*
X47736579Y-153895000D01*
X45370637Y-151529059D01*
X45505000Y-151204678D01*
X45505000Y-150756579D01*
X46632577Y-151884156D01*
X46632577Y-151884156D01*
G37*
X46632577Y-151884156D02*
X46681951Y-151958049D01*
X46755844Y-152007423D01*
X46755845Y-152007424D01*
X46755869Y-152007440D01*
X46974690Y-152153652D01*
X47232835Y-152205000D01*
X47232839Y-152205000D01*
X47319999Y-152222337D01*
X47407159Y-152205000D01*
X48111993Y-152205000D01*
X48474126Y-152355000D01*
X48885874Y-152355000D01*
X49248007Y-152205000D01*
X51235479Y-152205000D01*
X51335423Y-152354577D01*
X51687758Y-152590000D01*
X51335423Y-152825423D01*
X51018260Y-153300091D01*
X50906887Y-153860000D01*
X50917008Y-153910882D01*
X50837165Y-153895000D01*
X50837161Y-153895000D01*
X50750000Y-153877663D01*
X50662839Y-153895000D01*
X47736579Y-153895000D01*
X45370637Y-151529059D01*
X45505000Y-151204678D01*
X45505000Y-150756579D01*
X46632577Y-151884156D01*
G36*
X61345001Y-153316483D02*
X61341740Y-153300091D01*
X61024577Y-152825423D01*
X60672242Y-152590000D01*
X61024577Y-152354577D01*
X61341740Y-151879909D01*
X61345000Y-151863517D01*
X61345001Y-153316483D01*
X61345001Y-153316483D01*
G37*
X61345001Y-153316483D02*
X61341740Y-153300091D01*
X61024577Y-152825423D01*
X60672242Y-152590000D01*
X61024577Y-152354577D01*
X61341740Y-151879909D01*
X61345000Y-151863517D01*
X61345001Y-153316483D01*
G36*
X61345000Y-150776482D02*
X61341740Y-150760091D01*
X61024577Y-150285423D01*
X60672242Y-150050000D01*
X61024577Y-149814577D01*
X61341740Y-149339909D01*
X61345000Y-149323518D01*
X61345000Y-150776482D01*
X61345000Y-150776482D01*
G37*
X61345000Y-150776482D02*
X61341740Y-150760091D01*
X61024577Y-150285423D01*
X60672242Y-150050000D01*
X61024577Y-149814577D01*
X61341740Y-149339909D01*
X61345000Y-149323518D01*
X61345000Y-150776482D01*
G36*
X71561983Y-143523561D02*
X71526887Y-143700000D01*
X71638260Y-144259909D01*
X71955423Y-144734577D01*
X72307758Y-144970000D01*
X71955423Y-145205423D01*
X71638260Y-145680091D01*
X71526887Y-146240000D01*
X71638260Y-146799909D01*
X71955423Y-147274577D01*
X72307758Y-147510000D01*
X71955423Y-147745423D01*
X71638260Y-148220091D01*
X71526887Y-148780000D01*
X71638260Y-149339909D01*
X71955423Y-149814577D01*
X72307758Y-150050000D01*
X71955423Y-150285423D01*
X71855479Y-150435000D01*
X66504521Y-150435000D01*
X66404577Y-150285423D01*
X66052242Y-150050000D01*
X66404577Y-149814577D01*
X66721740Y-149339909D01*
X66833113Y-148780000D01*
X66721740Y-148220091D01*
X66404577Y-147745423D01*
X66052242Y-147510000D01*
X66404577Y-147274577D01*
X66721740Y-146799909D01*
X66833113Y-146240000D01*
X66721740Y-145680091D01*
X66404577Y-145205423D01*
X66283894Y-145124785D01*
X66417765Y-145098157D01*
X66627809Y-144957809D01*
X66768157Y-144747765D01*
X66817440Y-144500000D01*
X66817440Y-143125000D01*
X71163422Y-143125000D01*
X71561983Y-143523561D01*
X71561983Y-143523561D01*
G37*
X71561983Y-143523561D02*
X71526887Y-143700000D01*
X71638260Y-144259909D01*
X71955423Y-144734577D01*
X72307758Y-144970000D01*
X71955423Y-145205423D01*
X71638260Y-145680091D01*
X71526887Y-146240000D01*
X71638260Y-146799909D01*
X71955423Y-147274577D01*
X72307758Y-147510000D01*
X71955423Y-147745423D01*
X71638260Y-148220091D01*
X71526887Y-148780000D01*
X71638260Y-149339909D01*
X71955423Y-149814577D01*
X72307758Y-150050000D01*
X71955423Y-150285423D01*
X71855479Y-150435000D01*
X66504521Y-150435000D01*
X66404577Y-150285423D01*
X66052242Y-150050000D01*
X66404577Y-149814577D01*
X66721740Y-149339909D01*
X66833113Y-148780000D01*
X66721740Y-148220091D01*
X66404577Y-147745423D01*
X66052242Y-147510000D01*
X66404577Y-147274577D01*
X66721740Y-146799909D01*
X66833113Y-146240000D01*
X66721740Y-145680091D01*
X66404577Y-145205423D01*
X66283894Y-145124785D01*
X66417765Y-145098157D01*
X66627809Y-144957809D01*
X66768157Y-144747765D01*
X66817440Y-144500000D01*
X66817440Y-143125000D01*
X71163422Y-143125000D01*
X71561983Y-143523561D01*
G36*
X51335423Y-149814577D02*
X51687758Y-150050000D01*
X51335423Y-150285423D01*
X51235479Y-150435000D01*
X49248007Y-150435000D01*
X48885874Y-150285000D01*
X48474126Y-150285000D01*
X48111993Y-150435000D01*
X47686579Y-150435000D01*
X46916579Y-149665000D01*
X51235479Y-149665000D01*
X51335423Y-149814577D01*
X51335423Y-149814577D01*
G37*
X51335423Y-149814577D02*
X51687758Y-150050000D01*
X51335423Y-150285423D01*
X51235479Y-150435000D01*
X49248007Y-150435000D01*
X48885874Y-150285000D01*
X48474126Y-150285000D01*
X48111993Y-150435000D01*
X47686579Y-150435000D01*
X46916579Y-149665000D01*
X51235479Y-149665000D01*
X51335423Y-149814577D01*
G36*
X73855000Y-150172115D02*
X73672242Y-150050000D01*
X73855000Y-149927885D01*
X73855000Y-150172115D01*
X73855000Y-150172115D01*
G37*
X73855000Y-150172115D02*
X73672242Y-150050000D01*
X73855000Y-149927885D01*
X73855000Y-150172115D01*
G36*
X80771599Y-148363260D02*
X80789843Y-148375451D01*
X80744459Y-148384478D01*
X80534415Y-148524826D01*
X80394067Y-148734870D01*
X80351746Y-148947635D01*
X79332702Y-148947635D01*
X79290381Y-148734870D01*
X79150033Y-148524826D01*
X78939989Y-148384478D01*
X78894605Y-148375451D01*
X78912849Y-148363260D01*
X79036880Y-148177635D01*
X80647568Y-148177635D01*
X80771599Y-148363260D01*
X80771599Y-148363260D01*
G37*
X80771599Y-148363260D02*
X80789843Y-148375451D01*
X80744459Y-148384478D01*
X80534415Y-148524826D01*
X80394067Y-148734870D01*
X80351746Y-148947635D01*
X79332702Y-148947635D01*
X79290381Y-148734870D01*
X79150033Y-148524826D01*
X78939989Y-148384478D01*
X78894605Y-148375451D01*
X78912849Y-148363260D01*
X79036880Y-148177635D01*
X80647568Y-148177635D01*
X80771599Y-148363260D01*
G36*
X84771599Y-148363260D02*
X84789843Y-148375451D01*
X84744459Y-148384478D01*
X84534415Y-148524826D01*
X84394067Y-148734870D01*
X84351746Y-148947635D01*
X83332702Y-148947635D01*
X83290381Y-148734870D01*
X83150033Y-148524826D01*
X82939989Y-148384478D01*
X82894605Y-148375451D01*
X82912849Y-148363260D01*
X83036880Y-148177635D01*
X84647568Y-148177635D01*
X84771599Y-148363260D01*
X84771599Y-148363260D01*
G37*
X84771599Y-148363260D02*
X84789843Y-148375451D01*
X84744459Y-148384478D01*
X84534415Y-148524826D01*
X84394067Y-148734870D01*
X84351746Y-148947635D01*
X83332702Y-148947635D01*
X83290381Y-148734870D01*
X83150033Y-148524826D01*
X82939989Y-148384478D01*
X82894605Y-148375451D01*
X82912849Y-148363260D01*
X83036880Y-148177635D01*
X84647568Y-148177635D01*
X84771599Y-148363260D01*
G36*
X88771599Y-148363260D02*
X88789843Y-148375451D01*
X88744459Y-148384478D01*
X88534415Y-148524826D01*
X88394067Y-148734870D01*
X88351746Y-148947635D01*
X87332702Y-148947635D01*
X87290381Y-148734870D01*
X87150033Y-148524826D01*
X86939989Y-148384478D01*
X86894605Y-148375451D01*
X86912849Y-148363260D01*
X87036880Y-148177635D01*
X88647568Y-148177635D01*
X88771599Y-148363260D01*
X88771599Y-148363260D01*
G37*
X88771599Y-148363260D02*
X88789843Y-148375451D01*
X88744459Y-148384478D01*
X88534415Y-148524826D01*
X88394067Y-148734870D01*
X88351746Y-148947635D01*
X87332702Y-148947635D01*
X87290381Y-148734870D01*
X87150033Y-148524826D01*
X86939989Y-148384478D01*
X86894605Y-148375451D01*
X86912849Y-148363260D01*
X87036880Y-148177635D01*
X88647568Y-148177635D01*
X88771599Y-148363260D01*
G36*
X61345000Y-148236481D02*
X61341740Y-148220091D01*
X61024577Y-147745423D01*
X60672242Y-147510000D01*
X61024577Y-147274577D01*
X61341740Y-146799909D01*
X61345000Y-146783519D01*
X61345000Y-148236481D01*
X61345000Y-148236481D01*
G37*
X61345000Y-148236481D02*
X61341740Y-148220091D01*
X61024577Y-147745423D01*
X60672242Y-147510000D01*
X61024577Y-147274577D01*
X61341740Y-146799909D01*
X61345000Y-146783519D01*
X61345000Y-148236481D01*
G36*
X80771599Y-145823260D02*
X81069985Y-146022635D01*
X80771599Y-146222010D01*
X80647568Y-146407635D01*
X79036880Y-146407635D01*
X78912849Y-146222010D01*
X78614463Y-146022635D01*
X78912849Y-145823260D01*
X79036880Y-145637635D01*
X80647568Y-145637635D01*
X80771599Y-145823260D01*
X80771599Y-145823260D01*
G37*
X80771599Y-145823260D02*
X81069985Y-146022635D01*
X80771599Y-146222010D01*
X80647568Y-146407635D01*
X79036880Y-146407635D01*
X78912849Y-146222010D01*
X78614463Y-146022635D01*
X78912849Y-145823260D01*
X79036880Y-145637635D01*
X80647568Y-145637635D01*
X80771599Y-145823260D01*
G36*
X88771599Y-145823260D02*
X89069985Y-146022635D01*
X88771599Y-146222010D01*
X88647568Y-146407635D01*
X87036880Y-146407635D01*
X86912849Y-146222010D01*
X86614463Y-146022635D01*
X86912849Y-145823260D01*
X87036880Y-145637635D01*
X88647568Y-145637635D01*
X88771599Y-145823260D01*
X88771599Y-145823260D01*
G37*
X88771599Y-145823260D02*
X89069985Y-146022635D01*
X88771599Y-146222010D01*
X88647568Y-146407635D01*
X87036880Y-146407635D01*
X86912849Y-146222010D01*
X86614463Y-146022635D01*
X86912849Y-145823260D01*
X87036880Y-145637635D01*
X88647568Y-145637635D01*
X88771599Y-145823260D01*
G36*
X84771599Y-145823260D02*
X85069985Y-146022635D01*
X84771599Y-146222010D01*
X84647568Y-146407635D01*
X83036880Y-146407635D01*
X82912849Y-146222010D01*
X82614463Y-146022635D01*
X82912849Y-145823260D01*
X83036880Y-145637635D01*
X84647568Y-145637635D01*
X84771599Y-145823260D01*
X84771599Y-145823260D01*
G37*
X84771599Y-145823260D02*
X85069985Y-146022635D01*
X84771599Y-146222010D01*
X84647568Y-146407635D01*
X83036880Y-146407635D01*
X82912849Y-146222010D01*
X82614463Y-146022635D01*
X82912849Y-145823260D01*
X83036880Y-145637635D01*
X84647568Y-145637635D01*
X84771599Y-145823260D01*
G36*
X84399375Y-68770625D02*
X84890582Y-69098839D01*
X85323744Y-69185000D01*
X85616256Y-69185000D01*
X85824184Y-69143641D01*
X85721951Y-69211951D01*
X85526348Y-69504690D01*
X85457662Y-69850000D01*
X85475001Y-69937169D01*
X85475000Y-71207164D01*
X85475001Y-71207169D01*
X85475000Y-118495000D01*
X75017161Y-118495000D01*
X74930000Y-118477663D01*
X74842839Y-118495000D01*
X74842835Y-118495000D01*
X74584690Y-118546348D01*
X74365845Y-118692576D01*
X74365844Y-118692577D01*
X74291951Y-118741951D01*
X74242577Y-118815844D01*
X71965845Y-121092577D01*
X71891952Y-121141951D01*
X71842578Y-121215844D01*
X71842576Y-121215846D01*
X71696348Y-121434691D01*
X71627663Y-121780000D01*
X71645001Y-121867165D01*
X71645000Y-124235344D01*
X71459375Y-124359375D01*
X71260000Y-124657761D01*
X71060625Y-124359375D01*
X70569418Y-124031161D01*
X70136256Y-123945000D01*
X69843744Y-123945000D01*
X69410582Y-124031161D01*
X68919375Y-124359375D01*
X68720000Y-124657761D01*
X68520625Y-124359375D01*
X68029418Y-124031161D01*
X67596256Y-123945000D01*
X67303744Y-123945000D01*
X66870582Y-124031161D01*
X66379375Y-124359375D01*
X66180000Y-124657761D01*
X65980625Y-124359375D01*
X65489418Y-124031161D01*
X65056256Y-123945000D01*
X64763744Y-123945000D01*
X64330582Y-124031161D01*
X63839375Y-124359375D01*
X63827184Y-124377619D01*
X63818157Y-124332235D01*
X63677809Y-124122191D01*
X63467765Y-123981843D01*
X63220000Y-123932560D01*
X61520000Y-123932560D01*
X61272235Y-123981843D01*
X61062191Y-124122191D01*
X60921843Y-124332235D01*
X60872560Y-124580000D01*
X60872560Y-126280000D01*
X60921843Y-126527765D01*
X61062191Y-126737809D01*
X61272235Y-126878157D01*
X61520000Y-126927440D01*
X63220000Y-126927440D01*
X63467765Y-126878157D01*
X63677809Y-126737809D01*
X63818157Y-126527765D01*
X63827184Y-126482381D01*
X63839375Y-126500625D01*
X64330582Y-126828839D01*
X64763744Y-126915000D01*
X65056256Y-126915000D01*
X65489418Y-126828839D01*
X65980625Y-126500625D01*
X66180000Y-126202239D01*
X66379375Y-126500625D01*
X66870582Y-126828839D01*
X67303744Y-126915000D01*
X67596256Y-126915000D01*
X68029418Y-126828839D01*
X68520625Y-126500625D01*
X68720000Y-126202239D01*
X68919375Y-126500625D01*
X69410582Y-126828839D01*
X69843744Y-126915000D01*
X70136256Y-126915000D01*
X70569418Y-126828839D01*
X71060625Y-126500625D01*
X71260000Y-126202239D01*
X71459375Y-126500625D01*
X71950582Y-126828839D01*
X72383744Y-126915000D01*
X72676256Y-126915000D01*
X73109418Y-126828839D01*
X73600625Y-126500625D01*
X73800000Y-126202239D01*
X73999375Y-126500625D01*
X74490582Y-126828839D01*
X74923744Y-126915000D01*
X75216256Y-126915000D01*
X75649418Y-126828839D01*
X76140625Y-126500625D01*
X76340000Y-126202239D01*
X76539375Y-126500625D01*
X77030582Y-126828839D01*
X77463744Y-126915000D01*
X77756256Y-126915000D01*
X78189418Y-126828839D01*
X78680625Y-126500625D01*
X78880000Y-126202239D01*
X79079375Y-126500625D01*
X79570582Y-126828839D01*
X80003744Y-126915000D01*
X80296256Y-126915000D01*
X80729418Y-126828839D01*
X81220625Y-126500625D01*
X81548839Y-126009418D01*
X81664092Y-125430000D01*
X81548839Y-124850582D01*
X81220625Y-124359375D01*
X80729418Y-124031161D01*
X80296256Y-123945000D01*
X80003744Y-123945000D01*
X79570582Y-124031161D01*
X79079375Y-124359375D01*
X78880000Y-124657761D01*
X78680625Y-124359375D01*
X78508999Y-124244698D01*
X78512337Y-124227918D01*
X78495000Y-124140759D01*
X78495000Y-124140754D01*
X78443652Y-123882609D01*
X78385000Y-123794831D01*
X78385000Y-123385000D01*
X86115000Y-123385000D01*
X86115001Y-130362220D01*
X85735439Y-130205000D01*
X85164561Y-130205000D01*
X84637138Y-130423466D01*
X84233466Y-130827138D01*
X84015000Y-131354561D01*
X84015000Y-131925439D01*
X84233466Y-132452862D01*
X84637138Y-132856534D01*
X84717932Y-132890000D01*
X84637138Y-132923466D01*
X84305604Y-133255000D01*
X83594396Y-133255000D01*
X83262862Y-132923466D01*
X83182068Y-132890000D01*
X83262862Y-132856534D01*
X83666534Y-132452862D01*
X83885000Y-131925439D01*
X83885000Y-131354561D01*
X83666534Y-130827138D01*
X83262862Y-130423466D01*
X82735439Y-130205000D01*
X82164561Y-130205000D01*
X81637138Y-130423466D01*
X81233466Y-130827138D01*
X81015000Y-131354561D01*
X81015000Y-131925439D01*
X81233466Y-132452862D01*
X81637138Y-132856534D01*
X81717932Y-132890000D01*
X81637138Y-132923466D01*
X81233466Y-133327138D01*
X81015000Y-133854561D01*
X81015000Y-134341699D01*
X80887431Y-134033720D01*
X80596280Y-133742569D01*
X80215874Y-133585000D01*
X79804126Y-133585000D01*
X79441993Y-133735000D01*
X74948007Y-133735000D01*
X74585874Y-133585000D01*
X74174126Y-133585000D01*
X73793720Y-133742569D01*
X73502569Y-134033720D01*
X73345000Y-134414126D01*
X73345000Y-134825874D01*
X73502569Y-135206280D01*
X73793720Y-135497431D01*
X74174126Y-135655000D01*
X74585874Y-135655000D01*
X74948007Y-135505000D01*
X79441993Y-135505000D01*
X79804126Y-135655000D01*
X80215874Y-135655000D01*
X80596280Y-135497431D01*
X80887431Y-135206280D01*
X81045000Y-134825874D01*
X81045000Y-134497865D01*
X81233466Y-134952862D01*
X81637138Y-135356534D01*
X82164561Y-135575000D01*
X82735439Y-135575000D01*
X83262862Y-135356534D01*
X83594396Y-135025000D01*
X84305604Y-135025000D01*
X84637138Y-135356534D01*
X85164561Y-135575000D01*
X85735439Y-135575000D01*
X86262862Y-135356534D01*
X86666534Y-134952862D01*
X86885000Y-134425439D01*
X86885000Y-134225001D01*
X87318658Y-134225001D01*
X87405819Y-134242338D01*
X87492980Y-134225001D01*
X87492984Y-134225001D01*
X87751129Y-134173653D01*
X87999180Y-134007910D01*
X88911742Y-134007910D01*
X89035773Y-134193535D01*
X89526980Y-134521749D01*
X89960142Y-134607910D01*
X90252654Y-134607910D01*
X90685816Y-134521749D01*
X91177023Y-134193535D01*
X91301054Y-134007910D01*
X91696210Y-134007910D01*
X91702323Y-134038642D01*
X91897926Y-134331382D01*
X92190666Y-134526985D01*
X92221399Y-134533098D01*
X92221398Y-140027023D01*
X91935844Y-140312577D01*
X91861952Y-140361951D01*
X91812578Y-140435844D01*
X91812576Y-140435846D01*
X91666348Y-140654691D01*
X91597663Y-141000000D01*
X91615001Y-141087165D01*
X91615000Y-145133421D01*
X90935845Y-145812577D01*
X90861952Y-145861951D01*
X90812578Y-145935844D01*
X90812576Y-145935846D01*
X90711335Y-146087363D01*
X90614463Y-146022635D01*
X90912849Y-145823260D01*
X91241063Y-145332053D01*
X91356316Y-144752635D01*
X91241063Y-144173217D01*
X90912849Y-143682010D01*
X90614463Y-143482635D01*
X90912849Y-143283260D01*
X91241063Y-142792053D01*
X91356316Y-142212635D01*
X91241063Y-141633217D01*
X90912849Y-141142010D01*
X90421642Y-140813796D01*
X89988480Y-140727635D01*
X89695968Y-140727635D01*
X89262806Y-140813796D01*
X88771599Y-141142010D01*
X88647568Y-141327635D01*
X87036880Y-141327635D01*
X86912849Y-141142010D01*
X86421642Y-140813796D01*
X85988480Y-140727635D01*
X85695968Y-140727635D01*
X85262806Y-140813796D01*
X84771599Y-141142010D01*
X84647568Y-141327635D01*
X83036880Y-141327635D01*
X82912849Y-141142010D01*
X82421642Y-140813796D01*
X81988480Y-140727635D01*
X81695968Y-140727635D01*
X81262806Y-140813796D01*
X80771599Y-141142010D01*
X80647568Y-141327635D01*
X79036880Y-141327635D01*
X78912849Y-141142010D01*
X78421642Y-140813796D01*
X77988480Y-140727635D01*
X77695968Y-140727635D01*
X77262806Y-140813796D01*
X76771599Y-141142010D01*
X76443385Y-141633217D01*
X76328132Y-142212635D01*
X76371686Y-142431595D01*
X75988281Y-142815000D01*
X74124521Y-142815000D01*
X74024577Y-142665423D01*
X73549909Y-142348260D01*
X73131333Y-142265000D01*
X72848667Y-142265000D01*
X72813561Y-142271983D01*
X72217425Y-141675847D01*
X72168049Y-141601951D01*
X71875310Y-141406348D01*
X71617165Y-141355000D01*
X71617161Y-141355000D01*
X71530000Y-141337663D01*
X71442839Y-141355000D01*
X64896859Y-141355000D01*
X65043652Y-141135310D01*
X65095000Y-140877165D01*
X65095000Y-140877161D01*
X65112337Y-140790000D01*
X65095000Y-140702839D01*
X65095000Y-140454521D01*
X65244577Y-140354577D01*
X65480000Y-140002242D01*
X65715423Y-140354577D01*
X66190091Y-140671740D01*
X66608667Y-140755000D01*
X66891333Y-140755000D01*
X67309909Y-140671740D01*
X67784577Y-140354577D01*
X68020000Y-140002242D01*
X68255423Y-140354577D01*
X68730091Y-140671740D01*
X69148667Y-140755000D01*
X69431333Y-140755000D01*
X69849909Y-140671740D01*
X70324577Y-140354577D01*
X70560000Y-140002242D01*
X70795423Y-140354577D01*
X71270091Y-140671740D01*
X71688667Y-140755000D01*
X71971333Y-140755000D01*
X72389909Y-140671740D01*
X72864577Y-140354577D01*
X73100000Y-140002242D01*
X73335423Y-140354577D01*
X73810091Y-140671740D01*
X74228667Y-140755000D01*
X74511333Y-140755000D01*
X74929909Y-140671740D01*
X75404577Y-140354577D01*
X75721740Y-139879909D01*
X75833113Y-139320000D01*
X75721740Y-138760091D01*
X75404577Y-138285423D01*
X74929909Y-137968260D01*
X74511333Y-137885000D01*
X74228667Y-137885000D01*
X73810091Y-137968260D01*
X73335423Y-138285423D01*
X73100000Y-138637758D01*
X72864577Y-138285423D01*
X72389909Y-137968260D01*
X71971333Y-137885000D01*
X71688667Y-137885000D01*
X71270091Y-137968260D01*
X70795423Y-138285423D01*
X70560000Y-138637758D01*
X70324577Y-138285423D01*
X69849909Y-137968260D01*
X69431333Y-137885000D01*
X69148667Y-137885000D01*
X68730091Y-137968260D01*
X68255423Y-138285423D01*
X68020000Y-138637758D01*
X67784577Y-138285423D01*
X67309909Y-137968260D01*
X66891333Y-137885000D01*
X66608667Y-137885000D01*
X66190091Y-137968260D01*
X65715423Y-138285423D01*
X65480000Y-138637758D01*
X65244577Y-138285423D01*
X64769909Y-137968260D01*
X64351333Y-137885000D01*
X64068667Y-137885000D01*
X63650091Y-137968260D01*
X63175423Y-138285423D01*
X62940000Y-138637758D01*
X62704577Y-138285423D01*
X62229909Y-137968260D01*
X61811333Y-137885000D01*
X61528667Y-137885000D01*
X61110091Y-137968260D01*
X60635423Y-138285423D01*
X60400000Y-138637758D01*
X60164577Y-138285423D01*
X59689909Y-137968260D01*
X59271333Y-137885000D01*
X58988667Y-137885000D01*
X58570091Y-137968260D01*
X58095423Y-138285423D01*
X57860000Y-138637758D01*
X57624577Y-138285423D01*
X57149909Y-137968260D01*
X56731333Y-137885000D01*
X56448667Y-137885000D01*
X56030091Y-137968260D01*
X55555423Y-138285423D01*
X55320000Y-138637758D01*
X55084577Y-138285423D01*
X54609909Y-137968260D01*
X54191333Y-137885000D01*
X53908667Y-137885000D01*
X53490091Y-137968260D01*
X53015423Y-138285423D01*
X52780000Y-138637758D01*
X52544577Y-138285423D01*
X52069909Y-137968260D01*
X51651333Y-137885000D01*
X51368667Y-137885000D01*
X50950091Y-137968260D01*
X50475423Y-138285423D01*
X50240000Y-138637758D01*
X50004577Y-138285423D01*
X49855000Y-138185479D01*
X49855000Y-137146578D01*
X53873562Y-133128017D01*
X53908667Y-133135000D01*
X54191333Y-133135000D01*
X54609909Y-133051740D01*
X55084577Y-132734577D01*
X55320000Y-132382242D01*
X55555423Y-132734577D01*
X56030091Y-133051740D01*
X56448667Y-133135000D01*
X56731333Y-133135000D01*
X57149909Y-133051740D01*
X57624577Y-132734577D01*
X57860000Y-132382242D01*
X58095423Y-132734577D01*
X58570091Y-133051740D01*
X58988667Y-133135000D01*
X59271333Y-133135000D01*
X59689909Y-133051740D01*
X60164577Y-132734577D01*
X60400000Y-132382242D01*
X60635423Y-132734577D01*
X61110091Y-133051740D01*
X61528667Y-133135000D01*
X61811333Y-133135000D01*
X62229909Y-133051740D01*
X62704577Y-132734577D01*
X62940000Y-132382242D01*
X63175423Y-132734577D01*
X63650091Y-133051740D01*
X64068667Y-133135000D01*
X64351333Y-133135000D01*
X64769909Y-133051740D01*
X65244577Y-132734577D01*
X65480000Y-132382242D01*
X65715423Y-132734577D01*
X66190091Y-133051740D01*
X66608667Y-133135000D01*
X66891333Y-133135000D01*
X67309909Y-133051740D01*
X67784577Y-132734577D01*
X68020000Y-132382242D01*
X68255423Y-132734577D01*
X68730091Y-133051740D01*
X69148667Y-133135000D01*
X69431333Y-133135000D01*
X69849909Y-133051740D01*
X70324577Y-132734577D01*
X70560000Y-132382242D01*
X70795423Y-132734577D01*
X71270091Y-133051740D01*
X71688667Y-133135000D01*
X71971333Y-133135000D01*
X72389909Y-133051740D01*
X72864577Y-132734577D01*
X72945215Y-132613894D01*
X72971843Y-132747765D01*
X73112191Y-132957809D01*
X73322235Y-133098157D01*
X73570000Y-133147440D01*
X75170000Y-133147440D01*
X75417765Y-133098157D01*
X75627809Y-132957809D01*
X75768157Y-132747765D01*
X75817440Y-132500000D01*
X75817440Y-130900000D01*
X75768157Y-130652235D01*
X75627809Y-130442191D01*
X75417765Y-130301843D01*
X75170000Y-130252560D01*
X73570000Y-130252560D01*
X73322235Y-130301843D01*
X73112191Y-130442191D01*
X72971843Y-130652235D01*
X72945215Y-130786106D01*
X72864577Y-130665423D01*
X72389909Y-130348260D01*
X71971333Y-130265000D01*
X71688667Y-130265000D01*
X71270091Y-130348260D01*
X70795423Y-130665423D01*
X70560000Y-131017758D01*
X70324577Y-130665423D01*
X69849909Y-130348260D01*
X69431333Y-130265000D01*
X69148667Y-130265000D01*
X68730091Y-130348260D01*
X68255423Y-130665423D01*
X68020000Y-131017758D01*
X67784577Y-130665423D01*
X67309909Y-130348260D01*
X66891333Y-130265000D01*
X66608667Y-130265000D01*
X66190091Y-130348260D01*
X65715423Y-130665423D01*
X65480000Y-131017758D01*
X65244577Y-130665423D01*
X64769909Y-130348260D01*
X64351333Y-130265000D01*
X64068667Y-130265000D01*
X63650091Y-130348260D01*
X63175423Y-130665423D01*
X62940000Y-131017758D01*
X62704577Y-130665423D01*
X62229909Y-130348260D01*
X61811333Y-130265000D01*
X61528667Y-130265000D01*
X61110091Y-130348260D01*
X60635423Y-130665423D01*
X60400000Y-131017758D01*
X60164577Y-130665423D01*
X59689909Y-130348260D01*
X59271333Y-130265000D01*
X58988667Y-130265000D01*
X58570091Y-130348260D01*
X58095423Y-130665423D01*
X57860000Y-131017758D01*
X57624577Y-130665423D01*
X57149909Y-130348260D01*
X56731333Y-130265000D01*
X56448667Y-130265000D01*
X56030091Y-130348260D01*
X55555423Y-130665423D01*
X55495000Y-130755852D01*
X55495000Y-122488007D01*
X55645000Y-122125874D01*
X55645000Y-121714126D01*
X55487431Y-121333720D01*
X55196280Y-121042569D01*
X54815874Y-120885000D01*
X54404126Y-120885000D01*
X54023720Y-121042569D01*
X53732569Y-121333720D01*
X53575000Y-121714126D01*
X53575000Y-122125874D01*
X53725000Y-122488007D01*
X53725001Y-130301533D01*
X53490091Y-130348260D01*
X53015423Y-130665423D01*
X52780000Y-131017758D01*
X52544577Y-130665423D01*
X52069909Y-130348260D01*
X51651333Y-130265000D01*
X51368667Y-130265000D01*
X50950091Y-130348260D01*
X50475423Y-130665423D01*
X50240000Y-131017758D01*
X50004577Y-130665423D01*
X49529909Y-130348260D01*
X49111333Y-130265000D01*
X48828667Y-130265000D01*
X48410091Y-130348260D01*
X47935423Y-130665423D01*
X47700000Y-131017758D01*
X47464577Y-130665423D01*
X47315000Y-130565479D01*
X47315000Y-130337161D01*
X47332337Y-130250000D01*
X47315000Y-130162839D01*
X47315000Y-130162835D01*
X47263652Y-129904690D01*
X47250702Y-129885309D01*
X47117424Y-129685845D01*
X47117423Y-129685844D01*
X47068049Y-129611951D01*
X46994156Y-129562577D01*
X46605000Y-129173422D01*
X46605000Y-124150804D01*
X46784126Y-124225000D01*
X47195874Y-124225000D01*
X47576280Y-124067431D01*
X47867431Y-123776280D01*
X48025000Y-123395874D01*
X48025000Y-122984126D01*
X47875000Y-122621993D01*
X47875000Y-82000000D01*
X53873000Y-82000000D01*
X53873000Y-90500000D01*
X53882667Y-90548601D01*
X53910197Y-90589803D01*
X53951399Y-90617333D01*
X54000000Y-90627000D01*
X79000000Y-90627000D01*
X79048601Y-90617333D01*
X79089803Y-90589803D01*
X79117333Y-90548601D01*
X79127000Y-90500000D01*
X79127000Y-82000000D01*
X79117333Y-81951399D01*
X79089803Y-81910197D01*
X79048601Y-81882667D01*
X79000000Y-81873000D01*
X54000000Y-81873000D01*
X53951399Y-81882667D01*
X53910197Y-81910197D01*
X53882667Y-81951399D01*
X53873000Y-82000000D01*
X47875000Y-82000000D01*
X47875000Y-75296578D01*
X51166579Y-72005000D01*
X63412839Y-72005000D01*
X63500000Y-72022337D01*
X63587161Y-72005000D01*
X63587165Y-72005000D01*
X63845310Y-71953652D01*
X64138049Y-71758049D01*
X64187425Y-71684153D01*
X65714156Y-70157423D01*
X65788049Y-70108049D01*
X65983652Y-69815310D01*
X66035000Y-69557165D01*
X66035000Y-69557161D01*
X66052337Y-69470001D01*
X66035000Y-69382841D01*
X66035000Y-68894656D01*
X66220625Y-68770625D01*
X66420000Y-68472239D01*
X66619375Y-68770625D01*
X67110582Y-69098839D01*
X67543744Y-69185000D01*
X67836256Y-69185000D01*
X68269418Y-69098839D01*
X68760625Y-68770625D01*
X68960000Y-68472239D01*
X69159375Y-68770625D01*
X69650582Y-69098839D01*
X70083744Y-69185000D01*
X70376256Y-69185000D01*
X70809418Y-69098839D01*
X71300625Y-68770625D01*
X71500000Y-68472239D01*
X71699375Y-68770625D01*
X72190582Y-69098839D01*
X72623744Y-69185000D01*
X72916256Y-69185000D01*
X73349418Y-69098839D01*
X73840625Y-68770625D01*
X74040000Y-68472239D01*
X74239375Y-68770625D01*
X74730582Y-69098839D01*
X75163744Y-69185000D01*
X75456256Y-69185000D01*
X75889418Y-69098839D01*
X76380625Y-68770625D01*
X76580000Y-68472239D01*
X76779375Y-68770625D01*
X77270582Y-69098839D01*
X77703744Y-69185000D01*
X77996256Y-69185000D01*
X78429418Y-69098839D01*
X78920625Y-68770625D01*
X79120000Y-68472239D01*
X79319375Y-68770625D01*
X79810582Y-69098839D01*
X80243744Y-69185000D01*
X80536256Y-69185000D01*
X80969418Y-69098839D01*
X81460625Y-68770625D01*
X81660000Y-68472239D01*
X81859375Y-68770625D01*
X82350582Y-69098839D01*
X82783744Y-69185000D01*
X83076256Y-69185000D01*
X83509418Y-69098839D01*
X84000625Y-68770625D01*
X84200000Y-68472239D01*
X84399375Y-68770625D01*
X84399375Y-68770625D01*
G37*
X84399375Y-68770625D02*
X84890582Y-69098839D01*
X85323744Y-69185000D01*
X85616256Y-69185000D01*
X85824184Y-69143641D01*
X85721951Y-69211951D01*
X85526348Y-69504690D01*
X85457662Y-69850000D01*
X85475001Y-69937169D01*
X85475000Y-71207164D01*
X85475001Y-71207169D01*
X85475000Y-118495000D01*
X75017161Y-118495000D01*
X74930000Y-118477663D01*
X74842839Y-118495000D01*
X74842835Y-118495000D01*
X74584690Y-118546348D01*
X74365845Y-118692576D01*
X74365844Y-118692577D01*
X74291951Y-118741951D01*
X74242577Y-118815844D01*
X71965845Y-121092577D01*
X71891952Y-121141951D01*
X71842578Y-121215844D01*
X71842576Y-121215846D01*
X71696348Y-121434691D01*
X71627663Y-121780000D01*
X71645001Y-121867165D01*
X71645000Y-124235344D01*
X71459375Y-124359375D01*
X71260000Y-124657761D01*
X71060625Y-124359375D01*
X70569418Y-124031161D01*
X70136256Y-123945000D01*
X69843744Y-123945000D01*
X69410582Y-124031161D01*
X68919375Y-124359375D01*
X68720000Y-124657761D01*
X68520625Y-124359375D01*
X68029418Y-124031161D01*
X67596256Y-123945000D01*
X67303744Y-123945000D01*
X66870582Y-124031161D01*
X66379375Y-124359375D01*
X66180000Y-124657761D01*
X65980625Y-124359375D01*
X65489418Y-124031161D01*
X65056256Y-123945000D01*
X64763744Y-123945000D01*
X64330582Y-124031161D01*
X63839375Y-124359375D01*
X63827184Y-124377619D01*
X63818157Y-124332235D01*
X63677809Y-124122191D01*
X63467765Y-123981843D01*
X63220000Y-123932560D01*
X61520000Y-123932560D01*
X61272235Y-123981843D01*
X61062191Y-124122191D01*
X60921843Y-124332235D01*
X60872560Y-124580000D01*
X60872560Y-126280000D01*
X60921843Y-126527765D01*
X61062191Y-126737809D01*
X61272235Y-126878157D01*
X61520000Y-126927440D01*
X63220000Y-126927440D01*
X63467765Y-126878157D01*
X63677809Y-126737809D01*
X63818157Y-126527765D01*
X63827184Y-126482381D01*
X63839375Y-126500625D01*
X64330582Y-126828839D01*
X64763744Y-126915000D01*
X65056256Y-126915000D01*
X65489418Y-126828839D01*
X65980625Y-126500625D01*
X66180000Y-126202239D01*
X66379375Y-126500625D01*
X66870582Y-126828839D01*
X67303744Y-126915000D01*
X67596256Y-126915000D01*
X68029418Y-126828839D01*
X68520625Y-126500625D01*
X68720000Y-126202239D01*
X68919375Y-126500625D01*
X69410582Y-126828839D01*
X69843744Y-126915000D01*
X70136256Y-126915000D01*
X70569418Y-126828839D01*
X71060625Y-126500625D01*
X71260000Y-126202239D01*
X71459375Y-126500625D01*
X71950582Y-126828839D01*
X72383744Y-126915000D01*
X72676256Y-126915000D01*
X73109418Y-126828839D01*
X73600625Y-126500625D01*
X73800000Y-126202239D01*
X73999375Y-126500625D01*
X74490582Y-126828839D01*
X74923744Y-126915000D01*
X75216256Y-126915000D01*
X75649418Y-126828839D01*
X76140625Y-126500625D01*
X76340000Y-126202239D01*
X76539375Y-126500625D01*
X77030582Y-126828839D01*
X77463744Y-126915000D01*
X77756256Y-126915000D01*
X78189418Y-126828839D01*
X78680625Y-126500625D01*
X78880000Y-126202239D01*
X79079375Y-126500625D01*
X79570582Y-126828839D01*
X80003744Y-126915000D01*
X80296256Y-126915000D01*
X80729418Y-126828839D01*
X81220625Y-126500625D01*
X81548839Y-126009418D01*
X81664092Y-125430000D01*
X81548839Y-124850582D01*
X81220625Y-124359375D01*
X80729418Y-124031161D01*
X80296256Y-123945000D01*
X80003744Y-123945000D01*
X79570582Y-124031161D01*
X79079375Y-124359375D01*
X78880000Y-124657761D01*
X78680625Y-124359375D01*
X78508999Y-124244698D01*
X78512337Y-124227918D01*
X78495000Y-124140759D01*
X78495000Y-124140754D01*
X78443652Y-123882609D01*
X78385000Y-123794831D01*
X78385000Y-123385000D01*
X86115000Y-123385000D01*
X86115001Y-130362220D01*
X85735439Y-130205000D01*
X85164561Y-130205000D01*
X84637138Y-130423466D01*
X84233466Y-130827138D01*
X84015000Y-131354561D01*
X84015000Y-131925439D01*
X84233466Y-132452862D01*
X84637138Y-132856534D01*
X84717932Y-132890000D01*
X84637138Y-132923466D01*
X84305604Y-133255000D01*
X83594396Y-133255000D01*
X83262862Y-132923466D01*
X83182068Y-132890000D01*
X83262862Y-132856534D01*
X83666534Y-132452862D01*
X83885000Y-131925439D01*
X83885000Y-131354561D01*
X83666534Y-130827138D01*
X83262862Y-130423466D01*
X82735439Y-130205000D01*
X82164561Y-130205000D01*
X81637138Y-130423466D01*
X81233466Y-130827138D01*
X81015000Y-131354561D01*
X81015000Y-131925439D01*
X81233466Y-132452862D01*
X81637138Y-132856534D01*
X81717932Y-132890000D01*
X81637138Y-132923466D01*
X81233466Y-133327138D01*
X81015000Y-133854561D01*
X81015000Y-134341699D01*
X80887431Y-134033720D01*
X80596280Y-133742569D01*
X80215874Y-133585000D01*
X79804126Y-133585000D01*
X79441993Y-133735000D01*
X74948007Y-133735000D01*
X74585874Y-133585000D01*
X74174126Y-133585000D01*
X73793720Y-133742569D01*
X73502569Y-134033720D01*
X73345000Y-134414126D01*
X73345000Y-134825874D01*
X73502569Y-135206280D01*
X73793720Y-135497431D01*
X74174126Y-135655000D01*
X74585874Y-135655000D01*
X74948007Y-135505000D01*
X79441993Y-135505000D01*
X79804126Y-135655000D01*
X80215874Y-135655000D01*
X80596280Y-135497431D01*
X80887431Y-135206280D01*
X81045000Y-134825874D01*
X81045000Y-134497865D01*
X81233466Y-134952862D01*
X81637138Y-135356534D01*
X82164561Y-135575000D01*
X82735439Y-135575000D01*
X83262862Y-135356534D01*
X83594396Y-135025000D01*
X84305604Y-135025000D01*
X84637138Y-135356534D01*
X85164561Y-135575000D01*
X85735439Y-135575000D01*
X86262862Y-135356534D01*
X86666534Y-134952862D01*
X86885000Y-134425439D01*
X86885000Y-134225001D01*
X87318658Y-134225001D01*
X87405819Y-134242338D01*
X87492980Y-134225001D01*
X87492984Y-134225001D01*
X87751129Y-134173653D01*
X87999180Y-134007910D01*
X88911742Y-134007910D01*
X89035773Y-134193535D01*
X89526980Y-134521749D01*
X89960142Y-134607910D01*
X90252654Y-134607910D01*
X90685816Y-134521749D01*
X91177023Y-134193535D01*
X91301054Y-134007910D01*
X91696210Y-134007910D01*
X91702323Y-134038642D01*
X91897926Y-134331382D01*
X92190666Y-134526985D01*
X92221399Y-134533098D01*
X92221398Y-140027023D01*
X91935844Y-140312577D01*
X91861952Y-140361951D01*
X91812578Y-140435844D01*
X91812576Y-140435846D01*
X91666348Y-140654691D01*
X91597663Y-141000000D01*
X91615001Y-141087165D01*
X91615000Y-145133421D01*
X90935845Y-145812577D01*
X90861952Y-145861951D01*
X90812578Y-145935844D01*
X90812576Y-145935846D01*
X90711335Y-146087363D01*
X90614463Y-146022635D01*
X90912849Y-145823260D01*
X91241063Y-145332053D01*
X91356316Y-144752635D01*
X91241063Y-144173217D01*
X90912849Y-143682010D01*
X90614463Y-143482635D01*
X90912849Y-143283260D01*
X91241063Y-142792053D01*
X91356316Y-142212635D01*
X91241063Y-141633217D01*
X90912849Y-141142010D01*
X90421642Y-140813796D01*
X89988480Y-140727635D01*
X89695968Y-140727635D01*
X89262806Y-140813796D01*
X88771599Y-141142010D01*
X88647568Y-141327635D01*
X87036880Y-141327635D01*
X86912849Y-141142010D01*
X86421642Y-140813796D01*
X85988480Y-140727635D01*
X85695968Y-140727635D01*
X85262806Y-140813796D01*
X84771599Y-141142010D01*
X84647568Y-141327635D01*
X83036880Y-141327635D01*
X82912849Y-141142010D01*
X82421642Y-140813796D01*
X81988480Y-140727635D01*
X81695968Y-140727635D01*
X81262806Y-140813796D01*
X80771599Y-141142010D01*
X80647568Y-141327635D01*
X79036880Y-141327635D01*
X78912849Y-141142010D01*
X78421642Y-140813796D01*
X77988480Y-140727635D01*
X77695968Y-140727635D01*
X77262806Y-140813796D01*
X76771599Y-141142010D01*
X76443385Y-141633217D01*
X76328132Y-142212635D01*
X76371686Y-142431595D01*
X75988281Y-142815000D01*
X74124521Y-142815000D01*
X74024577Y-142665423D01*
X73549909Y-142348260D01*
X73131333Y-142265000D01*
X72848667Y-142265000D01*
X72813561Y-142271983D01*
X72217425Y-141675847D01*
X72168049Y-141601951D01*
X71875310Y-141406348D01*
X71617165Y-141355000D01*
X71617161Y-141355000D01*
X71530000Y-141337663D01*
X71442839Y-141355000D01*
X64896859Y-141355000D01*
X65043652Y-141135310D01*
X65095000Y-140877165D01*
X65095000Y-140877161D01*
X65112337Y-140790000D01*
X65095000Y-140702839D01*
X65095000Y-140454521D01*
X65244577Y-140354577D01*
X65480000Y-140002242D01*
X65715423Y-140354577D01*
X66190091Y-140671740D01*
X66608667Y-140755000D01*
X66891333Y-140755000D01*
X67309909Y-140671740D01*
X67784577Y-140354577D01*
X68020000Y-140002242D01*
X68255423Y-140354577D01*
X68730091Y-140671740D01*
X69148667Y-140755000D01*
X69431333Y-140755000D01*
X69849909Y-140671740D01*
X70324577Y-140354577D01*
X70560000Y-140002242D01*
X70795423Y-140354577D01*
X71270091Y-140671740D01*
X71688667Y-140755000D01*
X71971333Y-140755000D01*
X72389909Y-140671740D01*
X72864577Y-140354577D01*
X73100000Y-140002242D01*
X73335423Y-140354577D01*
X73810091Y-140671740D01*
X74228667Y-140755000D01*
X74511333Y-140755000D01*
X74929909Y-140671740D01*
X75404577Y-140354577D01*
X75721740Y-139879909D01*
X75833113Y-139320000D01*
X75721740Y-138760091D01*
X75404577Y-138285423D01*
X74929909Y-137968260D01*
X74511333Y-137885000D01*
X74228667Y-137885000D01*
X73810091Y-137968260D01*
X73335423Y-138285423D01*
X73100000Y-138637758D01*
X72864577Y-138285423D01*
X72389909Y-137968260D01*
X71971333Y-137885000D01*
X71688667Y-137885000D01*
X71270091Y-137968260D01*
X70795423Y-138285423D01*
X70560000Y-138637758D01*
X70324577Y-138285423D01*
X69849909Y-137968260D01*
X69431333Y-137885000D01*
X69148667Y-137885000D01*
X68730091Y-137968260D01*
X68255423Y-138285423D01*
X68020000Y-138637758D01*
X67784577Y-138285423D01*
X67309909Y-137968260D01*
X66891333Y-137885000D01*
X66608667Y-137885000D01*
X66190091Y-137968260D01*
X65715423Y-138285423D01*
X65480000Y-138637758D01*
X65244577Y-138285423D01*
X64769909Y-137968260D01*
X64351333Y-137885000D01*
X64068667Y-137885000D01*
X63650091Y-137968260D01*
X63175423Y-138285423D01*
X62940000Y-138637758D01*
X62704577Y-138285423D01*
X62229909Y-137968260D01*
X61811333Y-137885000D01*
X61528667Y-137885000D01*
X61110091Y-137968260D01*
X60635423Y-138285423D01*
X60400000Y-138637758D01*
X60164577Y-138285423D01*
X59689909Y-137968260D01*
X59271333Y-137885000D01*
X58988667Y-137885000D01*
X58570091Y-137968260D01*
X58095423Y-138285423D01*
X57860000Y-138637758D01*
X57624577Y-138285423D01*
X57149909Y-137968260D01*
X56731333Y-137885000D01*
X56448667Y-137885000D01*
X56030091Y-137968260D01*
X55555423Y-138285423D01*
X55320000Y-138637758D01*
X55084577Y-138285423D01*
X54609909Y-137968260D01*
X54191333Y-137885000D01*
X53908667Y-137885000D01*
X53490091Y-137968260D01*
X53015423Y-138285423D01*
X52780000Y-138637758D01*
X52544577Y-138285423D01*
X52069909Y-137968260D01*
X51651333Y-137885000D01*
X51368667Y-137885000D01*
X50950091Y-137968260D01*
X50475423Y-138285423D01*
X50240000Y-138637758D01*
X50004577Y-138285423D01*
X49855000Y-138185479D01*
X49855000Y-137146578D01*
X53873562Y-133128017D01*
X53908667Y-133135000D01*
X54191333Y-133135000D01*
X54609909Y-133051740D01*
X55084577Y-132734577D01*
X55320000Y-132382242D01*
X55555423Y-132734577D01*
X56030091Y-133051740D01*
X56448667Y-133135000D01*
X56731333Y-133135000D01*
X57149909Y-133051740D01*
X57624577Y-132734577D01*
X57860000Y-132382242D01*
X58095423Y-132734577D01*
X58570091Y-133051740D01*
X58988667Y-133135000D01*
X59271333Y-133135000D01*
X59689909Y-133051740D01*
X60164577Y-132734577D01*
X60400000Y-132382242D01*
X60635423Y-132734577D01*
X61110091Y-133051740D01*
X61528667Y-133135000D01*
X61811333Y-133135000D01*
X62229909Y-133051740D01*
X62704577Y-132734577D01*
X62940000Y-132382242D01*
X63175423Y-132734577D01*
X63650091Y-133051740D01*
X64068667Y-133135000D01*
X64351333Y-133135000D01*
X64769909Y-133051740D01*
X65244577Y-132734577D01*
X65480000Y-132382242D01*
X65715423Y-132734577D01*
X66190091Y-133051740D01*
X66608667Y-133135000D01*
X66891333Y-133135000D01*
X67309909Y-133051740D01*
X67784577Y-132734577D01*
X68020000Y-132382242D01*
X68255423Y-132734577D01*
X68730091Y-133051740D01*
X69148667Y-133135000D01*
X69431333Y-133135000D01*
X69849909Y-133051740D01*
X70324577Y-132734577D01*
X70560000Y-132382242D01*
X70795423Y-132734577D01*
X71270091Y-133051740D01*
X71688667Y-133135000D01*
X71971333Y-133135000D01*
X72389909Y-133051740D01*
X72864577Y-132734577D01*
X72945215Y-132613894D01*
X72971843Y-132747765D01*
X73112191Y-132957809D01*
X73322235Y-133098157D01*
X73570000Y-133147440D01*
X75170000Y-133147440D01*
X75417765Y-133098157D01*
X75627809Y-132957809D01*
X75768157Y-132747765D01*
X75817440Y-132500000D01*
X75817440Y-130900000D01*
X75768157Y-130652235D01*
X75627809Y-130442191D01*
X75417765Y-130301843D01*
X75170000Y-130252560D01*
X73570000Y-130252560D01*
X73322235Y-130301843D01*
X73112191Y-130442191D01*
X72971843Y-130652235D01*
X72945215Y-130786106D01*
X72864577Y-130665423D01*
X72389909Y-130348260D01*
X71971333Y-130265000D01*
X71688667Y-130265000D01*
X71270091Y-130348260D01*
X70795423Y-130665423D01*
X70560000Y-131017758D01*
X70324577Y-130665423D01*
X69849909Y-130348260D01*
X69431333Y-130265000D01*
X69148667Y-130265000D01*
X68730091Y-130348260D01*
X68255423Y-130665423D01*
X68020000Y-131017758D01*
X67784577Y-130665423D01*
X67309909Y-130348260D01*
X66891333Y-130265000D01*
X66608667Y-130265000D01*
X66190091Y-130348260D01*
X65715423Y-130665423D01*
X65480000Y-131017758D01*
X65244577Y-130665423D01*
X64769909Y-130348260D01*
X64351333Y-130265000D01*
X64068667Y-130265000D01*
X63650091Y-130348260D01*
X63175423Y-130665423D01*
X62940000Y-131017758D01*
X62704577Y-130665423D01*
X62229909Y-130348260D01*
X61811333Y-130265000D01*
X61528667Y-130265000D01*
X61110091Y-130348260D01*
X60635423Y-130665423D01*
X60400000Y-131017758D01*
X60164577Y-130665423D01*
X59689909Y-130348260D01*
X59271333Y-130265000D01*
X58988667Y-130265000D01*
X58570091Y-130348260D01*
X58095423Y-130665423D01*
X57860000Y-131017758D01*
X57624577Y-130665423D01*
X57149909Y-130348260D01*
X56731333Y-130265000D01*
X56448667Y-130265000D01*
X56030091Y-130348260D01*
X55555423Y-130665423D01*
X55495000Y-130755852D01*
X55495000Y-122488007D01*
X55645000Y-122125874D01*
X55645000Y-121714126D01*
X55487431Y-121333720D01*
X55196280Y-121042569D01*
X54815874Y-120885000D01*
X54404126Y-120885000D01*
X54023720Y-121042569D01*
X53732569Y-121333720D01*
X53575000Y-121714126D01*
X53575000Y-122125874D01*
X53725000Y-122488007D01*
X53725001Y-130301533D01*
X53490091Y-130348260D01*
X53015423Y-130665423D01*
X52780000Y-131017758D01*
X52544577Y-130665423D01*
X52069909Y-130348260D01*
X51651333Y-130265000D01*
X51368667Y-130265000D01*
X50950091Y-130348260D01*
X50475423Y-130665423D01*
X50240000Y-131017758D01*
X50004577Y-130665423D01*
X49529909Y-130348260D01*
X49111333Y-130265000D01*
X48828667Y-130265000D01*
X48410091Y-130348260D01*
X47935423Y-130665423D01*
X47700000Y-131017758D01*
X47464577Y-130665423D01*
X47315000Y-130565479D01*
X47315000Y-130337161D01*
X47332337Y-130250000D01*
X47315000Y-130162839D01*
X47315000Y-130162835D01*
X47263652Y-129904690D01*
X47250702Y-129885309D01*
X47117424Y-129685845D01*
X47117423Y-129685844D01*
X47068049Y-129611951D01*
X46994156Y-129562577D01*
X46605000Y-129173422D01*
X46605000Y-124150804D01*
X46784126Y-124225000D01*
X47195874Y-124225000D01*
X47576280Y-124067431D01*
X47867431Y-123776280D01*
X48025000Y-123395874D01*
X48025000Y-122984126D01*
X47875000Y-122621993D01*
X47875000Y-82000000D01*
X53873000Y-82000000D01*
X53873000Y-90500000D01*
X53882667Y-90548601D01*
X53910197Y-90589803D01*
X53951399Y-90617333D01*
X54000000Y-90627000D01*
X79000000Y-90627000D01*
X79048601Y-90617333D01*
X79089803Y-90589803D01*
X79117333Y-90548601D01*
X79127000Y-90500000D01*
X79127000Y-82000000D01*
X79117333Y-81951399D01*
X79089803Y-81910197D01*
X79048601Y-81882667D01*
X79000000Y-81873000D01*
X54000000Y-81873000D01*
X53951399Y-81882667D01*
X53910197Y-81910197D01*
X53882667Y-81951399D01*
X53873000Y-82000000D01*
X47875000Y-82000000D01*
X47875000Y-75296578D01*
X51166579Y-72005000D01*
X63412839Y-72005000D01*
X63500000Y-72022337D01*
X63587161Y-72005000D01*
X63587165Y-72005000D01*
X63845310Y-71953652D01*
X64138049Y-71758049D01*
X64187425Y-71684153D01*
X65714156Y-70157423D01*
X65788049Y-70108049D01*
X65983652Y-69815310D01*
X66035000Y-69557165D01*
X66035000Y-69557161D01*
X66052337Y-69470001D01*
X66035000Y-69382841D01*
X66035000Y-68894656D01*
X66220625Y-68770625D01*
X66420000Y-68472239D01*
X66619375Y-68770625D01*
X67110582Y-69098839D01*
X67543744Y-69185000D01*
X67836256Y-69185000D01*
X68269418Y-69098839D01*
X68760625Y-68770625D01*
X68960000Y-68472239D01*
X69159375Y-68770625D01*
X69650582Y-69098839D01*
X70083744Y-69185000D01*
X70376256Y-69185000D01*
X70809418Y-69098839D01*
X71300625Y-68770625D01*
X71500000Y-68472239D01*
X71699375Y-68770625D01*
X72190582Y-69098839D01*
X72623744Y-69185000D01*
X72916256Y-69185000D01*
X73349418Y-69098839D01*
X73840625Y-68770625D01*
X74040000Y-68472239D01*
X74239375Y-68770625D01*
X74730582Y-69098839D01*
X75163744Y-69185000D01*
X75456256Y-69185000D01*
X75889418Y-69098839D01*
X76380625Y-68770625D01*
X76580000Y-68472239D01*
X76779375Y-68770625D01*
X77270582Y-69098839D01*
X77703744Y-69185000D01*
X77996256Y-69185000D01*
X78429418Y-69098839D01*
X78920625Y-68770625D01*
X79120000Y-68472239D01*
X79319375Y-68770625D01*
X79810582Y-69098839D01*
X80243744Y-69185000D01*
X80536256Y-69185000D01*
X80969418Y-69098839D01*
X81460625Y-68770625D01*
X81660000Y-68472239D01*
X81859375Y-68770625D01*
X82350582Y-69098839D01*
X82783744Y-69185000D01*
X83076256Y-69185000D01*
X83509418Y-69098839D01*
X84000625Y-68770625D01*
X84200000Y-68472239D01*
X84399375Y-68770625D01*
G36*
X61345000Y-145696481D02*
X61341740Y-145680091D01*
X61024577Y-145205423D01*
X60672242Y-144970000D01*
X61024577Y-144734577D01*
X61341740Y-144259909D01*
X61345000Y-144243520D01*
X61345000Y-145696481D01*
X61345000Y-145696481D01*
G37*
X61345000Y-145696481D02*
X61341740Y-145680091D01*
X61024577Y-145205423D01*
X60672242Y-144970000D01*
X61024577Y-144734577D01*
X61341740Y-144259909D01*
X61345000Y-144243520D01*
X61345000Y-145696481D01*
G36*
X50971843Y-142652235D02*
X50922560Y-142900000D01*
X50922560Y-144500000D01*
X50971843Y-144747765D01*
X51112191Y-144957809D01*
X51322235Y-145098157D01*
X51456106Y-145124785D01*
X51335423Y-145205423D01*
X51235479Y-145355000D01*
X50885000Y-145355000D01*
X50885000Y-142585000D01*
X51016768Y-142585000D01*
X50971843Y-142652235D01*
X50971843Y-142652235D01*
G37*
X50971843Y-142652235D02*
X50922560Y-142900000D01*
X50922560Y-144500000D01*
X50971843Y-144747765D01*
X51112191Y-144957809D01*
X51322235Y-145098157D01*
X51456106Y-145124785D01*
X51335423Y-145205423D01*
X51235479Y-145355000D01*
X50885000Y-145355000D01*
X50885000Y-142585000D01*
X51016768Y-142585000D01*
X50971843Y-142652235D01*
G36*
X58955423Y-144734577D02*
X59307758Y-144970000D01*
X58955423Y-145205423D01*
X58885000Y-145310818D01*
X58885000Y-144629182D01*
X58955423Y-144734577D01*
X58955423Y-144734577D01*
G37*
X58955423Y-144734577D02*
X59307758Y-144970000D01*
X58955423Y-145205423D01*
X58885000Y-145310818D01*
X58885000Y-144629182D01*
X58955423Y-144734577D01*
G36*
X88771599Y-143283260D02*
X89069985Y-143482635D01*
X88771599Y-143682010D01*
X88647568Y-143867635D01*
X87036880Y-143867635D01*
X86912849Y-143682010D01*
X86614463Y-143482635D01*
X86912849Y-143283260D01*
X87036880Y-143097635D01*
X88647568Y-143097635D01*
X88771599Y-143283260D01*
X88771599Y-143283260D01*
G37*
X88771599Y-143283260D02*
X89069985Y-143482635D01*
X88771599Y-143682010D01*
X88647568Y-143867635D01*
X87036880Y-143867635D01*
X86912849Y-143682010D01*
X86614463Y-143482635D01*
X86912849Y-143283260D01*
X87036880Y-143097635D01*
X88647568Y-143097635D01*
X88771599Y-143283260D01*
G36*
X84771599Y-143283260D02*
X85069985Y-143482635D01*
X84771599Y-143682010D01*
X84647568Y-143867635D01*
X83036880Y-143867635D01*
X82912849Y-143682010D01*
X82614463Y-143482635D01*
X82912849Y-143283260D01*
X83036880Y-143097635D01*
X84647568Y-143097635D01*
X84771599Y-143283260D01*
X84771599Y-143283260D01*
G37*
X84771599Y-143283260D02*
X85069985Y-143482635D01*
X84771599Y-143682010D01*
X84647568Y-143867635D01*
X83036880Y-143867635D01*
X82912849Y-143682010D01*
X82614463Y-143482635D01*
X82912849Y-143283260D01*
X83036880Y-143097635D01*
X84647568Y-143097635D01*
X84771599Y-143283260D01*
G36*
X80771599Y-143283260D02*
X81069985Y-143482635D01*
X80771599Y-143682010D01*
X80647568Y-143867635D01*
X79036880Y-143867635D01*
X78912849Y-143682010D01*
X78614463Y-143482635D01*
X78912849Y-143283260D01*
X79036880Y-143097635D01*
X80647568Y-143097635D01*
X80771599Y-143283260D01*
X80771599Y-143283260D01*
G37*
X80771599Y-143283260D02*
X81069985Y-143482635D01*
X80771599Y-143682010D01*
X80647568Y-143867635D01*
X79036880Y-143867635D01*
X78912849Y-143682010D01*
X78614463Y-143482635D01*
X78912849Y-143283260D01*
X79036880Y-143097635D01*
X80647568Y-143097635D01*
X80771599Y-143283260D01*
G36*
X63015343Y-140115000D02*
X62864657Y-140115000D01*
X62940000Y-140002242D01*
X63015343Y-140115000D01*
X63015343Y-140115000D01*
G37*
X63015343Y-140115000D02*
X62864657Y-140115000D01*
X62940000Y-140002242D01*
X63015343Y-140115000D01*
G36*
X51364292Y-133134130D02*
X48405847Y-136092575D01*
X48331951Y-136141951D01*
X48136348Y-136434691D01*
X48085000Y-136692836D01*
X48085000Y-136692839D01*
X48067663Y-136780000D01*
X48085000Y-136867161D01*
X48085001Y-138185478D01*
X47935423Y-138285423D01*
X47700000Y-138637758D01*
X47464577Y-138285423D01*
X47315000Y-138185479D01*
X47315000Y-137146578D01*
X50274156Y-134187423D01*
X50348049Y-134138049D01*
X50397425Y-134064153D01*
X51333561Y-133128017D01*
X51364292Y-133134130D01*
X51364292Y-133134130D01*
G37*
X51364292Y-133134130D02*
X48405847Y-136092575D01*
X48331951Y-136141951D01*
X48136348Y-136434691D01*
X48085000Y-136692836D01*
X48085000Y-136692839D01*
X48067663Y-136780000D01*
X48085000Y-136867161D01*
X48085001Y-138185478D01*
X47935423Y-138285423D01*
X47700000Y-138637758D01*
X47464577Y-138285423D01*
X47315000Y-138185479D01*
X47315000Y-137146578D01*
X50274156Y-134187423D01*
X50348049Y-134138049D01*
X50397425Y-134064153D01*
X51333561Y-133128017D01*
X51364292Y-133134130D01*
G36*
X42775524Y-132615000D02*
X42464476Y-132615000D01*
X42620000Y-132382242D01*
X42775524Y-132615000D01*
X42775524Y-132615000D01*
G37*
X42775524Y-132615000D02*
X42464476Y-132615000D01*
X42620000Y-132382242D01*
X42775524Y-132615000D01*
G36*
X45315524Y-132615000D02*
X45004476Y-132615000D01*
X45160000Y-132382242D01*
X45315524Y-132615000D01*
X45315524Y-132615000D01*
G37*
X45315524Y-132615000D02*
X45004476Y-132615000D01*
X45160000Y-132382242D01*
X45315524Y-132615000D01*
G36*
X47855524Y-132615000D02*
X47544476Y-132615000D01*
X47700000Y-132382242D01*
X47855524Y-132615000D01*
X47855524Y-132615000D01*
G37*
X47855524Y-132615000D02*
X47544476Y-132615000D01*
X47700000Y-132382242D01*
X47855524Y-132615000D01*
G36*
X97707559Y-131162328D02*
X98035773Y-131653535D01*
X98334159Y-131852910D01*
X98035773Y-132052285D01*
X97911742Y-132237910D01*
X97317757Y-132237910D01*
X97177023Y-132027286D01*
X96878637Y-131827911D01*
X97177023Y-131628536D01*
X97505237Y-131137329D01*
X97603912Y-130641256D01*
X97707559Y-131162328D01*
X97707559Y-131162328D01*
G37*
X97707559Y-131162328D02*
X98035773Y-131653535D01*
X98334159Y-131852910D01*
X98035773Y-132052285D01*
X97911742Y-132237910D01*
X97317757Y-132237910D01*
X97177023Y-132027286D01*
X96878637Y-131827911D01*
X97177023Y-131628536D01*
X97505237Y-131137329D01*
X97603912Y-130641256D01*
X97707559Y-131162328D01*
G36*
X94707559Y-131137329D02*
X95035773Y-131628536D01*
X95334159Y-131827911D01*
X95035773Y-132027286D01*
X94895039Y-132237910D01*
X94301054Y-132237910D01*
X94177023Y-132052285D01*
X93878637Y-131852910D01*
X94177023Y-131653535D01*
X94505237Y-131162328D01*
X94608884Y-130641256D01*
X94707559Y-131137329D01*
X94707559Y-131137329D01*
G37*
X94707559Y-131137329D02*
X95035773Y-131628536D01*
X95334159Y-131827911D01*
X95035773Y-132027286D01*
X94895039Y-132237910D01*
X94301054Y-132237910D01*
X94177023Y-132052285D01*
X93878637Y-131852910D01*
X94177023Y-131653535D01*
X94505237Y-131162328D01*
X94608884Y-130641256D01*
X94707559Y-131137329D01*
G36*
X89911951Y-72138049D02*
X89985847Y-72187425D01*
X92221399Y-74422978D01*
X92221398Y-126552432D01*
X92008633Y-126594753D01*
X91798589Y-126735101D01*
X91658241Y-126945145D01*
X91608958Y-127192910D01*
X91608958Y-128892910D01*
X91658241Y-129140675D01*
X91798589Y-129350719D01*
X92008633Y-129491067D01*
X92054017Y-129500094D01*
X92035773Y-129512285D01*
X91707559Y-130003492D01*
X91606398Y-130512064D01*
X91505237Y-130003492D01*
X91177023Y-129512285D01*
X91158779Y-129500094D01*
X91204163Y-129491067D01*
X91414207Y-129350719D01*
X91554555Y-129140675D01*
X91603838Y-128892910D01*
X91603838Y-127192910D01*
X91554555Y-126945145D01*
X91414207Y-126735101D01*
X91204163Y-126594753D01*
X90956398Y-126545470D01*
X89256398Y-126545470D01*
X89008633Y-126594753D01*
X88798589Y-126735101D01*
X88658241Y-126945145D01*
X88608958Y-127192910D01*
X88608958Y-128892910D01*
X88658241Y-129140675D01*
X88798589Y-129350719D01*
X89008633Y-129491067D01*
X89054017Y-129500094D01*
X89035773Y-129512285D01*
X88707559Y-130003492D01*
X88592306Y-130582910D01*
X88707559Y-131162328D01*
X89035773Y-131653535D01*
X89334159Y-131852910D01*
X89035773Y-132052285D01*
X88911742Y-132237910D01*
X87989489Y-132237910D01*
X87885000Y-132133422D01*
X87885000Y-122587165D01*
X87902338Y-122500000D01*
X87833652Y-122154690D01*
X87638049Y-121861951D01*
X87345310Y-121666348D01*
X87087165Y-121615000D01*
X87087164Y-121615000D01*
X87000000Y-121597662D01*
X86912835Y-121615000D01*
X78087161Y-121615000D01*
X78000000Y-121597663D01*
X77912839Y-121615000D01*
X77912835Y-121615000D01*
X77654690Y-121666348D01*
X77361951Y-121861951D01*
X77312575Y-121935847D01*
X76935845Y-122312577D01*
X76861952Y-122361951D01*
X76812578Y-122435844D01*
X76812576Y-122435846D01*
X76666348Y-122654691D01*
X76597663Y-123000000D01*
X76615001Y-123087165D01*
X76615000Y-124030758D01*
X76597663Y-124117919D01*
X76615000Y-124205080D01*
X76615000Y-124205083D01*
X76633218Y-124296671D01*
X76539375Y-124359375D01*
X76340000Y-124657761D01*
X76140625Y-124359375D01*
X75955000Y-124235344D01*
X75955000Y-122146578D01*
X76566579Y-121535000D01*
X87542839Y-121535000D01*
X87630000Y-121552337D01*
X87717161Y-121535000D01*
X87717165Y-121535000D01*
X87975310Y-121483652D01*
X88268049Y-121288049D01*
X88317425Y-121214153D01*
X89464156Y-120067423D01*
X89538049Y-120018049D01*
X89733652Y-119725310D01*
X89785000Y-119467165D01*
X89785000Y-119467161D01*
X89802337Y-119380001D01*
X89785000Y-119292841D01*
X89785000Y-71948054D01*
X89911951Y-72138049D01*
X89911951Y-72138049D01*
G37*
X89911951Y-72138049D02*
X89985847Y-72187425D01*
X92221399Y-74422978D01*
X92221398Y-126552432D01*
X92008633Y-126594753D01*
X91798589Y-126735101D01*
X91658241Y-126945145D01*
X91608958Y-127192910D01*
X91608958Y-128892910D01*
X91658241Y-129140675D01*
X91798589Y-129350719D01*
X92008633Y-129491067D01*
X92054017Y-129500094D01*
X92035773Y-129512285D01*
X91707559Y-130003492D01*
X91606398Y-130512064D01*
X91505237Y-130003492D01*
X91177023Y-129512285D01*
X91158779Y-129500094D01*
X91204163Y-129491067D01*
X91414207Y-129350719D01*
X91554555Y-129140675D01*
X91603838Y-128892910D01*
X91603838Y-127192910D01*
X91554555Y-126945145D01*
X91414207Y-126735101D01*
X91204163Y-126594753D01*
X90956398Y-126545470D01*
X89256398Y-126545470D01*
X89008633Y-126594753D01*
X88798589Y-126735101D01*
X88658241Y-126945145D01*
X88608958Y-127192910D01*
X88608958Y-128892910D01*
X88658241Y-129140675D01*
X88798589Y-129350719D01*
X89008633Y-129491067D01*
X89054017Y-129500094D01*
X89035773Y-129512285D01*
X88707559Y-130003492D01*
X88592306Y-130582910D01*
X88707559Y-131162328D01*
X89035773Y-131653535D01*
X89334159Y-131852910D01*
X89035773Y-132052285D01*
X88911742Y-132237910D01*
X87989489Y-132237910D01*
X87885000Y-132133422D01*
X87885000Y-122587165D01*
X87902338Y-122500000D01*
X87833652Y-122154690D01*
X87638049Y-121861951D01*
X87345310Y-121666348D01*
X87087165Y-121615000D01*
X87087164Y-121615000D01*
X87000000Y-121597662D01*
X86912835Y-121615000D01*
X78087161Y-121615000D01*
X78000000Y-121597663D01*
X77912839Y-121615000D01*
X77912835Y-121615000D01*
X77654690Y-121666348D01*
X77361951Y-121861951D01*
X77312575Y-121935847D01*
X76935845Y-122312577D01*
X76861952Y-122361951D01*
X76812578Y-122435844D01*
X76812576Y-122435846D01*
X76666348Y-122654691D01*
X76597663Y-123000000D01*
X76615001Y-123087165D01*
X76615000Y-124030758D01*
X76597663Y-124117919D01*
X76615000Y-124205080D01*
X76615000Y-124205083D01*
X76633218Y-124296671D01*
X76539375Y-124359375D01*
X76340000Y-124657761D01*
X76140625Y-124359375D01*
X75955000Y-124235344D01*
X75955000Y-122146578D01*
X76566579Y-121535000D01*
X87542839Y-121535000D01*
X87630000Y-121552337D01*
X87717161Y-121535000D01*
X87717165Y-121535000D01*
X87975310Y-121483652D01*
X88268049Y-121288049D01*
X88317425Y-121214153D01*
X89464156Y-120067423D01*
X89538049Y-120018049D01*
X89733652Y-119725310D01*
X89785000Y-119467165D01*
X89785000Y-119467161D01*
X89802337Y-119380001D01*
X89785000Y-119292841D01*
X89785000Y-71948054D01*
X89911951Y-72138049D01*
G36*
X91707559Y-131162328D02*
X92035773Y-131653535D01*
X92334159Y-131852910D01*
X92035773Y-132052285D01*
X91911742Y-132237910D01*
X91301054Y-132237910D01*
X91177023Y-132052285D01*
X90878637Y-131852910D01*
X91177023Y-131653535D01*
X91505237Y-131162328D01*
X91606398Y-130653756D01*
X91707559Y-131162328D01*
X91707559Y-131162328D01*
G37*
X91707559Y-131162328D02*
X92035773Y-131653535D01*
X92334159Y-131852910D01*
X92035773Y-132052285D01*
X91911742Y-132237910D01*
X91301054Y-132237910D01*
X91177023Y-132052285D01*
X90878637Y-131852910D01*
X91177023Y-131653535D01*
X91505237Y-131162328D01*
X91606398Y-130653756D01*
X91707559Y-131162328D01*
G36*
X45155845Y-130227423D02*
X45514368Y-130585947D01*
X45395423Y-130665423D01*
X45160000Y-131017758D01*
X44924577Y-130665423D01*
X44775000Y-130565479D01*
X44775000Y-130466578D01*
X45014153Y-130227425D01*
X45085001Y-130180086D01*
X45155845Y-130227423D01*
X45155845Y-130227423D01*
G37*
X45155845Y-130227423D02*
X45514368Y-130585947D01*
X45395423Y-130665423D01*
X45160000Y-131017758D01*
X44924577Y-130665423D01*
X44775000Y-130565479D01*
X44775000Y-130466578D01*
X45014153Y-130227425D01*
X45085001Y-130180086D01*
X45155845Y-130227423D01*
G36*
X97857588Y-126695679D02*
X97798589Y-126735101D01*
X97658241Y-126945145D01*
X97608958Y-127192910D01*
X97608958Y-128892910D01*
X97658241Y-129140675D01*
X97798589Y-129350719D01*
X98008633Y-129491067D01*
X98054017Y-129500094D01*
X98035773Y-129512285D01*
X97707559Y-130003492D01*
X97608884Y-130499565D01*
X97505237Y-129978493D01*
X97177023Y-129487286D01*
X97158779Y-129475095D01*
X97204163Y-129466068D01*
X97414207Y-129325720D01*
X97554555Y-129115676D01*
X97603838Y-128867911D01*
X97603838Y-127167911D01*
X97554555Y-126920146D01*
X97414207Y-126710102D01*
X97204163Y-126569754D01*
X96956398Y-126520471D01*
X95256398Y-126520471D01*
X95008633Y-126569754D01*
X94798589Y-126710102D01*
X94658241Y-126920146D01*
X94608958Y-127167911D01*
X94608958Y-128867911D01*
X94658241Y-129115676D01*
X94798589Y-129325720D01*
X95008633Y-129466068D01*
X95054017Y-129475095D01*
X95035773Y-129487286D01*
X94707559Y-129978493D01*
X94603912Y-130499565D01*
X94505237Y-130003492D01*
X94177023Y-129512285D01*
X94158779Y-129500094D01*
X94204163Y-129491067D01*
X94414207Y-129350719D01*
X94554555Y-129140675D01*
X94603838Y-128892910D01*
X94603838Y-127192910D01*
X94554555Y-126945145D01*
X94414207Y-126735101D01*
X94204163Y-126594753D01*
X93991398Y-126552432D01*
X93991398Y-125360071D01*
X94067165Y-125345000D01*
X96506910Y-125345000D01*
X97857588Y-126695679D01*
X97857588Y-126695679D01*
G37*
X97857588Y-126695679D02*
X97798589Y-126735101D01*
X97658241Y-126945145D01*
X97608958Y-127192910D01*
X97608958Y-128892910D01*
X97658241Y-129140675D01*
X97798589Y-129350719D01*
X98008633Y-129491067D01*
X98054017Y-129500094D01*
X98035773Y-129512285D01*
X97707559Y-130003492D01*
X97608884Y-130499565D01*
X97505237Y-129978493D01*
X97177023Y-129487286D01*
X97158779Y-129475095D01*
X97204163Y-129466068D01*
X97414207Y-129325720D01*
X97554555Y-129115676D01*
X97603838Y-128867911D01*
X97603838Y-127167911D01*
X97554555Y-126920146D01*
X97414207Y-126710102D01*
X97204163Y-126569754D01*
X96956398Y-126520471D01*
X95256398Y-126520471D01*
X95008633Y-126569754D01*
X94798589Y-126710102D01*
X94658241Y-126920146D01*
X94608958Y-127167911D01*
X94608958Y-128867911D01*
X94658241Y-129115676D01*
X94798589Y-129325720D01*
X95008633Y-129466068D01*
X95054017Y-129475095D01*
X95035773Y-129487286D01*
X94707559Y-129978493D01*
X94603912Y-130499565D01*
X94505237Y-130003492D01*
X94177023Y-129512285D01*
X94158779Y-129500094D01*
X94204163Y-129491067D01*
X94414207Y-129350719D01*
X94554555Y-129140675D01*
X94603838Y-128892910D01*
X94603838Y-127192910D01*
X94554555Y-126945145D01*
X94414207Y-126735101D01*
X94204163Y-126594753D01*
X93991398Y-126552432D01*
X93991398Y-125360071D01*
X94067165Y-125345000D01*
X96506910Y-125345000D01*
X97857588Y-126695679D01*
G36*
X102373000Y-125293918D02*
X102238049Y-125091951D01*
X102164156Y-125042577D01*
X99747425Y-122625847D01*
X99698049Y-122551951D01*
X99405310Y-122356348D01*
X99147165Y-122305000D01*
X99147161Y-122305000D01*
X99060000Y-122287663D01*
X98972839Y-122305000D01*
X96135000Y-122305000D01*
X96135000Y-81216492D01*
X96461436Y-82004579D01*
X96461878Y-82004873D01*
X96462276Y-82005835D01*
X97344165Y-82887724D01*
X97345127Y-82888122D01*
X97345421Y-82888564D01*
X97921550Y-83126885D01*
X98496410Y-83365000D01*
X98497181Y-83365000D01*
X98497892Y-83365294D01*
X99120423Y-83365000D01*
X99743590Y-83365000D01*
X99744301Y-83364705D01*
X99745072Y-83364705D01*
X100894579Y-82888564D01*
X100894873Y-82888122D01*
X100895835Y-82887724D01*
X101777724Y-82005835D01*
X101778122Y-82004873D01*
X101778564Y-82004579D01*
X102016885Y-81428450D01*
X102255000Y-80853590D01*
X102255000Y-80852819D01*
X102255294Y-80852108D01*
X102255000Y-80229577D01*
X102255000Y-79606410D01*
X102254705Y-79605699D01*
X102254705Y-79604928D01*
X101778564Y-78455421D01*
X101778122Y-78455127D01*
X101777724Y-78454165D01*
X100895835Y-77572276D01*
X100894873Y-77571878D01*
X100894579Y-77571436D01*
X100318450Y-77333115D01*
X99743590Y-77095000D01*
X99742819Y-77095000D01*
X99742108Y-77094706D01*
X99119577Y-77095000D01*
X98496410Y-77095000D01*
X98495699Y-77095295D01*
X98494928Y-77095295D01*
X97345421Y-77571436D01*
X97345127Y-77571878D01*
X97344165Y-77572276D01*
X96462276Y-78454165D01*
X96461878Y-78455127D01*
X96461436Y-78455421D01*
X96223115Y-79031550D01*
X96135000Y-79244278D01*
X96135000Y-75815000D01*
X100242839Y-75815000D01*
X100330000Y-75832337D01*
X100417161Y-75815000D01*
X100417165Y-75815000D01*
X100675310Y-75763652D01*
X100968049Y-75568049D01*
X101017425Y-75494153D01*
X102164156Y-74347423D01*
X102238049Y-74298049D01*
X102373000Y-74096082D01*
X102373000Y-125293918D01*
X102373000Y-125293918D01*
G37*
X102373000Y-125293918D02*
X102238049Y-125091951D01*
X102164156Y-125042577D01*
X99747425Y-122625847D01*
X99698049Y-122551951D01*
X99405310Y-122356348D01*
X99147165Y-122305000D01*
X99147161Y-122305000D01*
X99060000Y-122287663D01*
X98972839Y-122305000D01*
X96135000Y-122305000D01*
X96135000Y-81216492D01*
X96461436Y-82004579D01*
X96461878Y-82004873D01*
X96462276Y-82005835D01*
X97344165Y-82887724D01*
X97345127Y-82888122D01*
X97345421Y-82888564D01*
X97921550Y-83126885D01*
X98496410Y-83365000D01*
X98497181Y-83365000D01*
X98497892Y-83365294D01*
X99120423Y-83365000D01*
X99743590Y-83365000D01*
X99744301Y-83364705D01*
X99745072Y-83364705D01*
X100894579Y-82888564D01*
X100894873Y-82888122D01*
X100895835Y-82887724D01*
X101777724Y-82005835D01*
X101778122Y-82004873D01*
X101778564Y-82004579D01*
X102016885Y-81428450D01*
X102255000Y-80853590D01*
X102255000Y-80852819D01*
X102255294Y-80852108D01*
X102255000Y-80229577D01*
X102255000Y-79606410D01*
X102254705Y-79605699D01*
X102254705Y-79604928D01*
X101778564Y-78455421D01*
X101778122Y-78455127D01*
X101777724Y-78454165D01*
X100895835Y-77572276D01*
X100894873Y-77571878D01*
X100894579Y-77571436D01*
X100318450Y-77333115D01*
X99743590Y-77095000D01*
X99742819Y-77095000D01*
X99742108Y-77094706D01*
X99119577Y-77095000D01*
X98496410Y-77095000D01*
X98495699Y-77095295D01*
X98494928Y-77095295D01*
X97345421Y-77571436D01*
X97345127Y-77571878D01*
X97344165Y-77572276D01*
X96462276Y-78454165D01*
X96461878Y-78455127D01*
X96461436Y-78455421D01*
X96223115Y-79031550D01*
X96135000Y-79244278D01*
X96135000Y-75815000D01*
X100242839Y-75815000D01*
X100330000Y-75832337D01*
X100417161Y-75815000D01*
X100417165Y-75815000D01*
X100675310Y-75763652D01*
X100968049Y-75568049D01*
X101017425Y-75494153D01*
X102164156Y-74347423D01*
X102238049Y-74298049D01*
X102373000Y-74096082D01*
X102373000Y-125293918D01*
G36*
X74505845Y-121092577D02*
X74431952Y-121141951D01*
X74382578Y-121215844D01*
X74382576Y-121215846D01*
X74236348Y-121434691D01*
X74167663Y-121780000D01*
X74185001Y-121867165D01*
X74185000Y-124235344D01*
X73999375Y-124359375D01*
X73800000Y-124657761D01*
X73600625Y-124359375D01*
X73415000Y-124235344D01*
X73415000Y-122146578D01*
X75296579Y-120265000D01*
X75333421Y-120265000D01*
X74505845Y-121092577D01*
X74505845Y-121092577D01*
G37*
X74505845Y-121092577D02*
X74431952Y-121141951D01*
X74382578Y-121215844D01*
X74382576Y-121215846D01*
X74236348Y-121434691D01*
X74167663Y-121780000D01*
X74185001Y-121867165D01*
X74185000Y-124235344D01*
X73999375Y-124359375D01*
X73800000Y-124657761D01*
X73600625Y-124359375D01*
X73415000Y-124235344D01*
X73415000Y-122146578D01*
X75296579Y-120265000D01*
X75333421Y-120265000D01*
X74505845Y-121092577D01*
G36*
X87865000Y-70914126D02*
X87865000Y-71325874D01*
X88015001Y-71688009D01*
X88015000Y-119013421D01*
X87263422Y-119765000D01*
X87167132Y-119765000D01*
X87193652Y-119725310D01*
X87221387Y-119585874D01*
X87245000Y-119467165D01*
X87245000Y-119467164D01*
X87262338Y-119380000D01*
X87245000Y-119292835D01*
X87245000Y-70735000D01*
X87939196Y-70735000D01*
X87865000Y-70914126D01*
X87865000Y-70914126D01*
G37*
X87865000Y-70914126D02*
X87865000Y-71325874D01*
X88015001Y-71688009D01*
X88015000Y-119013421D01*
X87263422Y-119765000D01*
X87167132Y-119765000D01*
X87193652Y-119725310D01*
X87221387Y-119585874D01*
X87245000Y-119467165D01*
X87245000Y-119467164D01*
X87262338Y-119380000D01*
X87245000Y-119292835D01*
X87245000Y-70735000D01*
X87939196Y-70735000D01*
X87865000Y-70914126D01*
G36*
X94559375Y-68770625D02*
X94785878Y-68921970D01*
X94663720Y-68972569D01*
X94372569Y-69263720D01*
X94215000Y-69644126D01*
X94215000Y-70055874D01*
X94372569Y-70436280D01*
X94421289Y-70485000D01*
X94372569Y-70533720D01*
X94215000Y-70914126D01*
X94215000Y-71325874D01*
X94372569Y-71706280D01*
X94663720Y-71997431D01*
X95044126Y-72155000D01*
X95455874Y-72155000D01*
X95818007Y-72005000D01*
X98692802Y-72005000D01*
X98779963Y-72022337D01*
X98867124Y-72005000D01*
X98867128Y-72005000D01*
X99125273Y-71953652D01*
X99418012Y-71758049D01*
X99467388Y-71684153D01*
X102164156Y-68987386D01*
X102238049Y-68938012D01*
X102320244Y-68815000D01*
X102373000Y-68736045D01*
X102373000Y-70429289D01*
X102186280Y-70242569D01*
X101805874Y-70085000D01*
X101394126Y-70085000D01*
X101013720Y-70242569D01*
X100722569Y-70533720D01*
X100565000Y-70914126D01*
X100565000Y-71325874D01*
X100715001Y-71688009D01*
X100715000Y-73293421D01*
X99963422Y-74045000D01*
X95337165Y-74045000D01*
X95250000Y-74027662D01*
X95162836Y-74045000D01*
X95162835Y-74045000D01*
X94904690Y-74096348D01*
X94865000Y-74122868D01*
X94865000Y-72987159D01*
X94882337Y-72899999D01*
X94865000Y-72812840D01*
X94865000Y-72812835D01*
X94813652Y-72554690D01*
X94618049Y-72261951D01*
X94544156Y-72212577D01*
X93975000Y-71643422D01*
X93975000Y-68894656D01*
X94160625Y-68770625D01*
X94360000Y-68472239D01*
X94559375Y-68770625D01*
X94559375Y-68770625D01*
G37*
X94559375Y-68770625D02*
X94785878Y-68921970D01*
X94663720Y-68972569D01*
X94372569Y-69263720D01*
X94215000Y-69644126D01*
X94215000Y-70055874D01*
X94372569Y-70436280D01*
X94421289Y-70485000D01*
X94372569Y-70533720D01*
X94215000Y-70914126D01*
X94215000Y-71325874D01*
X94372569Y-71706280D01*
X94663720Y-71997431D01*
X95044126Y-72155000D01*
X95455874Y-72155000D01*
X95818007Y-72005000D01*
X98692802Y-72005000D01*
X98779963Y-72022337D01*
X98867124Y-72005000D01*
X98867128Y-72005000D01*
X99125273Y-71953652D01*
X99418012Y-71758049D01*
X99467388Y-71684153D01*
X102164156Y-68987386D01*
X102238049Y-68938012D01*
X102320244Y-68815000D01*
X102373000Y-68736045D01*
X102373000Y-70429289D01*
X102186280Y-70242569D01*
X101805874Y-70085000D01*
X101394126Y-70085000D01*
X101013720Y-70242569D01*
X100722569Y-70533720D01*
X100565000Y-70914126D01*
X100565000Y-71325874D01*
X100715001Y-71688009D01*
X100715000Y-73293421D01*
X99963422Y-74045000D01*
X95337165Y-74045000D01*
X95250000Y-74027662D01*
X95162836Y-74045000D01*
X95162835Y-74045000D01*
X94904690Y-74096348D01*
X94865000Y-74122868D01*
X94865000Y-72987159D01*
X94882337Y-72899999D01*
X94865000Y-72812840D01*
X94865000Y-72812835D01*
X94813652Y-72554690D01*
X94618049Y-72261951D01*
X94544156Y-72212577D01*
X93975000Y-71643422D01*
X93975000Y-68894656D01*
X94160625Y-68770625D01*
X94360000Y-68472239D01*
X94559375Y-68770625D01*
G36*
X92019375Y-68770625D02*
X92205000Y-68894656D01*
X92205001Y-71903423D01*
X91435000Y-71133422D01*
X91435000Y-68894656D01*
X91620625Y-68770625D01*
X91820000Y-68472239D01*
X92019375Y-68770625D01*
X92019375Y-68770625D01*
G37*
X92019375Y-68770625D02*
X92205000Y-68894656D01*
X92205001Y-71903423D01*
X91435000Y-71133422D01*
X91435000Y-68894656D01*
X91620625Y-68770625D01*
X91820000Y-68472239D01*
X92019375Y-68770625D01*
G36*
X64079375Y-68770625D02*
X64265001Y-68894656D01*
X64265001Y-69103420D01*
X63133422Y-70235000D01*
X51166579Y-70235000D01*
X52231040Y-69170538D01*
X52303744Y-69185000D01*
X52596256Y-69185000D01*
X53029418Y-69098839D01*
X53520625Y-68770625D01*
X53720000Y-68472239D01*
X53919375Y-68770625D01*
X54410582Y-69098839D01*
X54843744Y-69185000D01*
X55136256Y-69185000D01*
X55569418Y-69098839D01*
X56060625Y-68770625D01*
X56260000Y-68472239D01*
X56459375Y-68770625D01*
X56950582Y-69098839D01*
X57383744Y-69185000D01*
X57676256Y-69185000D01*
X58109418Y-69098839D01*
X58600625Y-68770625D01*
X58800000Y-68472239D01*
X58999375Y-68770625D01*
X59490582Y-69098839D01*
X59923744Y-69185000D01*
X60216256Y-69185000D01*
X60649418Y-69098839D01*
X61140625Y-68770625D01*
X61340000Y-68472239D01*
X61539375Y-68770625D01*
X62030582Y-69098839D01*
X62463744Y-69185000D01*
X62756256Y-69185000D01*
X63189418Y-69098839D01*
X63680625Y-68770625D01*
X63880000Y-68472239D01*
X64079375Y-68770625D01*
X64079375Y-68770625D01*
G37*
X64079375Y-68770625D02*
X64265001Y-68894656D01*
X64265001Y-69103420D01*
X63133422Y-70235000D01*
X51166579Y-70235000D01*
X52231040Y-69170538D01*
X52303744Y-69185000D01*
X52596256Y-69185000D01*
X53029418Y-69098839D01*
X53520625Y-68770625D01*
X53720000Y-68472239D01*
X53919375Y-68770625D01*
X54410582Y-69098839D01*
X54843744Y-69185000D01*
X55136256Y-69185000D01*
X55569418Y-69098839D01*
X56060625Y-68770625D01*
X56260000Y-68472239D01*
X56459375Y-68770625D01*
X56950582Y-69098839D01*
X57383744Y-69185000D01*
X57676256Y-69185000D01*
X58109418Y-69098839D01*
X58600625Y-68770625D01*
X58800000Y-68472239D01*
X58999375Y-68770625D01*
X59490582Y-69098839D01*
X59923744Y-69185000D01*
X60216256Y-69185000D01*
X60649418Y-69098839D01*
X61140625Y-68770625D01*
X61340000Y-68472239D01*
X61539375Y-68770625D01*
X62030582Y-69098839D01*
X62463744Y-69185000D01*
X62756256Y-69185000D01*
X63189418Y-69098839D01*
X63680625Y-68770625D01*
X63880000Y-68472239D01*
X64079375Y-68770625D01*
G36*
X49721770Y-69176651D02*
X49145000Y-69753421D01*
X49145000Y-69716578D01*
X49691040Y-69170538D01*
X49721770Y-69176651D01*
X49721770Y-69176651D01*
G37*
X49721770Y-69176651D02*
X49145000Y-69753421D01*
X49145000Y-69716578D01*
X49691040Y-69170538D01*
X49721770Y-69176651D01*
G36*
X89479375Y-68770625D02*
X89665001Y-68894656D01*
X89665001Y-69151290D01*
X89486280Y-68972569D01*
X89105874Y-68815000D01*
X89014213Y-68815000D01*
X89080625Y-68770625D01*
X89280000Y-68472239D01*
X89479375Y-68770625D01*
X89479375Y-68770625D01*
G37*
X89479375Y-68770625D02*
X89665001Y-68894656D01*
X89665001Y-69151290D01*
X89486280Y-68972569D01*
X89105874Y-68815000D01*
X89014213Y-68815000D01*
X89080625Y-68770625D01*
X89280000Y-68472239D01*
X89479375Y-68770625D01*
G36*
X86939375Y-68770625D02*
X87230278Y-68965000D01*
X86447165Y-68965000D01*
X86360000Y-68947662D01*
X86272836Y-68965000D01*
X86272835Y-68965000D01*
X86239925Y-68971546D01*
X86540625Y-68770625D01*
X86740000Y-68472239D01*
X86939375Y-68770625D01*
X86939375Y-68770625D01*
G37*
X86939375Y-68770625D02*
X87230278Y-68965000D01*
X86447165Y-68965000D01*
X86360000Y-68947662D01*
X86272836Y-68965000D01*
X86272835Y-68965000D01*
X86239925Y-68971546D01*
X86540625Y-68770625D01*
X86740000Y-68472239D01*
X86939375Y-68770625D01*
G36*
X99445000Y-63866579D02*
X99445001Y-68213420D01*
X98693422Y-68965000D01*
X96409722Y-68965000D01*
X96700625Y-68770625D01*
X97028839Y-68279418D01*
X97144092Y-67700000D01*
X97028839Y-67120582D01*
X96700625Y-66629375D01*
X96402239Y-66430000D01*
X96700625Y-66230625D01*
X97028839Y-65739418D01*
X97144092Y-65160000D01*
X97028839Y-64580582D01*
X96700625Y-64089375D01*
X96209418Y-63761161D01*
X95776256Y-63675000D01*
X95483744Y-63675000D01*
X95050582Y-63761161D01*
X94559375Y-64089375D01*
X94360000Y-64387761D01*
X94160625Y-64089375D01*
X93669418Y-63761161D01*
X93236256Y-63675000D01*
X92943744Y-63675000D01*
X92510582Y-63761161D01*
X92019375Y-64089375D01*
X91820000Y-64387761D01*
X91620625Y-64089375D01*
X91129418Y-63761161D01*
X90696256Y-63675000D01*
X90403744Y-63675000D01*
X89970582Y-63761161D01*
X89479375Y-64089375D01*
X89280000Y-64387761D01*
X89080625Y-64089375D01*
X88589418Y-63761161D01*
X88156256Y-63675000D01*
X87863744Y-63675000D01*
X87430582Y-63761161D01*
X86939375Y-64089375D01*
X86740000Y-64387761D01*
X86540625Y-64089375D01*
X86049418Y-63761161D01*
X85616256Y-63675000D01*
X85323744Y-63675000D01*
X84890582Y-63761161D01*
X84399375Y-64089375D01*
X84200000Y-64387761D01*
X84000625Y-64089375D01*
X83509418Y-63761161D01*
X83076256Y-63675000D01*
X82783744Y-63675000D01*
X82350582Y-63761161D01*
X81859375Y-64089375D01*
X81660000Y-64387761D01*
X81460625Y-64089375D01*
X80969418Y-63761161D01*
X80536256Y-63675000D01*
X80243744Y-63675000D01*
X79810582Y-63761161D01*
X79319375Y-64089375D01*
X79120000Y-64387761D01*
X78920625Y-64089375D01*
X78429418Y-63761161D01*
X77996256Y-63675000D01*
X77703744Y-63675000D01*
X77270582Y-63761161D01*
X76779375Y-64089375D01*
X76580000Y-64387761D01*
X76380625Y-64089375D01*
X75889418Y-63761161D01*
X75456256Y-63675000D01*
X75163744Y-63675000D01*
X74730582Y-63761161D01*
X74239375Y-64089375D01*
X74040000Y-64387761D01*
X73840625Y-64089375D01*
X73349418Y-63761161D01*
X72916256Y-63675000D01*
X72623744Y-63675000D01*
X72190582Y-63761161D01*
X71699375Y-64089375D01*
X71500000Y-64387761D01*
X71300625Y-64089375D01*
X70809418Y-63761161D01*
X70418230Y-63683349D01*
X70986579Y-63115000D01*
X98693422Y-63115000D01*
X99445000Y-63866579D01*
X99445000Y-63866579D01*
G37*
X99445000Y-63866579D02*
X99445001Y-68213420D01*
X98693422Y-68965000D01*
X96409722Y-68965000D01*
X96700625Y-68770625D01*
X97028839Y-68279418D01*
X97144092Y-67700000D01*
X97028839Y-67120582D01*
X96700625Y-66629375D01*
X96402239Y-66430000D01*
X96700625Y-66230625D01*
X97028839Y-65739418D01*
X97144092Y-65160000D01*
X97028839Y-64580582D01*
X96700625Y-64089375D01*
X96209418Y-63761161D01*
X95776256Y-63675000D01*
X95483744Y-63675000D01*
X95050582Y-63761161D01*
X94559375Y-64089375D01*
X94360000Y-64387761D01*
X94160625Y-64089375D01*
X93669418Y-63761161D01*
X93236256Y-63675000D01*
X92943744Y-63675000D01*
X92510582Y-63761161D01*
X92019375Y-64089375D01*
X91820000Y-64387761D01*
X91620625Y-64089375D01*
X91129418Y-63761161D01*
X90696256Y-63675000D01*
X90403744Y-63675000D01*
X89970582Y-63761161D01*
X89479375Y-64089375D01*
X89280000Y-64387761D01*
X89080625Y-64089375D01*
X88589418Y-63761161D01*
X88156256Y-63675000D01*
X87863744Y-63675000D01*
X87430582Y-63761161D01*
X86939375Y-64089375D01*
X86740000Y-64387761D01*
X86540625Y-64089375D01*
X86049418Y-63761161D01*
X85616256Y-63675000D01*
X85323744Y-63675000D01*
X84890582Y-63761161D01*
X84399375Y-64089375D01*
X84200000Y-64387761D01*
X84000625Y-64089375D01*
X83509418Y-63761161D01*
X83076256Y-63675000D01*
X82783744Y-63675000D01*
X82350582Y-63761161D01*
X81859375Y-64089375D01*
X81660000Y-64387761D01*
X81460625Y-64089375D01*
X80969418Y-63761161D01*
X80536256Y-63675000D01*
X80243744Y-63675000D01*
X79810582Y-63761161D01*
X79319375Y-64089375D01*
X79120000Y-64387761D01*
X78920625Y-64089375D01*
X78429418Y-63761161D01*
X77996256Y-63675000D01*
X77703744Y-63675000D01*
X77270582Y-63761161D01*
X76779375Y-64089375D01*
X76580000Y-64387761D01*
X76380625Y-64089375D01*
X75889418Y-63761161D01*
X75456256Y-63675000D01*
X75163744Y-63675000D01*
X74730582Y-63761161D01*
X74239375Y-64089375D01*
X74040000Y-64387761D01*
X73840625Y-64089375D01*
X73349418Y-63761161D01*
X72916256Y-63675000D01*
X72623744Y-63675000D01*
X72190582Y-63761161D01*
X71699375Y-64089375D01*
X71500000Y-64387761D01*
X71300625Y-64089375D01*
X70809418Y-63761161D01*
X70418230Y-63683349D01*
X70986579Y-63115000D01*
X98693422Y-63115000D01*
X99445000Y-63866579D01*
G36*
X79319375Y-66230625D02*
X79617761Y-66430000D01*
X79319375Y-66629375D01*
X79120000Y-66927761D01*
X78920625Y-66629375D01*
X78622239Y-66430000D01*
X78920625Y-66230625D01*
X79120000Y-65932239D01*
X79319375Y-66230625D01*
X79319375Y-66230625D01*
G37*
X79319375Y-66230625D02*
X79617761Y-66430000D01*
X79319375Y-66629375D01*
X79120000Y-66927761D01*
X78920625Y-66629375D01*
X78622239Y-66430000D01*
X78920625Y-66230625D01*
X79120000Y-65932239D01*
X79319375Y-66230625D01*
G36*
X81859375Y-66230625D02*
X82157761Y-66430000D01*
X81859375Y-66629375D01*
X81660000Y-66927761D01*
X81460625Y-66629375D01*
X81162239Y-66430000D01*
X81460625Y-66230625D01*
X81660000Y-65932239D01*
X81859375Y-66230625D01*
X81859375Y-66230625D01*
G37*
X81859375Y-66230625D02*
X82157761Y-66430000D01*
X81859375Y-66629375D01*
X81660000Y-66927761D01*
X81460625Y-66629375D01*
X81162239Y-66430000D01*
X81460625Y-66230625D01*
X81660000Y-65932239D01*
X81859375Y-66230625D01*
G36*
X84399375Y-66230625D02*
X84697761Y-66430000D01*
X84399375Y-66629375D01*
X84200000Y-66927761D01*
X84000625Y-66629375D01*
X83702239Y-66430000D01*
X84000625Y-66230625D01*
X84200000Y-65932239D01*
X84399375Y-66230625D01*
X84399375Y-66230625D01*
G37*
X84399375Y-66230625D02*
X84697761Y-66430000D01*
X84399375Y-66629375D01*
X84200000Y-66927761D01*
X84000625Y-66629375D01*
X83702239Y-66430000D01*
X84000625Y-66230625D01*
X84200000Y-65932239D01*
X84399375Y-66230625D01*
G36*
X51379375Y-66230625D02*
X51677761Y-66430000D01*
X51379375Y-66629375D01*
X51180000Y-66927761D01*
X50980625Y-66629375D01*
X50682239Y-66430000D01*
X50980625Y-66230625D01*
X51180000Y-65932239D01*
X51379375Y-66230625D01*
X51379375Y-66230625D01*
G37*
X51379375Y-66230625D02*
X51677761Y-66430000D01*
X51379375Y-66629375D01*
X51180000Y-66927761D01*
X50980625Y-66629375D01*
X50682239Y-66430000D01*
X50980625Y-66230625D01*
X51180000Y-65932239D01*
X51379375Y-66230625D01*
G36*
X86939375Y-66230625D02*
X87237761Y-66430000D01*
X86939375Y-66629375D01*
X86740000Y-66927761D01*
X86540625Y-66629375D01*
X86242239Y-66430000D01*
X86540625Y-66230625D01*
X86740000Y-65932239D01*
X86939375Y-66230625D01*
X86939375Y-66230625D01*
G37*
X86939375Y-66230625D02*
X87237761Y-66430000D01*
X86939375Y-66629375D01*
X86740000Y-66927761D01*
X86540625Y-66629375D01*
X86242239Y-66430000D01*
X86540625Y-66230625D01*
X86740000Y-65932239D01*
X86939375Y-66230625D01*
G36*
X76779375Y-66230625D02*
X77077761Y-66430000D01*
X76779375Y-66629375D01*
X76580000Y-66927761D01*
X76380625Y-66629375D01*
X76082239Y-66430000D01*
X76380625Y-66230625D01*
X76580000Y-65932239D01*
X76779375Y-66230625D01*
X76779375Y-66230625D01*
G37*
X76779375Y-66230625D02*
X77077761Y-66430000D01*
X76779375Y-66629375D01*
X76580000Y-66927761D01*
X76380625Y-66629375D01*
X76082239Y-66430000D01*
X76380625Y-66230625D01*
X76580000Y-65932239D01*
X76779375Y-66230625D01*
G36*
X61539375Y-66230625D02*
X61837761Y-66430000D01*
X61539375Y-66629375D01*
X61340000Y-66927761D01*
X61140625Y-66629375D01*
X60842239Y-66430000D01*
X61140625Y-66230625D01*
X61340000Y-65932239D01*
X61539375Y-66230625D01*
X61539375Y-66230625D01*
G37*
X61539375Y-66230625D02*
X61837761Y-66430000D01*
X61539375Y-66629375D01*
X61340000Y-66927761D01*
X61140625Y-66629375D01*
X60842239Y-66430000D01*
X61140625Y-66230625D01*
X61340000Y-65932239D01*
X61539375Y-66230625D01*
G36*
X64079375Y-66230625D02*
X64377761Y-66430000D01*
X64079375Y-66629375D01*
X63880000Y-66927761D01*
X63680625Y-66629375D01*
X63382239Y-66430000D01*
X63680625Y-66230625D01*
X63880000Y-65932239D01*
X64079375Y-66230625D01*
X64079375Y-66230625D01*
G37*
X64079375Y-66230625D02*
X64377761Y-66430000D01*
X64079375Y-66629375D01*
X63880000Y-66927761D01*
X63680625Y-66629375D01*
X63382239Y-66430000D01*
X63680625Y-66230625D01*
X63880000Y-65932239D01*
X64079375Y-66230625D01*
G36*
X66619375Y-66230625D02*
X66917761Y-66430000D01*
X66619375Y-66629375D01*
X66420000Y-66927761D01*
X66220625Y-66629375D01*
X65922239Y-66430000D01*
X66220625Y-66230625D01*
X66420000Y-65932239D01*
X66619375Y-66230625D01*
X66619375Y-66230625D01*
G37*
X66619375Y-66230625D02*
X66917761Y-66430000D01*
X66619375Y-66629375D01*
X66420000Y-66927761D01*
X66220625Y-66629375D01*
X65922239Y-66430000D01*
X66220625Y-66230625D01*
X66420000Y-65932239D01*
X66619375Y-66230625D01*
G36*
X69159375Y-66230625D02*
X69457761Y-66430000D01*
X69159375Y-66629375D01*
X68960000Y-66927761D01*
X68760625Y-66629375D01*
X68462239Y-66430000D01*
X68760625Y-66230625D01*
X68960000Y-65932239D01*
X69159375Y-66230625D01*
X69159375Y-66230625D01*
G37*
X69159375Y-66230625D02*
X69457761Y-66430000D01*
X69159375Y-66629375D01*
X68960000Y-66927761D01*
X68760625Y-66629375D01*
X68462239Y-66430000D01*
X68760625Y-66230625D01*
X68960000Y-65932239D01*
X69159375Y-66230625D01*
G36*
X71699375Y-66230625D02*
X71997761Y-66430000D01*
X71699375Y-66629375D01*
X71500000Y-66927761D01*
X71300625Y-66629375D01*
X71002239Y-66430000D01*
X71300625Y-66230625D01*
X71500000Y-65932239D01*
X71699375Y-66230625D01*
X71699375Y-66230625D01*
G37*
X71699375Y-66230625D02*
X71997761Y-66430000D01*
X71699375Y-66629375D01*
X71500000Y-66927761D01*
X71300625Y-66629375D01*
X71002239Y-66430000D01*
X71300625Y-66230625D01*
X71500000Y-65932239D01*
X71699375Y-66230625D01*
G36*
X89479375Y-66230625D02*
X89777761Y-66430000D01*
X89479375Y-66629375D01*
X89280000Y-66927761D01*
X89080625Y-66629375D01*
X88782239Y-66430000D01*
X89080625Y-66230625D01*
X89280000Y-65932239D01*
X89479375Y-66230625D01*
X89479375Y-66230625D01*
G37*
X89479375Y-66230625D02*
X89777761Y-66430000D01*
X89479375Y-66629375D01*
X89280000Y-66927761D01*
X89080625Y-66629375D01*
X88782239Y-66430000D01*
X89080625Y-66230625D01*
X89280000Y-65932239D01*
X89479375Y-66230625D01*
G36*
X92019375Y-66230625D02*
X92317761Y-66430000D01*
X92019375Y-66629375D01*
X91820000Y-66927761D01*
X91620625Y-66629375D01*
X91322239Y-66430000D01*
X91620625Y-66230625D01*
X91820000Y-65932239D01*
X92019375Y-66230625D01*
X92019375Y-66230625D01*
G37*
X92019375Y-66230625D02*
X92317761Y-66430000D01*
X92019375Y-66629375D01*
X91820000Y-66927761D01*
X91620625Y-66629375D01*
X91322239Y-66430000D01*
X91620625Y-66230625D01*
X91820000Y-65932239D01*
X92019375Y-66230625D01*
G36*
X94559375Y-66230625D02*
X94857761Y-66430000D01*
X94559375Y-66629375D01*
X94360000Y-66927761D01*
X94160625Y-66629375D01*
X93862239Y-66430000D01*
X94160625Y-66230625D01*
X94360000Y-65932239D01*
X94559375Y-66230625D01*
X94559375Y-66230625D01*
G37*
X94559375Y-66230625D02*
X94857761Y-66430000D01*
X94559375Y-66629375D01*
X94360000Y-66927761D01*
X94160625Y-66629375D01*
X93862239Y-66430000D01*
X94160625Y-66230625D01*
X94360000Y-65932239D01*
X94559375Y-66230625D01*
G36*
X74239375Y-66230625D02*
X74537761Y-66430000D01*
X74239375Y-66629375D01*
X74040000Y-66927761D01*
X73840625Y-66629375D01*
X73542239Y-66430000D01*
X73840625Y-66230625D01*
X74040000Y-65932239D01*
X74239375Y-66230625D01*
X74239375Y-66230625D01*
G37*
X74239375Y-66230625D02*
X74537761Y-66430000D01*
X74239375Y-66629375D01*
X74040000Y-66927761D01*
X73840625Y-66629375D01*
X73542239Y-66430000D01*
X73840625Y-66230625D01*
X74040000Y-65932239D01*
X74239375Y-66230625D01*
G36*
X58999375Y-66230625D02*
X59297761Y-66430000D01*
X58999375Y-66629375D01*
X58800000Y-66927761D01*
X58600625Y-66629375D01*
X58302239Y-66430000D01*
X58600625Y-66230625D01*
X58800000Y-65932239D01*
X58999375Y-66230625D01*
X58999375Y-66230625D01*
G37*
X58999375Y-66230625D02*
X59297761Y-66430000D01*
X58999375Y-66629375D01*
X58800000Y-66927761D01*
X58600625Y-66629375D01*
X58302239Y-66430000D01*
X58600625Y-66230625D01*
X58800000Y-65932239D01*
X58999375Y-66230625D01*
G36*
X56459375Y-66230625D02*
X56757761Y-66430000D01*
X56459375Y-66629375D01*
X56260000Y-66927761D01*
X56060625Y-66629375D01*
X55762239Y-66430000D01*
X56060625Y-66230625D01*
X56260000Y-65932239D01*
X56459375Y-66230625D01*
X56459375Y-66230625D01*
G37*
X56459375Y-66230625D02*
X56757761Y-66430000D01*
X56459375Y-66629375D01*
X56260000Y-66927761D01*
X56060625Y-66629375D01*
X55762239Y-66430000D01*
X56060625Y-66230625D01*
X56260000Y-65932239D01*
X56459375Y-66230625D01*
G36*
X53919375Y-66230625D02*
X54217761Y-66430000D01*
X53919375Y-66629375D01*
X53720000Y-66927761D01*
X53520625Y-66629375D01*
X53222239Y-66430000D01*
X53520625Y-66230625D01*
X53720000Y-65932239D01*
X53919375Y-66230625D01*
X53919375Y-66230625D01*
G37*
X53919375Y-66230625D02*
X54217761Y-66430000D01*
X53919375Y-66629375D01*
X53720000Y-66927761D01*
X53520625Y-66629375D01*
X53222239Y-66430000D01*
X53520625Y-66230625D01*
X53720000Y-65932239D01*
X53919375Y-66230625D01*
G36*
X48839375Y-66230625D02*
X49137761Y-66430000D01*
X48839375Y-66629375D01*
X48827184Y-66647619D01*
X48818157Y-66602235D01*
X48677809Y-66392191D01*
X48467765Y-66251843D01*
X48422381Y-66242816D01*
X48440625Y-66230625D01*
X48640000Y-65932239D01*
X48839375Y-66230625D01*
X48839375Y-66230625D01*
G37*
X48839375Y-66230625D02*
X49137761Y-66430000D01*
X48839375Y-66629375D01*
X48827184Y-66647619D01*
X48818157Y-66602235D01*
X48677809Y-66392191D01*
X48467765Y-66251843D01*
X48422381Y-66242816D01*
X48440625Y-66230625D01*
X48640000Y-65932239D01*
X48839375Y-66230625D01*
G36*
X46299375Y-66230625D02*
X46317619Y-66242816D01*
X46272235Y-66251843D01*
X46135000Y-66343541D01*
X46135000Y-65984620D01*
X46299375Y-66230625D01*
X46299375Y-66230625D01*
G37*
X46299375Y-66230625D02*
X46317619Y-66242816D01*
X46272235Y-66251843D01*
X46135000Y-66343541D01*
X46135000Y-65984620D01*
X46299375Y-66230625D01*
G36*
X65368960Y-63689462D02*
X65296256Y-63675000D01*
X65003744Y-63675000D01*
X64570582Y-63761161D01*
X64079375Y-64089375D01*
X63880000Y-64387761D01*
X63680625Y-64089375D01*
X63189418Y-63761161D01*
X62798229Y-63683349D01*
X65906579Y-60575000D01*
X68483421Y-60575000D01*
X65368960Y-63689462D01*
X65368960Y-63689462D01*
G37*
X65368960Y-63689462D02*
X65296256Y-63675000D01*
X65003744Y-63675000D01*
X64570582Y-63761161D01*
X64079375Y-64089375D01*
X63880000Y-64387761D01*
X63680625Y-64089375D01*
X63189418Y-63761161D01*
X62798229Y-63683349D01*
X65906579Y-60575000D01*
X68483421Y-60575000D01*
X65368960Y-63689462D01*
G36*
X68015848Y-63582574D02*
X68015845Y-63582576D01*
X67908960Y-63689462D01*
X67878229Y-63683349D01*
X69716579Y-61845000D01*
X69753421Y-61845000D01*
X68015848Y-63582574D01*
X68015848Y-63582574D01*
G37*
X68015848Y-63582574D02*
X68015845Y-63582576D01*
X67908960Y-63689462D01*
X67878229Y-63683349D01*
X69716579Y-61845000D01*
X69753421Y-61845000D01*
X68015848Y-63582574D01*
G36*
X100715000Y-62596579D02*
X100715000Y-62633421D01*
X99926578Y-61845000D01*
X99963422Y-61845000D01*
X100715000Y-62596579D01*
X100715000Y-62596579D01*
G37*
X100715000Y-62596579D02*
X100715000Y-62633421D01*
X99926578Y-61845000D01*
X99963422Y-61845000D01*
X100715000Y-62596579D01*
G36*
X102373000Y-61793918D02*
X102315639Y-61708072D01*
X102373000Y-61650711D01*
X102373000Y-61793918D01*
X102373000Y-61793918D01*
G37*
X102373000Y-61793918D02*
X102315639Y-61708072D01*
X102373000Y-61650711D01*
X102373000Y-61793918D01*
M02*
