M48
;DRILL file {KiCad 5.0.2-bee76a0~70~ubuntu18.04.1} date Tue 12 Mar 2019 23:57:54 GMT
;FORMAT={-:-/ absolute / inch / decimal}
FMAT,2
INCH,TZ
T1C0.0157
T2C0.0315
T3C0.0394
T4C0.0433
T5C0.0598
T6C0.0984
%
G90
G05
T1
X1.75Y-4.7
X1.8Y-4.8
X1.85Y-4.85
X1.9165Y-5.9575
X2.15Y-4.8
X2.9283Y-5.3
X3.15Y-5.3
X3.5Y-2.75
X3.5Y-2.75
X3.5Y-2.8
X3.75Y-2.75
X3.75Y-2.8
X4.Y-2.4
X4.Y-2.8
T2
X3.3642Y-5.1827
X3.3642Y-5.2811
X2.5736Y-5.6575
X2.5736Y-5.7575
X2.5736Y-5.8575
X2.5736Y-5.9575
X2.5736Y-6.0575
X2.5736Y-6.1575
X2.5736Y-6.2575
X2.5736Y-6.3575
X2.8736Y-5.6575
X2.8736Y-5.7575
X2.8736Y-5.8575
X2.8736Y-5.9575
X2.8736Y-6.0575
X2.8736Y-6.1575
X2.8736Y-6.2575
X2.8736Y-6.3575
X3.2461Y-5.1827
X3.2461Y-5.2811
X2.0618Y-5.6575
X2.0618Y-5.7575
X2.0618Y-5.8575
X2.0618Y-5.9575
X2.0618Y-6.0575
X2.0618Y-6.1575
X2.0618Y-6.2575
X2.0618Y-6.3575
X2.3618Y-5.6575
X2.3618Y-5.7575
X2.3618Y-5.8575
X2.3618Y-5.9575
X2.3618Y-6.0575
X2.3618Y-6.1575
X2.3618Y-6.2575
X2.3618Y-6.3575
X1.628Y-5.185
X1.628Y-5.485
X1.728Y-5.185
X1.728Y-5.485
X1.828Y-5.185
X1.828Y-5.485
X1.928Y-5.185
X1.928Y-5.485
X2.028Y-5.185
X2.028Y-5.485
X2.128Y-5.185
X2.128Y-5.485
X2.228Y-5.185
X2.228Y-5.485
X2.328Y-5.185
X2.328Y-5.485
X2.428Y-5.185
X2.428Y-5.485
X2.528Y-5.185
X2.528Y-5.485
X2.628Y-5.185
X2.628Y-5.485
X2.728Y-5.185
X2.728Y-5.485
X2.828Y-5.185
X2.828Y-5.485
X2.928Y-5.185
X2.928Y-5.485
T3
X3.0647Y-5.5989
X3.0647Y-5.6989
X3.0647Y-5.7989
X3.0647Y-5.8989
X3.5475Y-5.0411
X3.5475Y-5.1411
X3.5475Y-5.2411
X3.3796Y-5.5989
X3.3796Y-5.6989
X3.3796Y-5.7989
X3.3796Y-5.8989
X3.5371Y-5.5989
X3.5371Y-5.6989
X3.5371Y-5.7989
X3.5371Y-5.8989
X1.865Y-2.5654
X1.865Y-2.6654
X1.965Y-2.5654
X1.965Y-2.6654
X2.065Y-2.5654
X2.065Y-2.6654
X2.165Y-2.5654
X2.165Y-2.6654
X2.265Y-2.5654
X2.265Y-2.6654
X2.365Y-2.5654
X2.365Y-2.6654
X2.465Y-2.5654
X2.465Y-2.6654
X2.565Y-2.5654
X2.565Y-2.6654
X2.665Y-2.5654
X2.665Y-2.6654
X2.765Y-2.5654
X2.765Y-2.6654
X2.865Y-2.5654
X2.865Y-2.6654
X2.965Y-2.5654
X2.965Y-2.6654
X3.065Y-2.5654
X3.065Y-2.6654
X3.165Y-2.5654
X3.165Y-2.6654
X3.265Y-2.5654
X3.265Y-2.6654
X3.365Y-2.5654
X3.365Y-2.6654
X3.465Y-2.5654
X3.465Y-2.6654
X3.565Y-2.5654
X3.565Y-2.6654
X3.665Y-2.5654
X3.665Y-2.6654
X3.765Y-2.5654
X3.765Y-2.6654
X2.4555Y-4.9382
X2.5555Y-4.9382
X2.6555Y-4.9382
X2.7555Y-4.9382
X2.8555Y-4.9382
X2.9555Y-4.9382
X3.0555Y-4.9382
X3.1555Y-4.9382
X3.6656Y-5.0411
X3.6656Y-5.1411
X3.6656Y-5.2411
X3.7837Y-5.0401
X3.7837Y-5.1401
X3.7837Y-5.2401
X1.6142Y-4.5819
X1.6142Y-4.6819
X1.6142Y-4.7819
X1.6142Y-4.8819
X1.6142Y-4.9819
X3.9018Y-5.0411
X3.9018Y-5.1411
X3.9018Y-5.2411
X3.2221Y-5.5989
X3.2221Y-5.6989
X3.2221Y-5.7989
X3.2221Y-5.8989
T4
X2.4098Y-6.6024
X2.8098Y-6.6024
T5
X3.8335Y-6.15
X3.8335Y-6.35
X3.8189Y-5.7
X3.8189Y-5.9
X2.0193Y-6.6024
X2.2193Y-6.6024
X1.7075Y-5.7362
X1.7075Y-5.9362
X1.7Y-6.15
X1.7Y-6.35
T6
X3.878Y-6.5945
X1.6929Y-6.6
X3.9024Y-3.1587
X1.6929Y-2.6181
T0
M30
